{
.appVersion = "3260";
.formatVersion = 3;
DisplayStrings = (
a,
C,
"̧",
c,
D,
E,
e,
"ę",
G,
g,
"ī",
"ı",
i,
I,
"̨IĮ",
"į",
K,
k,
L,
l,
N,
n,
O,
"̋Ő",
o,
R,
r,
S,
s,
T,
t,
"̧tţ",
U,
"UŲ",
u,
Z,
z,
"Ħ",
"hħ",
h,
"̵hħ",
"/idotaccent",
"ə"
);
customParameters = (
{
name = fsType;
value = (
);
}
);
date = "2024-12-23 21:25:06 +0000";
familyName = Gunda;
featurePrefixes = (
{
automatic = 1;
code = "languagesystem DFLT dflt;

languagesystem latn dflt;
languagesystem latn NLD;
";
name = Languagesystems;
}
);
features = (
{
automatic = 1;
code = "feature sups;
feature frac;
feature locl;
feature salt;
";
tag = aalt;
},
{
automatic = 1;
code = "lookup ccmp_Other_1 {
	@CombiningTopAccents = [acutecomb brevecomb caroncomb circumflexcomb dieresiscomb dotaccentcomb gravecomb hungarumlautcomb macroncomb ringcomb tildecomb];
	lookupflag UseMarkFilteringSet @CombiningTopAccents;
	sub j' @CombiningTopAccents by jdotless;
} ccmp_Other_1;

lookup ccmp_latn_1 {
	lookupflag 0;
	sub fi by f i;
	sub fl by f l;
} ccmp_latn_1;

script latn;
lookup ccmp_latn_1;
";
tag = ccmp;
},
{
automatic = 1;
code = "sub one by onesuperior;
sub two by twosuperior;
sub three by threesuperior;
";
tag = sups;
},
{
automatic = 1;
code = "sub one slash four by onequarter;
sub one slash two by onehalf;
sub three slash four by threequarters;
";
tag = frac;
},
{
code = "lookupflag IgnoreMarks;

";
tag = dlig;
},
{
code = "lookupflag IgnoreMarks;
sub f f i by f_f_i;
sub f f l by f_f_l;
sub f f by f_f;
sub f i by fi;
sub f l by fl;
sub f f j by f_f_j;
sub f j by f_j;
";
tag = liga;
},
{
automatic = 1;
code = "script latn;
language NLD;
lookup locl_latn_0 {
	sub iacute j' by jacute;
	sub Iacute J' by Jacute;
} locl_latn_0;
";
tag = locl;
},
{
automatic = 1;
code = "sub a by a.salt;
sub g by g.salt;
";
tag = salt;
}
);
fontMaster = (
{
customParameters = (
{
name = typoAscender;
value = 1000;
},
{
name = typoDescender;
value = -250;
},
{
name = typoLineGap;
value = 0;
},
{
name = "Alignment Zones";
value = (
{

glyphs = (
{
glyphname = A;
lastChange = "2024-12-23 18:24:20 +0000";
layers = (
{
anchors = (
{
name = bottom;
pos = (270,0);
},
{
name = ogonek;
pos = (486,10);
},
{
name = top;
pos = (270,667);
}
);
layerId = "B909A847-908A-4B08-AB88-1EC2F75AB3CA";
name = Regular;
shapes = (
{
closed = 1;
nodes = (
(144,150,l),
(396,150,l),
(441,12,l),
(444,4,o),
(449,0,o),
(458,0,cs),
(512,0,ls),
(523,0,o),
(528,7,o),
(524,17,c),
(314,655,l),
(311,663,o),
(306,667,o),
(297,667,cs),
(243,667,ls),
(234,667,o),
(229,663,o),
(226,655,c),
(16,17,l),
(12,7,o),
(17,0,o),
(28,0,cs),
(82,0,ls),
(91,0,o),
(96,4,o),
(99,12,c)
);
},
{
closed = 1;
nodes = (
(375,220,l),
(165,220,l),
(270,557,l)
);
}
);
width = 540;
}
);
unicode = 65;
},
{
glyphname = Aacute;
layers = (
{
layerId = "B909A847-908A-4B08-AB88-1EC2F75AB3CA";
name = Regular;
shapes = (
{
closed = 1;
nodes = (
(341,860,l),
(378,795,l),
(205,700,l),
(173,752,l)
);
},
{
closed = 1;
nodes = (
(144,150,l),
(396,150,l),
(441,12,l),
(444,4,o),
(449,0,o),
(458,0,cs),
(512,0,ls),
(523,0,o),
(528,7,o),
(524,17,c),
(314,655,l),
(311,663,o),
(306,667,o),
(297,667,cs),
(243,667,ls),
(234,667,o),
(229,663,o),
(226,655,c),
(16,17,l),
(12,7,o),
(17,0,o),
(28,0,cs),
(82,0,ls),
(91,0,o),
(96,4,o),
(99,12,c)
);
},
{
closed = 1;
nodes = (
(375,220,l),
(165,220,l),
(270,557,l)
);
}
);
width = 540;
}
);
unicode = 193;
},
{
glyphname = Acircumflex;
layers = (
{
layerId = "B909A847-908A-4B08-AB88-1EC2F75AB3CA";
name = Regular;
shapes = (
{
closed = 1;
nodes = (
(122,712,ls),
(127,704,o),
(134,703,o),
(143,708,c),
(270,785,l),
(397,708,l),
(406,703,o),
(413,704,o),
(418,712,cs),
(432,733,ls),
(437,741,o),
(436,748,o),
(428,754,cs),
(280,862,l),
(273,868,o),
(267,868,o),
(260,862,c),
(112,754,ls),
(104,748,o),
(103,741,o),
(108,733,cs)
);
},
{
closed = 1;
nodes = (
(144,150,l),
(396,150,l),
(441,12,l),
(444,4,o),
(449,0,o),
(458,0,cs),
(512,0,ls),
(523,0,o),
(528,7,o),
(524,17,c),
(314,655,l),
(311,663,o),
(306,667,o),
(297,667,cs),
(243,667,ls),
(234,667,o),
(229,663,o),
(226,655,c),
(16,17,l),
(12,7,o),
(17,0,o),
(28,0,cs),
(82,0,ls),
(91,0,o),
(96,4,o),
(99,12,c)
);
},
{
closed = 1;
nodes = (
(375,220,l),
(165,220,l),
(270,557,l)
);
}
);
width = 540;
}
);
unicode = 194;
},
{
glyphname = Adieresis;
layers = (
{
layerId = "B909A847-908A-4B08-AB88-1EC2F75AB3CA";
name = Regular;
shapes = (
{
closed = 1;
nodes = (
(150,721,o),
(171,700,o),
(197,700,cs),
(223,700,o),
(245,721,o),
(245,747,cs),
(245,773,o),
(223,795,o),
(197,795,cs),
(171,795,o),
(150,773,o),
(150,747,cs)
);
},
{
closed = 1;
nodes = (
(295,721,o),
(316,700,o),
(342,700,cs),
(368,700,o),
(390,721,o),
(390,747,cs),
(390,773,o),
(368,795,o),
(342,795,cs),
(316,795,o),
(295,773,o),
(295,747,cs)
);
},
{
closed = 1;
nodes = (
(144,150,l),
(396,150,l),
(441,12,l),
(444,4,o),
(449,0,o),
(458,0,cs),
(512,0,ls),
(523,0,o),
(528,7,o),
(524,17,c),
(314,655,l),
(311,663,o),
(306,667,o),
(297,667,cs),
(243,667,ls),
(234,667,o),
(229,663,o),
(226,655,c),
(16,17,l),
(12,7,o),
(17,0,o),
(28,0,cs),
(82,0,ls),
(91,0,o),
(96,4,o),
(99,12,c)
);
},
{
closed = 1;
nodes = (
(375,220,l),
(165,220,l),
(270,557,l)
);
}
);
width = 540;
}
);
unicode = 196;
},
{
glyphname = Agrave;
layers = (
{
layerId = "B909A847-908A-4B08-AB88-1EC2F75AB3CA";
name = Regular;
shapes = (
{
closed = 1;
nodes = (
(327,708,ls),
(335,703,o),
(343,705,o),
(347,713,c),
(365,744,ls),
(370,753,o),
(368,760,o),
(360,765,cs),
(217,857,ls),
(209,862,o),
(201,860,o),
(196,852,c),
(174,813,l),
(170,805,o),
(172,797,o),
(180,793,c)
);
},
{
closed = 1;
nodes = (
(144,150,l),
(396,150,l),
(441,12,l),
(444,4,o),
(449,0,o),
(458,0,cs),
(512,0,ls),
(523,0,o),
(528,7,o),
(524,17,c),
(314,655,l),
(311,663,o),
(306,667,o),
(297,667,cs),
(243,667,ls),
(234,667,o),
(229,663,o),
(226,655,c),
(16,17,l),
(12,7,o),
(17,0,o),
(28,0,cs),
(82,0,ls),
(91,0,o),
(96,4,o),
(99,12,c)
);
},
{
closed = 1;
nodes = (
(375,220,l),
(165,220,l),
(270,557,l)
);
}
);
width = 540;
}
);
unicode = 192;
},
{
glyphname = Aring;
layers = (
{
layerId = "B909A847-908A-4B08-AB88-1EC2F75AB3CA";
name = Regular;
shapes = (
{
closed = 1;
nodes = (
(195,729,o),
(229,695,o),
(270,695,cs),
(311,695,o),
(345,729,o),
(345,770,cs),
(345,811,o),
(311,845,o),
(270,845,cs),
(229,845,o),
(195,811,o),
(195,770,cs)
);
},
{
closed = 1;
nodes = (
(235,789,o),
(251,805,o),
(270,805,cs),
(289,805,o),
(305,789,o),
(305,770,cs),
(305,751,o),
(289,735,o),
(270,735,cs),
(251,735,o),
(235,751,o),
(235,770,cs)
);
},
{
closed = 1;
nodes = (
(144,150,l),
(396,150,l),
(441,12,l),
(444,4,o),
(449,0,o),
(458,0,cs),
(512,0,ls),
(523,0,o),
(528,7,o),
(524,17,c),
(314,655,l),
(311,663,o),
(306,667,o),
(297,667,cs),
(243,667,ls),
(234,667,o),
(229,663,o),
(226,655,c),
(16,17,l),
(12,7,o),
(17,0,o),
(28,0,cs),
(82,0,ls),
(91,0,o),
(96,4,o),
(99,12,c)
);
},
{
closed = 1;
nodes = (
(375,220,l),
(165,220,l),
(270,557,l)
);
}
);
width = 540;
}
);
unicode = 197;
},
{
glyphname = Atilde;
layers = (
{
layerId = "B909A847-908A-4B08-AB88-1EC2F75AB3CA";
name = Regular;
shapes = (
{
closed = 1;
nodes = (
(121,728,l),
(128,721,o),
(135,721,o),
(142,727,c),
(156,738,o),
(182,755,o),
(203,755,cs),
(269,755,o),
(269,705,o),
(337,705,cs),
(375,705,o),
(416,739,o),
(435,757,cs),
(442,764,o),
(442,772,o),
(435,778,c),
(418,795,l),
(412,802,o),
(405,801,o),
(397,795,c),
(384,784,o),
(360,768,o),
(337,768,cs),
(269,768,o),
(268,818,o),
(203,818,cs),
(163,818,o),
(124,784,o),
(106,766,c),
(99,760,o),
(99,752,o),
(106,745,c)
);
},
{
closed = 1;
nodes = (
(144,150,l),
(396,150,l),
(441,12,l),
(444,4,o),
(449,0,o),
(458,0,cs),
(512,0,ls),
(523,0,o),
(528,7,o),
(524,17,c),
(314,655,l),
(311,663,o),
(306,667,o),
(297,667,cs),
(243,667,ls),
(234,667,o),
(229,663,o),
(226,655,c),
(16,17,l),
(12,7,o),
(17,0,o),
(28,0,cs),
(82,0,ls),
(91,0,o),
(96,4,o),
(99,12,c)
);
},
{
closed = 1;
nodes = (
(375,220,l),
(165,220,l),
(270,557,l)
);
}
);
width = 540;
}
);
unicode = 195;
},
{
glyphname = AE;
layers = (
{
layerId = "B909A847-908A-4B08-AB88-1EC2F75AB3CA";
name = Regular;
shapes = (
{
closed = 1;
nodes = (
(157,150,l),
(350,150,l),
(350,15,ls),
(350,5,o),
(355,0,o),
(365,0,cs),
(700,0,ls),
(710,0,o),
(715,5,o),
(715,15,cs),
(715,60,ls),
(715,70,o),
(710,75,o),
(700,75,cs),
(430,75,l),
(430,305,l),
(626,305,ls),
(635,305,o),
(641,309,o),
(643,318,cs),
(652,364,ls),
(654,374,o),
(649,380,o),
(638,380,cs),
(430,380,l),
(430,587,l),
(695,587,ls),
(705,587,o),
(710,592,o),
(710,602,cs),
(710,652,ls),
(710,662,o),
(705,667,o),
(695,667,cs),
(317,666,ls),
(309,666,o),
(303,662,o),
(300,655,cs),
(18,18,ls),
(13,7,o),
(18,0,o),
(29,0,cs),
(82,0,ls),
(91,0,o),
(97,4,o),
(100,12,cs)
);
},
{
closed = 1;
nodes = (
(350,220,l),
(184,220,l),
(350,587,l)
);
}
);
width = 755;
}
);
unicode = 198;
},
{
glyphname = B;
layers = (
{
layerId = "B909A847-908A-4B08-AB88-1EC2F75AB3CA";
name = Regular;
shapes = (
{
closed = 1;
nodes = (
(265,-10,ls),
(472,-10,o),
(520,85,o),
(520,190,cs),
(520,265,o),
(485,323,o),
(390,348,c),
(449,373,o),
(490,421,o),
(490,491,cs),
(490,584,o),
(442,677,o),
(265,677,cs),
(185,677,o),
(120,665,o),
(93,660,c),
(84,658,o),
(80,653,o),
(80,643,cs),
(80,5,ls),
(80,-5,o),
(85,-10,o),
(95,-10,cs)
);
},
{
closed = 1;
nodes = (
(380,608,o),
(415,555,o),
(415,490,cs),
(415,423,o),
(380,380,o),
(265,380,cs),
(160,380,l),
(160,600,l),
(160,600,o),
(190,608,o),
(265,608,cs)
);
},
{
closed = 1;
nodes = (
(160,60,l),
(160,312,l),
(265,312,ls),
(405,312,o),
(440,262,o),
(440,190,cs),
(440,125,o),
(405,60,o),
(265,60,cs)
);
}
);
width = 560;
}
);
unicode = 66;
},
{
glyphname = C;
lastChange = "2024-12-23 21:04:07 +0000";
layers = (
{
anchors = (
{
name = bottom;
pos = (330,0);
},
{
name = top;
pos = (330,667);
}
);
layerId = "B909A847-908A-4B08-AB88-1EC2F75AB3CA";
name = Regular;
shapes = (
{
closed = 1;
nodes = (
(123,-10,o),
(40,154,o),
(40,334,cs),
(40,514,o),
(123,677,o),
(330,677,cs),
(398,677,o),
(459,658,o),
(510,626,c),
(475,562,l),
(428,585,o),
(382,602,o),
(330,602,cs),
(185,602,o),
(130,474,o),
(130,334,cs),
(130,194,o),
(185,65,o),
(330,65,cs),
(382,65,o),
(428,82,o),
(475,105,c),
(510,41,l),
(459,9,o),
(398,-10,o),
(330,-10,cs)
);
}
);
width = 530;
}
);
unicode = 67;
},
{
glyphname = Ccedilla;
layers = (
{
layerId = "B909A847-908A-4B08-AB88-1EC2F75AB3CA";
name = Regular;
shapes = (
{
closed = 1;
nodes = (
(350,-9,l),
(405,-6,o),
(455,9,o),
(499,34,c),
(506,39,o),
(508,45,o),
(504,54,cs),
(486,92,ls),
(482,100,o),
(475,103,o),
(466,99,cs),
(423,81,o),
(377,65,o),
(330,65,cs),
(185,65,o),
(130,194,o),
(130,334,cs),
(130,474,o),
(185,602,o),
(330,602,cs),
(377,602,o),
(423,586,o),
(466,568,cs),
(475,564,o),
(482,567,o),
(486,575,cs),
(504,613,ls),
(508,622,o),
(506,629,o),
(498,633,c),
(449,661,o),
(393,677,o),
(330,677,cs),
(123,677,o),
(40,514,o),
(40,334,cs),
(40,160,o),
(117,0,o),
(310,-9,c),
(310,-58,ls),
(310,-68,o),
(316,-71,o),
(326,-70,c),
(333,-70,ls),
(350,-70,o),
(361,-77,o),
(361,-90,cs),
(361,-103,o),
(350,-111,o),
(333,-111,cs),
(327,-111,o),
(319,-110,o),
(312,-109,c),
(303,-107,o),
(297,-108,o),
(293,-116,cs),
(290,-122,l),
(285,-130,o),
(287,-138,o),
(297,-142,cs),
(307,-146,o),
(321,-150,o),
(333,-150,cs),
(375,-150,o),
(406,-130,o),
(406,-90,cs),
(406,-53,o),
(375,-36,o),
(350,-36,c)
);
}
);
width = 530;
}
);
unicode = 199;
},
{
glyphname = D;
lastChange = "2024-12-23 21:05:31 +0000";
layers = (
{
anchors = (
{
name = bottom;
pos = (275,0);
},
{
name = center;
pos = (151,334);
},
{
name = top;
pos = (275,667);
}
);
layerId = "B909A847-908A-4B08-AB88-1EC2F75AB3CA";
name = Regular;
shapes = (
{
closed = 1;
nodes = (
(275,-10,ls),
(482,-10,o),
(565,154,o),
(565,334,cs),
(565,514,o),
(482,677,o),
(275,677,cs),
(188,677,o),
(120,665,o),
(93,660,c),
(84,658,o),
(80,653,o),
(80,643,cs),
(80,5,ls),
(80,-5,o),
(85,-10,o),
(95,-10,cs)
);
},
{
closed = 1;
nodes = (
(420,600,o),
(475,474,o),
(475,334,cs),
(475,194,o),
(420,65,o),
(275,65,cs),
(160,65,l),
(160,593,l),
(160,593,o),
(190,600,o),
(275,600,cs)
);
}
);
width = 605;
}
);
unicode = 68;
},
{
glyphname = Eth;
layers = (
{
layerId = "B909A847-908A-4B08-AB88-1EC2F75AB3CA";
name = Regular;
shapes = (
{
closed = 1;
nodes = (
(30,317,ls),
(30,307,o),
(35,302,o),
(45,302,cs),
(80,302,l),
(80,5,ls),
(80,-5,o),
(85,-10,o),
(95,-10,cs),
(275,-10,ls),
(482,-10,o),
(565,154,o),
(565,334,cs),
(565,514,o),
(482,677,o),
(275,677,cs),
(188,677,o),
(120,665,o),
(93,660,c),
(84,658,o),
(80,653,o),
(80,643,cs),
(80,367,l),
(45,367,ls),
(35,367,o),
(30,362,o),
(30,352,cs)
);
},
{
closed = 1;
nodes = (
(420,600,o),
(475,474,o),
(475,334,cs),
(475,194,o),
(420,65,o),
(275,65,cs),
(160,65,l),
(160,302,l),
(260,302,ls),
(270,302,o),
(275,307,o),
(275,317,cs),
(275,352,ls),
(275,362,o),
(270,367,o),
(260,367,cs),
(160,367,l),
(160,593,l),
(160,593,o),
(190,600,o),
(275,600,cs)
);
}
);
width = 605;
}
);
unicode = 208;
},
{
glyphname = E;
lastChange = "2024-12-23 21:06:12 +0000";
layers = (
{
anchors = (
{
name = bottom;
pos = (262,0);
},
{
name = ogonek;
pos = (445,10);
},
{
name = top;
pos = (262,667);
},
{
name = topleft;
pos = (20,667);
}
);
layerId = "B909A847-908A-4B08-AB88-1EC2F75AB3CA";
name = Regular;
shapes = (
{
closed = 1;
nodes = (
(80,15,ls),
(80,5,o),
(85,0,o),
(95,0,cs),
(430,0,ls),
(440,0,o),
(445,5,o),
(445,15,cs),
(445,60,ls),
(445,70,o),
(440,75,o),
(430,75,cs),
(160,75,l),
(160,305,l),
(356,305,ls),
(366,305,o),
(371,309,o),
(373,318,cs),
(382,363,ls),
(384,373,o),
(379,379,o),
(368,379,cs),
(160,379,l),
(160,592,l),
(425,592,ls),
(435,592,o),
(440,597,o),
(440,607,cs),
(440,652,ls),
(440,662,o),
(435,667,o),
(425,667,cs),
(95,667,ls),
(85,667,o),
(80,662,o),
(80,652,cs)
);
}
);
width = 485;
}
);
unicode = 69;
},
{
glyphname = Eacute;
layers = (
{
layerId = "B909A847-908A-4B08-AB88-1EC2F75AB3CA";
name = Regular;
shapes = (
{
closed = 1;
nodes = (
(332,860,l),
(369,795,l),
(196,700,l),
(164,752,l)
);
},
{
closed = 1;
nodes = (
(80,15,ls),
(80,5,o),
(85,0,o),
(95,0,cs),
(430,0,ls),
(440,0,o),
(445,5,o),
(445,15,cs),
(445,60,ls),
(445,70,o),
(440,75,o),
(430,75,cs),
(160,75,l),
(160,305,l),
(356,305,ls),
(366,305,o),
(371,309,o),
(373,318,cs),
(382,363,ls),
(384,373,o),
(379,379,o),
(368,379,cs),
(160,379,l),
(160,592,l),
(425,592,ls),
(435,592,o),
(440,597,o),
(440,607,cs),
(440,652,ls),
(440,662,o),
(435,667,o),
(425,667,cs),
(95,667,ls),
(85,667,o),
(80,662,o),
(80,652,cs)
);
}
);
width = 485;
}
);
unicode = 201;
},
{
glyphname = Ecircumflex;
layers = (
{
layerId = "B909A847-908A-4B08-AB88-1EC2F75AB3CA";
name = Regular;
shapes = (
{
closed = 1;
nodes = (
(115,712,ls),
(120,704,o),
(127,703,o),
(136,708,c),
(263,785,l),
(390,708,l),
(399,703,o),
(406,704,o),
(411,712,cs),
(425,733,ls),
(430,741,o),
(429,748,o),
(421,754,cs),
(273,862,l),
(266,868,o),
(260,868,o),
(253,862,c),
(105,754,ls),
(97,748,o),
(96,741,o),
(101,733,cs)
);
},
{
closed = 1;
nodes = (
(80,15,ls),
(80,5,o),
(85,0,o),
(95,0,cs),
(430,0,ls),
(440,0,o),
(445,5,o),
(445,15,cs),
(445,60,ls),
(445,70,o),
(440,75,o),
(430,75,cs),
(160,75,l),
(160,305,l),
(356,305,ls),
(366,305,o),
(371,309,o),
(373,318,cs),
(382,363,ls),
(384,373,o),
(379,379,o),
(368,379,cs),
(160,379,l),
(160,592,l),
(425,592,ls),
(435,592,o),
(440,597,o),
(440,607,cs),
(440,652,ls),
(440,662,o),
(435,667,o),
(425,667,cs),
(95,667,ls),
(85,667,o),
(80,662,o),
(80,652,cs)
);
}
);
width = 485;
}
);
unicode = 202;
},
{
glyphname = Edieresis;
layers = (
{
layerId = "B909A847-908A-4B08-AB88-1EC2F75AB3CA";
name = Regular;
shapes = (
{
closed = 1;
nodes = (
(140,721,o),
(161,700,o),
(187,700,cs),
(213,700,o),
(235,721,o),
(235,747,cs),
(235,773,o),
(213,795,o),
(187,795,cs),
(161,795,o),
(140,773,o),
(140,747,cs)
);
},
{
closed = 1;
nodes = (
(285,721,o),
(306,700,o),
(332,700,cs),
(358,700,o),
(380,721,o),
(380,747,cs),
(380,773,o),
(358,795,o),
(332,795,cs),
(306,795,o),
(285,773,o),
(285,747,cs)
);
},
{
closed = 1;
nodes = (
(80,15,ls),
(80,5,o),
(85,0,o),
(95,0,cs),
(430,0,ls),
(440,0,o),
(445,5,o),
(445,15,cs),
(445,60,ls),
(445,70,o),
(440,75,o),
(430,75,cs),
(160,75,l),
(160,305,l),
(356,305,ls),
(366,305,o),
(371,309,o),
(373,318,cs),
(382,363,ls),
(384,373,o),
(379,379,o),
(368,379,cs),
(160,379,l),
(160,592,l),
(425,592,ls),
(435,592,o),
(440,597,o),
(440,607,cs),
(440,652,ls),
(440,662,o),
(435,667,o),
(425,667,cs),
(95,667,ls),
(85,667,o),
(80,662,o),
(80,652,cs)
);
}
);
width = 485;
}
);
unicode = 203;
},
{
glyphname = Egrave;
layers = (
{
layerId = "B909A847-908A-4B08-AB88-1EC2F75AB3CA";
name = Regular;
shapes = (
{
closed = 1;
nodes = (
(317,708,ls),
(325,703,o),
(333,705,o),
(337,713,c),
(355,744,ls),
(360,753,o),
(358,760,o),
(350,765,cs),
(207,857,ls),
(199,862,o),
(191,860,o),
(186,852,c),
(164,813,l),
(160,805,o),
(162,797,o),
(170,793,c)
);
},
{
closed = 1;
nodes = (
(80,15,ls),
(80,5,o),
(85,0,o),
(95,0,cs),
(430,0,ls),
(440,0,o),
(445,5,o),
(445,15,cs),
(445,60,ls),
(445,70,o),
(440,75,o),
(430,75,cs),
(160,75,l),
(160,305,l),
(356,305,ls),
(366,305,o),
(371,309,o),
(373,318,cs),
(382,363,ls),
(384,373,o),
(379,379,o),
(368,379,cs),
(160,379,l),
(160,592,l),
(425,592,ls),
(435,592,o),
(440,597,o),
(440,607,cs),
(440,652,ls),
(440,662,o),
(435,667,o),
(425,667,cs),
(95,667,ls),
(85,667,o),
(80,662,o),
(80,652,cs)
);
}
);
width = 485;
}
);
unicode = 200;
},
{
glyphname = F;
layers = (
{
layerId = "B909A847-908A-4B08-AB88-1EC2F75AB3CA";
name = Regular;
shapes = (
{
closed = 1;
nodes = (
(80,15,ls),
(80,5,o),
(85,0,o),
(95,0,cs),
(145,0,ls),
(155,0,o),
(160,5,o),
(160,15,cs),
(160,305,l),
(356,305,ls),
(365,305,o),
(371,309,o),
(373,318,cs),
(382,364,ls),
(384,374,o),
(379,380,o),
(368,380,cs),
(160,380,l),
(160,592,l),
(425,592,ls),
(435,592,o),
(440,597,o),
(440,607,cs),
(440,652,ls),
(440,662,o),
(435,667,o),
(425,667,cs),
(95,667,ls),
(85,667,o),
(80,662,o),
(80,652,cs)
);
}
);
width = 460;
}
);
unicode = 70;
},
{
glyphname = G;
lastChange = "2024-12-23 21:07:47 +0000";
layers = (
{
anchors = (
{
name = bottom;
pos = (330,0);
},
{
name = top;
pos = (330,667);
}
);
layerId = "B909A847-908A-4B08-AB88-1EC2F75AB3CA";
name = Regular;
shapes = (
{
closed = 1;
nodes = (
(377,602,o),
(419,586,o),
(462,568,cs),
(471,564,o),
(477,566,o),
(482,575,cs),
(503,613,ls),
(508,622,o),
(506,629,o),
(497,634,cs),
(449,661,o),
(392,677,o),
(330,677,cs),
(123,677,o),
(40,514,o),
(40,334,cs),
(40,154,o),
(123,-10,o),
(330,-10,cs),
(424,-10,o),
(490,21,o),
(515,34,c),
(522,38,o),
(525,44,o),
(525,52,cs),
(525,345,ls),
(525,355,o),
(520,360,o),
(510,360,cs),
(459,360,ls),
(449,360,o),
(444,355,o),
(444,345,cs),
(445,86,l),
(408,75,o),
(370,65,o),
(330,65,cs),
(185,65,o),
(130,194,o),
(130,334,cs),
(130,474,o),
(185,602,o),
(330,602,cs)
);
}
);
width = 585;
}
);
unicode = 71;
},
{
glyphname = H;
layers = (
{
layerId = "B909A847-908A-4B08-AB88-1EC2F75AB3CA";
name = Regular;
shapes = (
{
closed = 1;
nodes = (
(160,305,l),
(440,305,l),
(440,15,ls),
(440,5,o),
(445,0,o),
(455,0,cs),
(505,0,ls),
(515,0,o),
(520,5,o),
(520,15,cs),
(520,652,ls),
(520,662,o),
(515,667,o),
(505,667,cs),
(455,667,ls),
(445,667,o),
(440,662,o),
(440,652,cs),
(440,380,l),
(160,380,l),
(160,652,ls),
(160,662,o),
(155,667,o),
(145,667,cs),
(95,667,ls),
(85,667,o),
(80,662,o),
(80,652,cs),
(80,15,ls),
(80,5,o),
(85,0,o),
(95,0,cs),
(145,0,ls),
(155,0,o),
(160,5,o),
(160,15,cs)
);
}
);
width = 600;
}
);
unicode = 72;
},
{
glyphname = Hbar;
lastChange = "2024-12-23 21:18:51 +0000";
layers = (
{
anchors = (
{
name = top;
pos = (299,554);
}
);
layerId = "B909A847-908A-4B08-AB88-1EC2F75AB3CA";
shapes = (
{
ref = H;
},
{
closed = 1;
nodes = (
(30,483,ls),
(30,473,o),
(35,468,o),
(45,468,cs),
(555,468,ls),
(565,468,o),
(570,473,o),
(570,483,cs),
(570,518,ls),
(570,528,o),
(565,533,o),
(555,533,cs),
(45,533,ls),
(35,533,o),
(30,528,o),
(30,518,cs)
);
}
);
width = 600;
}
);
unicode = 294;
},
{
glyphname = I;
lastChange = "2024-12-23 21:09:13 +0000";
layers = (
{
anchors = (
{
name = bottom;
pos = (120,0);
},
{
name = ogonek;
pos = (160,15);
},
{
name = top;
pos = (120,667);
},
{
name = topleft;
pos = (20,667);
}
);
layerId = "B909A847-908A-4B08-AB88-1EC2F75AB3CA";
name = Regular;
shapes = (
{
closed = 1;
nodes = (
(160,652,ls),
(160,662,o),
(155,667,o),
(145,667,cs),
(95,667,ls),
(85,667,o),
(80,662,o),
(80,652,cs),
(80,15,ls),
(80,5,o),
(85,0,o),
(95,0,cs),
(145,0,ls),
(155,0,o),
(160,5,o),
(160,15,cs)
);
}
);
width = 240;
}
);
unicode = 73;
},
{
glyphname = Iacute;
layers = (
{
layerId = "B909A847-908A-4B08-AB88-1EC2F75AB3CA";
name = Regular;
shapes = (
{
closed = 1;
nodes = (
(171,860,l),
(208,795,l),
(35,700,l),
(3,752,l)
);
},
{
closed = 1;
nodes = (
(80,15,ls),
(80,5,o),
(85,0,o),
(95,0,cs),
(145,0,ls),
(155,0,o),
(160,5,o),
(160,15,cs),
(160,652,ls),
(160,662,o),
(155,667,o),
(145,667,cs),
(95,667,ls),
(85,667,o),
(80,662,o),
(80,652,cs)
);
}
);
width = 240;
}
);
unicode = 205;
},
{
glyphname = Icircumflex;
layers = (
{
layerId = "B909A847-908A-4B08-AB88-1EC2F75AB3CA";
name = Regular;
shapes = (
{
closed = 1;
nodes = (
(-28,712,ls),
(-23,704,o),
(-16,703,o),
(-7,708,c),
(120,785,l),
(247,708,l),
(256,703,o),
(263,704,o),
(268,712,cs),
(282,733,ls),
(287,741,o),
(286,748,o),
(278,754,cs),
(130,862,l),
(123,868,o),
(117,868,o),
(110,862,c),
(-38,754,ls),
(-46,748,o),
(-47,741,o),
(-42,733,cs)
);
},
{
closed = 1;
nodes = (
(80,15,ls),
(80,5,o),
(85,0,o),
(95,0,cs),
(145,0,ls),
(155,0,o),
(160,5,o),
(160,15,cs),
(160,652,ls),
(160,662,o),
(155,667,o),
(145,667,cs),
(95,667,ls),
(85,667,o),
(80,662,o),
(80,652,cs)
);
}
);
width = 240;
}
);
unicode = 206;
},
{
glyphname = Idieresis;
layers = (
{
layerId = "B909A847-908A-4B08-AB88-1EC2F75AB3CA";
name = Regular;
shapes = (
{
closed = 1;
nodes = (
(0,721,o),
(21,700,o),
(47,700,cs),
(73,700,o),
(95,721,o),
(95,747,cs),
(95,773,o),
(73,795,o),
(47,795,cs),
(21,795,o),
(0,773,o),
(0,747,cs)
);
},
{
closed = 1;
nodes = (
(145,721,o),
(166,700,o),
(192,700,cs),
(218,700,o),
(240,721,o),
(240,747,cs),
(240,773,o),
(218,795,o),
(192,795,cs),
(166,795,o),
(145,773,o),
(145,747,cs)
);
},
{
closed = 1;
nodes = (
(80,15,ls),
(80,5,o),
(85,0,o),
(95,0,cs),
(145,0,ls),
(155,0,o),
(160,5,o),
(160,15,cs),
(160,652,ls),
(160,662,o),
(155,667,o),
(145,667,cs),
(95,667,ls),
(85,667,o),
(80,662,o),
(80,652,cs)
);
}
);
width = 240;
}
);
unicode = 207;
},
{
glyphname = Igrave;
layers = (
{
layerId = "B909A847-908A-4B08-AB88-1EC2F75AB3CA";
name = Regular;
shapes = (
{
closed = 1;
nodes = (
(179,708,ls),
(187,703,o),
(195,705,o),
(199,713,c),
(217,744,ls),
(222,753,o),
(220,760,o),
(212,765,cs),
(69,857,ls),
(61,862,o),
(53,860,o),
(48,852,c),
(26,813,l),
(22,805,o),
(24,797,o),
(32,793,c)
);
},
{
closed = 1;
nodes = (
(80,15,ls),
(80,5,o),
(85,0,o),
(95,0,cs),
(145,0,ls),
(155,0,o),
(160,5,o),
(160,15,cs),
(160,652,ls),
(160,662,o),
(155,667,o),
(145,667,cs),
(95,667,ls),
(85,667,o),
(80,662,o),
(80,652,cs)
);
}
);
width = 240;
}
);
unicode = 204;
},
{
glyphname = J;
lastChange = "2024-12-23 18:43:15 +0000";
layers = (
{
anchors = (
{
name = bottom;
pos = (218,0);
},
{
name = top;
pos = (218,667);
}
);
layerId = "B909A847-908A-4B08-AB88-1EC2F75AB3CA";
name = Regular;
shapes = (
{
closed = 1;
nodes = (
(355,652,ls),
(355,662,o),
(350,667,o),
(340,667,cs),
(291,667,ls),
(281,667,o),
(276,661,o),
(276,651,cs),
(275,616,o),
(274,508,o),
(275,209,cs),
(275,130,o),
(239,60,o),
(155,60,cs),
(110,60,o),
(80,77,o),
(53,96,cs),
(45,102,o),
(37,100,o),
(32,91,cs),
(12,53,l),
(7,45,o),
(8,38,o),
(16,32,cs),
(54,4,o),
(99,-10,o),
(155,-10,cs),
(305,-10,o),
(355,95,o),
(355,225,cs)
);
}
);
width = 435;
}
);
unicode = 74;
},
{
glyphname = K;
lastChange = "2024-12-23 21:10:00 +0000";
layers = (
{
anchors = (
{
name = bottom;
pos = (263,0);
},
{
name = top;
pos = (263,667);
}
);
layerId = "B909A847-908A-4B08-AB88-1EC2F75AB3CA";
name = Regular;
shapes = (
{
closed = 1;
nodes = (
(160,652,ls),
(160,662,o),
(155,667,o),
(145,667,cs),
(95,667,ls),
(85,667,o),
(80,662,o),
(80,652,cs),
(80,15,ls),
(80,5,o),
(85,0,o),
(95,0,cs),
(145,0,ls),
(155,0,o),
(160,5,o),
(160,15,cs)
);
},
{
closed = 1;
nodes = (
(413,9,l),
(418,3,o),
(423,0,o),
(431,0,cs),
(492,0,ls),
(505,0,o),
(509,8,o),
(501,18,c),
(255,350,l),
(486,648,ls),
(494,658,o),
(490,666,o),
(477,666,cs),
(421,667,ls),
(413,667,o),
(408,664,o),
(403,658,cs),
(168,360,l),
(163,353,o),
(163,347,o),
(168,339,c)
);
}
);
width = 525;
}
);
unicode = 75;
},
{
glyphname = L;
lastChange = "2024-12-23 21:10:32 +0000";
layers = (
{
anchors = (
{
name = bottom;
pos = (218,0);
},
{
name = center;
pos = (218,334);
},
{
name = top;
pos = (218,667);
},
{
name = topright;
pos = (415,667);
}
);
layerId = "B909A847-908A-4B08-AB88-1EC2F75AB3CA";
name = Regular;
shapes = (
{
closed = 1;
nodes = (
(80,15,ls),
(80,5,o),
(85,0,o),
(95,0,cs),
(396,0,ls),
(405,0,o),
(411,4,o),
(413,13,c),
(422,64,ls),
(424,74,o),
(419,80,o),
(408,80,cs),
(160,80,l),
(160,652,ls),
(160,662,o),
(155,667,o),
(145,667,cs),
(95,667,ls),
(85,667,o),
(80,662,o),
(80,652,cs)
);
}
);
width = 435;
}
);
unicode = 76;
},
{
glyphname = Lslash;
layers = (
{
layerId = "B909A847-908A-4B08-AB88-1EC2F75AB3CA";
name = Regular;
shapes = (
{
closed = 1;
nodes = (
(30,266,l),
(37,260,o),
(45,260,o),
(52,267,cs),
(80,295,l),
(80,15,ls),
(80,5,o),
(85,0,o),
(95,0,cs),
(396,0,ls),
(405,0,o),
(411,4,o),
(413,13,c),
(422,64,ls),
(424,74,o),
(419,80,o),
(408,80,cs),
(160,80,l),
(160,375,l),
(242,457,ls),
(249,464,o),
(249,472,o),
(242,478,cs),
(218,500,l),
(211,507,o),
(203,506,o),
(197,499,c),
(160,462,l),
(160,652,ls),
(160,662,o),
(155,667,o),
(145,667,cs),
(95,667,ls),
(85,667,o),
(80,662,o),
(80,652,cs),
(80,381,l),
(9,309,ls),
(2,302,o),
(2,294,o),
(9,287,cs)
);
}
);
width = 435;
}
);
unicode = 321;
},
{
glyphname = M;
layers = (
{
layerId = "B909A847-908A-4B08-AB88-1EC2F75AB3CA";
name = Regular;
shapes = (
{
closed = 1;
nodes = (
(408,0,l),
(328,0,l),
(192,481,ls),
(188,495,o),
(176,494,o),
(175,479,cs),
(150,0,l),
(60,0,l),
(113,667,l),
(218,667,l),
(359,150,ls),
(363,135,o),
(373,135,o),
(377,150,cs),
(517,667,l),
(622,667,l),
(676,0,l),
(586,0,l),
(560,480,ls),
(559,494,o),
(547,495,o),
(543,481,cs)
);
}
);
width = 736;
}
);
unicode = 77;
},
{
glyphname = N;
lastChange = "2024-12-23 21:11:11 +0000";
layers = (
{
anchors = (
{
name = bottom;
pos = (310,0);
},
{
name = top;
pos = (310,667);
}
);
layerId = "B909A847-908A-4B08-AB88-1EC2F75AB3CA";
name = Regular;
shapes = (
{
closed = 1;
nodes = (
(155,535,l),
(444,11,l),
(448,3,o),
(454,0,o),
(462,0,cs),
(525,0,ls),
(535,0,o),
(540,5,o),
(540,15,cs),
(540,652,ls),
(540,662,o),
(535,667,o),
(525,667,cs),
(475,667,ls),
(465,667,o),
(460,662,o),
(460,652,cs),
(465,130,l),
(176,656,l),
(172,664,o),
(166,667,o),
(158,667,cs),
(95,667,ls),
(85,667,o),
(80,662,o),
(80,652,cs),
(80,15,ls),
(80,5,o),
(85,0,o),
(95,0,cs),
(145,0,ls),
(155,0,o),
(160,5,o),
(160,15,c)
);
}
);
width = 620;
}
);
unicode = 78;
},
{
glyphname = Ntilde;
layers = (
{
layerId = "B909A847-908A-4B08-AB88-1EC2F75AB3CA";
name = Regular;
shapes = (
{
closed = 1;
nodes = (
(161,728,l),
(168,721,o),
(175,721,o),
(182,727,c),
(196,738,o),
(222,755,o),
(243,755,cs),
(309,755,o),
(309,705,o),
(377,705,cs),
(415,705,o),
(456,739,o),
(475,757,cs),
(482,764,o),
(482,772,o),
(475,778,c),
(458,795,l),
(452,802,o),
(445,801,o),
(437,795,c),
(424,784,o),
(400,768,o),
(377,768,cs),
(309,768,o),
(308,818,o),
(243,818,cs),
(203,818,o),
(164,784,o),
(146,766,c),
(139,760,o),
(139,752,o),
(146,745,c)
);
},
{
closed = 1;
nodes = (
(155,535,l),
(444,11,l),
(448,3,o),
(454,0,o),
(462,0,cs),
(525,0,ls),
(535,0,o),
(540,5,o),
(540,15,cs),
(540,652,ls),
(540,662,o),
(535,667,o),
(525,667,cs),
(475,667,ls),
(465,667,o),
(460,662,o),
(460,652,cs),
(465,130,l),
(176,656,l),
(172,664,o),
(166,667,o),
(158,667,cs),
(95,667,ls),
(85,667,o),
(80,662,o),
(80,652,cs),
(80,15,ls),
(80,5,o),
(85,0,o),
(95,0,cs),
(145,0,ls),
(155,0,o),
(160,5,o),
(160,15,c)
);
}
);
width = 620;
}
);
unicode = 209;
},
{
glyphname = O;
lastChange = "2024-12-23 21:11:45 +0000";
layers = (
{
anchors = (
{
name = bottom;
pos = (330,0);
},
{
name = center;
pos = (330,334);
},
{
name = ogonek;
pos = (594,10);
},
{
name = top;
pos = (330,667);
},
{
name = topleft;
pos = (20,667);
},
{
name = topright;
pos = (640,667);
}
);
layerId = "B909A847-908A-4B08-AB88-1EC2F75AB3CA";
name = Regular;
shapes = (
{
closed = 1;
nodes = (
(40,154,o),
(122,-10,o),
(330,-10,cs),
(537,-10,o),
(620,154,o),
(620,334,cs),
(620,514,o),
(537,677,o),
(330,677,cs),
(122,677,o),
(40,514,o),
(40,334,cs)
);
},
{
closed = 1;
nodes = (
(130,481,o),
(187,602,o),
(330,602,cs),
(474,602,o),
(530,481,o),
(530,334,cs),
(530,185,o),
(474,65,o),
(330,65,cs),
(187,65,o),
(130,185,o),
(130,334,cs)
);
}
);
width = 660;
}
);
unicode = 79;
},
{
glyphname = Oacute;
layers = (
{
layerId = "B909A847-908A-4B08-AB88-1EC2F75AB3CA";
name = Regular;
shapes = (
{
closed = 1;
nodes = (
(391,860,l),
(428,795,l),
(255,700,l),
(223,752,l)
);
},
{
closed = 1;
nodes = (
(40,154,o),
(122,-10,o),
(330,-10,cs),
(537,-10,o),
(620,154,o),
(620,334,cs),
(620,514,o),
(537,677,o),
(330,677,cs),
(122,677,o),
(40,514,o),
(40,334,cs)
);
},
{
closed = 1;
nodes = (
(130,481,o),
(187,602,o),
(330,602,cs),
(474,602,o),
(530,481,o),
(530,334,cs),
(530,185,o),
(474,65,o),
(330,65,cs),
(187,65,o),
(130,185,o),
(130,334,cs)
);
}
);
width = 660;
}
);
unicode = 211;
},
{
glyphname = Ocircumflex;
layers = (
{
layerId = "B909A847-908A-4B08-AB88-1EC2F75AB3CA";
name = Regular;
shapes = (
{
closed = 1;
nodes = (
(182,712,ls),
(187,704,o),
(194,703,o),
(203,708,c),
(330,785,l),
(457,708,l),
(466,703,o),
(473,704,o),
(478,712,cs),
(492,733,ls),
(497,741,o),
(496,748,o),
(488,754,cs),
(340,862,l),
(333,868,o),
(327,868,o),
(320,862,c),
(172,754,ls),
(164,748,o),
(163,741,o),
(168,733,cs)
);
},
{
closed = 1;
nodes = (
(40,154,o),
(122,-10,o),
(330,-10,cs),
(537,-10,o),
(620,154,o),
(620,334,cs),
(620,514,o),
(537,677,o),
(330,677,cs),
(122,677,o),
(40,514,o),
(40,334,cs)
);
},
{
closed = 1;
nodes = (
(130,481,o),
(187,602,o),
(330,602,cs),
(474,602,o),
(530,481,o),
(530,334,cs),
(530,185,o),
(474,65,o),
(330,65,cs),
(187,65,o),
(130,185,o),
(130,334,cs)
);
}
);
width = 660;
}
);
unicode = 212;
},
{
glyphname = Odieresis;
layers = (
{
layerId = "B909A847-908A-4B08-AB88-1EC2F75AB3CA";
name = Regular;
shapes = (
{
closed = 1;
nodes = (
(210,721,o),
(231,700,o),
(257,700,cs),
(283,700,o),
(305,721,o),
(305,747,cs),
(305,773,o),
(283,795,o),
(257,795,cs),
(231,795,o),
(210,773,o),
(210,747,cs)
);
},
{
closed = 1;
nodes = (
(355,721,o),
(376,700,o),
(402,700,cs),
(428,700,o),
(450,721,o),
(450,747,cs),
(450,773,o),
(428,795,o),
(402,795,cs),
(376,795,o),
(355,773,o),
(355,747,cs)
);
},
{
closed = 1;
nodes = (
(40,154,o),
(122,-10,o),
(330,-10,cs),
(537,-10,o),
(620,154,o),
(620,334,cs),
(620,514,o),
(537,677,o),
(330,677,cs),
(122,677,o),
(40,514,o),
(40,334,cs)
);
},
{
closed = 1;
nodes = (
(130,481,o),
(187,602,o),
(330,602,cs),
(474,602,o),
(530,481,o),
(530,334,cs),
(530,185,o),
(474,65,o),
(330,65,cs),
(187,65,o),
(130,185,o),
(130,334,cs)
);
}
);
width = 660;
}
);
unicode = 214;
},
{
glyphname = Ograve;
layers = (
{
layerId = "B909A847-908A-4B08-AB88-1EC2F75AB3CA";
name = Regular;
shapes = (
{
closed = 1;
nodes = (
(382,708,ls),
(390,703,o),
(398,705,o),
(402,713,c),
(420,744,ls),
(425,753,o),
(423,760,o),
(415,765,cs),
(272,857,ls),
(264,862,o),
(256,860,o),
(251,852,c),
(229,813,l),
(225,805,o),
(227,797,o),
(235,793,c)
);
},
{
closed = 1;
nodes = (
(40,154,o),
(122,-10,o),
(330,-10,cs),
(537,-10,o),
(620,154,o),
(620,334,cs),
(620,514,o),
(537,677,o),
(330,677,cs),
(122,677,o),
(40,514,o),
(40,334,cs)
);
},
{
closed = 1;
nodes = (
(130,481,o),
(187,602,o),
(330,602,cs),
(474,602,o),
(530,481,o),
(530,334,cs),
(530,185,o),
(474,65,o),
(330,65,cs),
(187,65,o),
(130,185,o),
(130,334,cs)
);
}
);
width = 660;
}
);
unicode = 210;
},
{
glyphname = Oslash;
layers = (
{
layerId = "B909A847-908A-4B08-AB88-1EC2F75AB3CA";
name = Regular;
shapes = (
{
closed = 1;
nodes = (
(136,13,l),
(131,5,o),
(134,-2,o),
(142,-7,c),
(170,-21,l),
(179,-26,o),
(186,-23,o),
(191,-14,c),
(204,14,l),
(240,-1,o),
(281,-10,o),
(330,-10,cs),
(537,-10,o),
(620,154,o),
(620,334,cs),
(620,453,o),
(583,565,o),
(499,627,c),
(528,687,ls),
(532,695,o),
(529,702,o),
(521,707,c),
(492,721,l),
(484,726,o),
(477,723,o),
(472,714,c),
(444,656,l),
(411,669,o),
(373,677,o),
(330,677,cs),
(122,677,o),
(40,514,o),
(40,334,cs),
(40,219,o),
(73,111,o),
(152,47,c)
);
},
{
closed = 1;
nodes = (
(130,476,o),
(187,597,o),
(330,597,cs),
(360,597,o),
(386,591,o),
(409,582,c),
(191,128,l),
(148,177,o),
(130,252,o),
(130,334,cs)
);
},
{
closed = 1;
nodes = (
(530,190,o),
(474,70,o),
(330,70,cs),
(295,70,o),
(265,77,o),
(240,90,c),
(460,547,l),
(509,499,o),
(530,420,o),
(530,334,cs)
);
}
);
width = 660;
}
);
unicode = 216;
},
{
glyphname = Otilde;
layers = (
{
layerId = "B909A847-908A-4B08-AB88-1EC2F75AB3CA";
name = Regular;
shapes = (
{
closed = 1;
nodes = (
(180,728,l),
(187,721,o),
(194,721,o),
(201,727,c),
(215,738,o),
(241,755,o),
(262,755,cs),
(328,755,o),
(328,705,o),
(396,705,cs),
(434,705,o),
(475,739,o),
(494,757,cs),
(501,764,o),
(501,772,o),
(494,778,c),
(477,795,l),
(471,802,o),
(464,801,o),
(456,795,c),
(443,784,o),
(419,768,o),
(396,768,cs),
(328,768,o),
(327,818,o),
(262,818,cs),
(222,818,o),
(183,784,o),
(165,766,c),
(158,760,o),
(158,752,o),
(165,745,c)
);
},
{
closed = 1;
nodes = (
(40,154,o),
(122,-10,o),
(330,-10,cs),
(537,-10,o),
(620,154,o),
(620,334,cs),
(620,514,o),
(537,677,o),
(330,677,cs),
(122,677,o),
(40,514,o),
(40,334,cs)
);
},
{
closed = 1;
nodes = (
(130,481,o),
(187,602,o),
(330,602,cs),
(474,602,o),
(530,481,o),
(530,334,cs),
(530,185,o),
(474,65,o),
(330,65,cs),
(187,65,o),
(130,185,o),
(130,334,cs)
);
}
);
width = 660;
}
);
unicode = 213;
},
{
glyphname = OE;
layers = (
{
layerId = "B909A847-908A-4B08-AB88-1EC2F75AB3CA";
name = Regular;
shapes = (
{
closed = 1;
nodes = (
(40,154,o),
(122,-10,o),
(330,-10,cs),
(360,-10,o),
(389,-6,o),
(414,0,c),
(750,0,ls),
(760,0,o),
(765,5,o),
(765,15,cs),
(765,60,ls),
(765,70,o),
(760,75,o),
(750,75,cs),
(480,75,l),
(480,305,l),
(676,305,ls),
(685,305,o),
(691,309,o),
(693,318,cs),
(702,364,ls),
(704,374,o),
(699,380,o),
(688,380,cs),
(480,380,l),
(480,587,l),
(745,587,ls),
(755,587,o),
(760,592,o),
(760,602,cs),
(760,652,ls),
(760,662,o),
(755,667,o),
(745,667,cs),
(414,667,l),
(389,673,o),
(361,677,o),
(330,677,cs),
(122,677,o),
(40,514,o),
(40,334,cs)
);
},
{
closed = 1;
nodes = (
(130,476,o),
(187,597,o),
(330,597,cs),
(356,597,o),
(379,593,o),
(400,586,c),
(400,81,l),
(379,74,o),
(356,70,o),
(330,70,cs),
(187,70,o),
(130,190,o),
(130,334,cs)
);
}
);
width = 805;
}
);
unicode = 338;
},
{
glyphname = P;
layers = (
{
layerId = "B909A847-908A-4B08-AB88-1EC2F75AB3CA";
name = Regular;
shapes = (
{
closed = 1;
nodes = (
(80,15,ls),
(80,5,o),
(85,0,o),
(95,0,cs),
(145,0,ls),
(155,0,o),
(160,5,o),
(160,15,cs),
(160,290,l),
(187,284,o),
(245,282,o),
(265,282,cs),
(442,282,o),
(495,375,o),
(495,478,cs),
(495,571,o),
(442,677,o),
(265,677,cs),
(185,677,o),
(120,665,o),
(93,660,c),
(84,658,o),
(80,653,o),
(80,643,cs)
);
},
{
closed = 1;
nodes = (
(381,608,o),
(416,542,o),
(416,477,cs),
(416,410,o),
(381,349,o),
(266,349,cs),
(190,349,o),
(161,355,o),
(161,355,c),
(161,600,l),
(161,600,o),
(190,608,o),
(266,608,cs)
);
}
);
width = 515;
}
);
unicode = 80;
},
{
glyphname = Thorn;
layers = (
{
layerId = "B909A847-908A-4B08-AB88-1EC2F75AB3CA";
name = Regular;
shapes = (
{
closed = 1;
nodes = (
(80,15,ls),
(80,5,o),
(85,0,o),
(95,0,cs),
(145,0,ls),
(155,0,o),
(160,5,o),
(160,15,cs),
(160,140,l),
(192,129,o),
(237,124,o),
(275,124,cs),
(482,124,o),
(540,231,o),
(540,336,cs),
(540,441,o),
(482,545,o),
(275,545,cs),
(233,545,o),
(195,538,o),
(160,525,c),
(160,652,ls),
(160,662,o),
(155,667,o),
(145,667,cs),
(95,667,ls),
(85,667,o),
(80,662,o),
(80,652,cs)
);
},
{
closed = 1;
nodes = (
(424,470,o),
(460,403,o),
(460,336,cs),
(460,268,o),
(424,199,o),
(275,199,cs),
(229,199,o),
(185,208,o),
(160,225,c),
(160,443,l),
(185,460,o),
(229,470,o),
(275,470,cs)
);
}
);
width = 580;
}
);
unicode = 222;
},
{
glyphname = Q;
layers = (
{
layerId = "B909A847-908A-4B08-AB88-1EC2F75AB3CA";
name = Regular;
shapes = (
{
closed = 1;
nodes = (
(40,165,o),
(111,11,o),
(291,-8,c),
(299,-122,o),
(353,-210,o),
(490,-210,cs),
(546,-210,o),
(591,-193,o),
(629,-164,c),
(636,-158,o),
(637,-151,o),
(632,-143,cs),
(613,-112,ls),
(608,-104,o),
(601,-102,o),
(592,-108,cs),
(565,-126,o),
(535,-140,o),
(490,-140,cs),
(412,-140,o),
(375,-79,o),
(370,-8,c),
(548,12,o),
(620,166,o),
(620,334,cs),
(620,514,o),
(537,677,o),
(330,677,cs),
(122,677,o),
(40,514,o),
(40,334,cs)
);
},
{
closed = 1;
nodes = (
(130,481,o),
(187,602,o),
(330,602,cs),
(474,602,o),
(530,481,o),
(530,334,cs),
(530,185,o),
(474,65,o),
(330,65,cs),
(187,65,o),
(130,185,o),
(130,334,cs)
);
}
);
width = 660;
}
);
unicode = 81;
},
{
glyphname = R;
lastChange = "2024-12-23 21:12:47 +0000";
layers = (
{
anchors = (
{
name = bottom;
pos = (266,0);
},
{
name = top;
pos = (266,667);
}
);
layerId = "B909A847-908A-4B08-AB88-1EC2F75AB3CA";
name = Regular;
shapes = (
{
closed = 1;
nodes = (
(80,15,ls),
(80,5,o),
(85,0,o),
(95,0,cs),
(145,0,ls),
(155,0,o),
(160,5,o),
(160,15,cs),
(160,310,l),
(184,305,o),
(235,303,o),
(259,302,c),
(409,11,ls),
(413,3,o),
(419,0,o),
(427,0,cs),
(485,0,ls),
(497,0,o),
(501,7,o),
(495,18,cs),
(338,309,l),
(455,333,o),
(495,401,o),
(495,488,cs),
(495,581,o),
(442,677,o),
(265,677,cs),
(185,677,o),
(120,665,o),
(93,660,c),
(84,658,o),
(80,653,o),
(80,643,cs)
);
},
{
closed = 1;
nodes = (
(381,608,o),
(416,552,o),
(416,487,cs),
(416,420,o),
(381,369,o),
(266,369,cs),
(224,370,o),
(184,372,o),
(161,375,c),
(161,600,l),
(161,600,o),
(190,608,o),
(266,608,cs)
);
}
);
width = 545;
}
);
unicode = 82;
},
{
glyphname = S;
lastChange = "2024-12-23 21:13:35 +0000";
layers = (
{
anchors = (
{
name = bottom;
pos = (220,0);
},
{
name = top;
pos = (220,667);
}
);
layerId = "B909A847-908A-4B08-AB88-1EC2F75AB3CA";
name = Regular;
shapes = (
{
closed = 1;
nodes = (
(458,328,o),
(374,360,o),
(220,401,cs),
(162,416,o),
(130,445,o),
(130,500,cs),
(130,555,o),
(160,602,o),
(220,602,cs),
(269,602,o),
(310,589,o),
(352,569,c),
(360,564,o),
(367,566,o),
(372,575,cs),
(393,613,ls),
(398,622,o),
(396,629,o),
(387,634,cs),
(340,661,o),
(287,677,o),
(220,677,cs),
(132,677,o),
(48,619,o),
(48,499,cs),
(48,379,o),
(131,340,o),
(220,315,cs),
(303,292,o),
(368,273,o),
(368,198,cs),
(368,117,o),
(313,65,o),
(220,65,cs),
(168,65,o),
(130,81,o),
(88,103,cs),
(80,107,o),
(73,105,o),
(68,96,c),
(47,54,l),
(42,45,o),
(44,38,o),
(52,34,c),
(101,6,o),
(157,-10,o),
(220,-10,cs),
(383,-10,o),
(458,78,o),
(458,198,cs)
);
}
);
width = 498;
}
);
unicode = 83;
},
{
glyphname = Scaron;
layers = (
{
layerId = "B909A847-908A-4B08-AB88-1EC2F75AB3CA";
name = Regular;
shapes = (
{
closed = 1;
nodes = (
(109,821,ls),
(103,814,o),
(104,807,o),
(111,800,c),
(209,710,l),
(216,703,o),
(224,703,o),
(231,710,c),
(329,800,l),
(336,807,o),
(337,814,o),
(331,821,cs),
(320,834,l),
(313,841,o),
(306,842,o),
(298,836,cs),
(220,775,l),
(142,836,ls),
(134,842,o),
(127,841,o),
(120,834,c)
);
},
{
closed = 1;
nodes = (
(458,328,o),
(374,360,o),
(220,401,cs),
(162,416,o),
(130,445,o),
(130,500,cs),
(130,555,o),
(160,602,o),
(220,602,cs),
(269,602,o),
(310,589,o),
(352,569,c),
(360,564,o),
(367,566,o),
(372,575,cs),
(393,613,ls),
(398,622,o),
(396,629,o),
(387,634,cs),
(340,661,o),
(287,677,o),
(220,677,cs),
(132,677,o),
(48,619,o),
(48,499,cs),
(48,379,o),
(131,340,o),
(220,315,cs),
(303,292,o),
(368,273,o),
(368,198,cs),
(368,117,o),
(313,65,o),
(220,65,cs),
(168,65,o),
(130,81,o),
(88,103,cs),
(80,107,o),
(73,105,o),
(68,96,c),
(47,54,l),
(42,45,o),
(44,38,o),
(52,34,c),
(101,6,o),
(157,-10,o),
(220,-10,cs),
(383,-10,o),
(458,78,o),
(458,198,cs)
);
}
);
width = 498;
}
);
unicode = 352;
},
{
glyphname = Germandbls;
lastChange = "2024-12-23 19:02:17 +0000";
layers = (
{
layerId = "B909A847-908A-4B08-AB88-1EC2F75AB3CA";
shapes = (
{
closed = 1;
nodes = (
(80,15,ls),
(80,5,o),
(85,0,o),
(95,0,cs),
(145,0,ls),
(155,0,o),
(160,5,o),
(160,15,cs),
(160,592,l),
(403,592,l),
(271,406,ls),
(267,400,o),
(265,395,o),
(265,388,cs),
(265,347,ls),
(265,337,o),
(270,332,o),
(280,332,cs),
(320,332,ls),
(459,332,o),
(495,263,o),
(495,199,cs),
(495,132,o),
(459,65,o),
(320,65,cs),
(283,65,o),
(254,70,o),
(226,79,cs),
(219,82,o),
(213,79,o),
(209,70,cs),
(191,31,ls),
(187,22,o),
(190,15,o),
(199,11,cs),
(236,-2,o),
(277,-10,o),
(320,-10,cs),
(527,-10,o),
(580,94,o),
(580,199,cs),
(580,260,o),
(553,386,o),
(349,397,c),
(488,584,ls),
(492,590,o),
(494,595,o),
(494,602,cs),
(494,652,ls),
(494,662,o),
(489,667,o),
(479,667,cs),
(95,667,ls),
(85,667,o),
(80,662,o),
(80,652,cs)
);
}
);
width = 620;
},
{
associatedMasterId = "B909A847-908A-4B08-AB88-1EC2F75AB3CA";
layerId = m002;
name = Black;
shapes = (
{
closed = 1;
nodes = (
(227,0,l),
(227,547,l),
(624,547,l),
(624,667,l),
(45,667,l),
(45,0,l)
);
},
{
closed = 1;
nodes = (
(421,110,l),
(370,110,o),
(324,128,o),
(278,148,c),
(249,36,l),
(299,10,o),
(356,-10,o),
(421,-10,c)
);
},
{
closed = 1;
nodes = (
(621,-10,o),
(695,77,o),
(695,194,cs),
(695,300,o),
(621,410,o),
(441,410,c),
(289,410,l),
(289,295,l),
(467,295,o),
(503,252,o),
(503,194,cs),
(503,136,o),
(467,110,o),
(421,110,c),
(421,-10,l)
);
},
{
closed = 1;
nodes = (
(624,547,l),
(619,667,l),
(562,667,l),
(289,410,l),
(442,380,l)
);
}
);
width = 718;
}
);
metricLeft = "=H";
metricRight = "=S";
unicode = 7838;
},
{
glyphname = T;
lastChange = "2024-12-23 21:14:16 +0000";
layers = (
{
anchors = (
{
name = bottom;
pos = (230,0);
},
{
name = center;
pos = (230,334);
},
{
name = top;
pos = (230,667);
}
);
layerId = "B909A847-908A-4B08-AB88-1EC2F75AB3CA";
name = Regular;
shapes = (
{
closed = 1;
nodes = (
(270,592,l),
(436,592,ls),
(445,592,o),
(451,596,o),
(453,605,cs),
(462,651,ls),
(464,661,o),
(459,667,o),
(448,667,cs),
(25,667,ls),
(15,667,o),
(10,662,o),
(10,652,cs),
(10,607,ls),
(10,597,o),
(15,592,o),
(25,592,cs),
(190,592,l),
(190,15,ls),
(190,5,o),
(195,0,o),
(205,0,cs),
(255,0,ls),
(265,0,o),
(270,5,o),
(270,15,cs)
);
}
);
width = 460;
}
);
unicode = 84;
},
{
glyphname = U;
lastChange = "2024-12-23 21:15:31 +0000";
layers = (
{
anchors = (
{
name = bottom;
pos = (290,0);
},
{
name = ogonek;
pos = (390,10);
},
{
name = top;
pos = (290,667);
},
{
name = topright;
pos = (560,667);
}
);
layerId = "B909A847-908A-4B08-AB88-1EC2F75AB3CA";
name = Regular;
shapes = (
{
closed = 1;
nodes = (
(148,652,ls),
(148,662,o),
(143,667,o),
(133,667,cs),
(85,667,ls),
(75,667,o),
(70,662,o),
(70,652,cs),
(70,334,ls),
(70,154,o),
(98,-10,o),
(290,-10,cs),
(482,-10,o),
(510,154,o),
(510,334,cs),
(510,652,ls),
(510,662,o),
(505,667,o),
(495,667,cs),
(447,667,ls),
(437,667,o),
(432,662,o),
(432,652,cs),
(432,334,ls),
(432,200,o),
(423,70,o),
(290,70,cs),
(157,70,o),
(148,200,o),
(148,334,cs)
);
}
);
width = 580;
}
);
unicode = 85;
},
{
glyphname = Uacute;
layers = (
{
layerId = "B909A847-908A-4B08-AB88-1EC2F75AB3CA";
name = Regular;
shapes = (
{
closed = 1;
nodes = (
(361,860,l),
(398,795,l),
(225,700,l),
(193,752,l)
);
},
{
closed = 1;
nodes = (
(148,652,ls),
(148,662,o),
(143,667,o),
(133,667,cs),
(85,667,ls),
(75,667,o),
(70,662,o),
(70,652,cs),
(70,334,ls),
(70,154,o),
(98,-10,o),
(290,-10,cs),
(482,-10,o),
(510,154,o),
(510,334,cs),
(510,652,ls),
(510,662,o),
(505,667,o),
(495,667,cs),
(447,667,ls),
(437,667,o),
(432,662,o),
(432,652,cs),
(432,334,ls),
(432,200,o),
(423,70,o),
(290,70,cs),
(157,70,o),
(148,200,o),
(148,334,cs)
);
}
);
width = 580;
}
);
unicode = 218;
},
{
glyphname = Ucircumflex;
layers = (
{
layerId = "B909A847-908A-4B08-AB88-1EC2F75AB3CA";
name = Regular;
shapes = (
{
closed = 1;
nodes = (
(142,712,ls),
(147,704,o),
(154,703,o),
(163,708,c),
(290,785,l),
(417,708,l),
(426,703,o),
(433,704,o),
(438,712,cs),
(452,733,ls),
(457,741,o),
(456,748,o),
(448,754,cs),
(300,862,l),
(293,868,o),
(287,868,o),
(280,862,c),
(132,754,ls),
(124,748,o),
(123,741,o),
(128,733,cs)
);
},
{
closed = 1;
nodes = (
(148,652,ls),
(148,662,o),
(143,667,o),
(133,667,cs),
(85,667,ls),
(75,667,o),
(70,662,o),
(70,652,cs),
(70,334,ls),
(70,154,o),
(98,-10,o),
(290,-10,cs),
(482,-10,o),
(510,154,o),
(510,334,cs),
(510,652,ls),
(510,662,o),
(505,667,o),
(495,667,cs),
(447,667,ls),
(437,667,o),
(432,662,o),
(432,652,cs),
(432,334,ls),
(432,200,o),
(423,70,o),
(290,70,cs),
(157,70,o),
(148,200,o),
(148,334,cs)
);
}
);
width = 580;
}
);
unicode = 219;
},
{
glyphname = Udieresis;
layers = (
{
layerId = "B909A847-908A-4B08-AB88-1EC2F75AB3CA";
name = Regular;
shapes = (
{
closed = 1;
nodes = (
(170,721,o),
(191,700,o),
(217,700,cs),
(243,700,o),
(265,721,o),
(265,747,cs),
(265,773,o),
(243,795,o),
(217,795,cs),
(191,795,o),
(170,773,o),
(170,747,cs)
);
},
{
closed = 1;
nodes = (
(315,721,o),
(336,700,o),
(362,700,cs),
(388,700,o),
(410,721,o),
(410,747,cs),
(410,773,o),
(388,795,o),
(362,795,cs),
(336,795,o),
(315,773,o),
(315,747,cs)
);
},
{
closed = 1;
nodes = (
(148,652,ls),
(148,662,o),
(143,667,o),
(133,667,cs),
(85,667,ls),
(75,667,o),
(70,662,o),
(70,652,cs),
(70,334,ls),
(70,154,o),
(98,-10,o),
(290,-10,cs),
(482,-10,o),
(510,154,o),
(510,334,cs),
(510,652,ls),
(510,662,o),
(505,667,o),
(495,667,cs),
(447,667,ls),
(437,667,o),
(432,662,o),
(432,652,cs),
(432,334,ls),
(432,200,o),
(423,70,o),
(290,70,cs),
(157,70,o),
(148,200,o),
(148,334,cs)
);
}
);
width = 580;
}
);
unicode = 220;
},
{
glyphname = Ugrave;
layers = (
{
layerId = "B909A847-908A-4B08-AB88-1EC2F75AB3CA";
name = Regular;
shapes = (
{
closed = 1;
nodes = (
(347,708,ls),
(355,703,o),
(363,705,o),
(367,713,c),
(385,744,ls),
(390,753,o),
(388,760,o),
(380,765,cs),
(237,857,ls),
(229,862,o),
(221,860,o),
(216,852,c),
(194,813,l),
(190,805,o),
(192,797,o),
(200,793,c)
);
},
{
closed = 1;
nodes = (
(148,652,ls),
(148,662,o),
(143,667,o),
(133,667,cs),
(85,667,ls),
(75,667,o),
(70,662,o),
(70,652,cs),
(70,334,ls),
(70,154,o),
(98,-10,o),
(290,-10,cs),
(482,-10,o),
(510,154,o),
(510,334,cs),
(510,652,ls),
(510,662,o),
(505,667,o),
(495,667,cs),
(447,667,ls),
(437,667,o),
(432,662,o),
(432,652,cs),
(432,334,ls),
(432,200,o),
(423,70,o),
(290,70,cs),
(157,70,o),
(148,200,o),
(148,334,cs)
);
}
);
width = 580;
}
);
unicode = 217;
},
{
glyphname = V;
layers = (
{
layerId = "B909A847-908A-4B08-AB88-1EC2F75AB3CA";
name = Regular;
shapes = (
{
closed = 1;
nodes = (
(260,110,l),
(99,654,ls),
(96,663,o),
(91,667,o),
(82,667,cs),
(28,667,ls),
(17,667,o),
(12,660,o),
(15,650,cs),
(216,12,l),
(219,4,o),
(224,0,o),
(233,0,cs),
(287,0,ls),
(296,0,o),
(301,4,o),
(304,12,c),
(505,650,ls),
(508,660,o),
(503,667,o),
(492,667,cs),
(438,667,ls),
(429,667,o),
(424,663,o),
(421,654,cs)
);
}
);
width = 520;
}
);
unicode = 86;
},
{
glyphname = W;
lastChange = "2024-12-23 18:44:01 +0000";
layers = (
{
anchors = (
{
name = bottom;
pos = (382,0);
},
{
name = top;
pos = (382,667);
}
);
layerId = "B909A847-908A-4B08-AB88-1EC2F75AB3CA";
name = Regular;
shapes = (
{
closed = 1;
nodes = (
(548,120,l),
(425,654,ls),
(423,663,o),
(418,667,o),
(409,667,cs),
(355,667,ls),
(346,667,o),
(341,663,o),
(339,654,cs),
(216,120,l),
(117,653,l),
(116,663,o),
(110,667,o),
(101,667,cs),
(47,667,ls),
(36,667,o),
(31,661,o),
(34,651,c),
(170,13,ls),
(172,4,o),
(177,0,o),
(187,0,cs),
(244,0,ls),
(254,0,o),
(259,4,o),
(261,13,cs),
(382,552,l),
(503,13,ls),
(505,4,o),
(510,0,o),
(520,0,cs),
(577,0,ls),
(587,0,o),
(592,4,o),
(594,13,cs),
(730,651,l),
(733,661,o),
(728,667,o),
(717,667,cs),
(663,667,ls),
(654,667,o),
(648,663,o),
(647,653,c)
);
}
);
width = 764;
}
);
unicode = 87;
},
{
glyphname = X;
layers = (
{
layerId = "B909A847-908A-4B08-AB88-1EC2F75AB3CA";
name = Regular;
shapes = (
{
closed = 1;
nodes = (
(424,667,l),
(520,667,l),
(326,360,l),
(322,353,o),
(322,347,o),
(326,340,cs),
(530,0,l),
(440,0,l),
(280,277,ls),
(274,287,o),
(266,287,o),
(260,277,cs),
(100,0,l),
(10,0,l),
(214,340,ls),
(218,347,o),
(218,353,o),
(214,360,c),
(20,667,l),
(115,667,l),
(260,423,l),
(266,412,o),
(274,412,o),
(280,423,cs)
);
}
);
width = 540;
}
);
unicode = 88;
},
{
glyphname = Y;
lastChange = "2024-12-23 18:45:10 +0000";
layers = (
{
anchors = (
{
name = bottom;
pos = (245,0);
},
{
name = top;
pos = (245,667);
},
{
name = topleft;
pos = (20,667);
}
);
layerId = "B909A847-908A-4B08-AB88-1EC2F75AB3CA";
name = Regular;
shapes = (
{
closed = 1;
nodes = (
(245,352,l),
(100,656,l),
(97,664,o),
(91,667,o),
(83,667,cs),
(25,667,ls),
(13,667,o),
(9,660,o),
(14,649,c),
(205,277,l),
(205,15,ls),
(205,5,o),
(210,0,o),
(220,0,cs),
(270,0,ls),
(280,0,o),
(285,5,o),
(285,15,cs),
(285,277,l),
(476,649,l),
(481,660,o),
(477,667,o),
(465,667,cs),
(407,667,ls),
(399,667,o),
(393,664,o),
(390,656,c)
);
}
);
width = 490;
}
);
unicode = 89;
},
{
glyphname = Yacute;
layers = (
{
layerId = "B909A847-908A-4B08-AB88-1EC2F75AB3CA";
name = Regular;
shapes = (
{
closed = 1;
nodes = (
(333,865,l),
(370,800,l),
(197,705,l),
(165,757,l)
);
},
{
closed = 1;
nodes = (
(245,352,l),
(100,656,l),
(97,664,o),
(91,667,o),
(83,667,cs),
(25,667,ls),
(13,667,o),
(9,660,o),
(14,649,c),
(205,277,l),
(205,15,ls),
(205,5,o),
(210,0,o),
(220,0,cs),
(270,0,ls),
(280,0,o),
(285,5,o),
(285,15,cs),
(285,277,l),
(476,649,l),
(481,660,o),
(477,667,o),
(465,667,cs),
(407,667,ls),
(399,667,o),
(393,664,o),
(390,656,c)
);
}
);
width = 490;
}
);
unicode = 221;
},
{
glyphname = Ydieresis;
layers = (
{
layerId = "B909A847-908A-4B08-AB88-1EC2F75AB3CA";
name = Regular;
shapes = (
{
closed = 1;
nodes = (
(125,721,o),
(146,700,o),
(172,700,cs),
(198,700,o),
(220,721,o),
(220,747,cs),
(220,773,o),
(198,795,o),
(172,795,cs),
(146,795,o),
(125,773,o),
(125,747,cs)
);
},
{
closed = 1;
nodes = (
(270,721,o),
(291,700,o),
(317,700,cs),
(343,700,o),
(365,721,o),
(365,747,cs),
(365,773,o),
(343,795,o),
(317,795,cs),
(291,795,o),
(270,773,o),
(270,747,cs)
);
},
{
closed = 1;
nodes = (
(245,352,l),
(100,656,l),
(97,664,o),
(91,667,o),
(83,667,cs),
(25,667,ls),
(13,667,o),
(9,660,o),
(14,649,c),
(205,277,l),
(205,15,ls),
(205,5,o),
(210,0,o),
(220,0,cs),
(270,0,ls),
(280,0,o),
(285,5,o),
(285,15,cs),
(285,277,l),
(476,649,l),
(481,660,o),
(477,667,o),
(465,667,cs),
(407,667,ls),
(399,667,o),
(393,664,o),
(390,656,c)
);
}
);
width = 490;
}
);
unicode = 376;
},
{
glyphname = Z;
lastChange = "2024-12-23 21:16:10 +0000";
layers = (
{
anchors = (
{
name = bottom;
pos = (268,0);
},
{
name = center;
pos = (268,334);
},
{
name = top;
pos = (268,667);
}
);
layerId = "B909A847-908A-4B08-AB88-1EC2F75AB3CA";
name = Regular;
shapes = (
{
closed = 1;
nodes = (
(380,587,l),
(45,69,l),
(42,62,o),
(40,57,o),
(40,50,cs),
(40,15,ls),
(40,5,o),
(45,0,o),
(55,0,cs),
(461,0,ls),
(470,0,o),
(476,5,o),
(477,14,c),
(487,69,ls),
(489,79,o),
(484,85,o),
(474,85,cs),
(156,85,l),
(490,604,l),
(493,611,o),
(495,616,o),
(495,623,cs),
(495,652,ls),
(495,662,o),
(490,667,o),
(480,667,cs),
(80,667,ls),
(70,667,o),
(65,662,o),
(65,652,cs),
(65,602,ls),
(65,592,o),
(70,587,o),
(80,587,cs)
);
}
);
width = 535;
}
);
unicode = 90;
},
{
glyphname = Zcaron;
layers = (
{
layerId = "B909A847-908A-4B08-AB88-1EC2F75AB3CA";
name = Regular;
shapes = (
{
closed = 1;
nodes = (
(280,699,l),
(160,809,l),
(190,844,l),
(269,782,l),
(277,777,o),
(283,777,o),
(291,782,c),
(370,844,l),
(400,809,l)
);
},
{
closed = 1;
nodes = (
(380,587,l),
(45,69,l),
(42,62,o),
(40,57,o),
(40,50,cs),
(40,15,ls),
(40,5,o),
(45,0,o),
(55,0,cs),
(461,0,ls),
(470,0,o),
(476,5,o),
(477,14,c),
(487,69,ls),
(489,79,o),
(484,85,o),
(474,85,cs),
(156,85,l),
(490,604,l),
(493,611,o),
(495,616,o),
(495,623,cs),
(495,652,ls),
(495,662,o),
(490,667,o),
(480,667,cs),
(80,667,ls),
(70,667,o),
(65,662,o),
(65,652,cs),
(65,602,ls),
(65,592,o),
(70,587,o),
(80,587,cs)
);
}
);
width = 535;
}
);
unicode = 381;
},
{
glyphname = a;
lastChange = "2024-12-23 21:03:35 +0000";
layers = (
{
anchors = (
{
name = bottom;
pos = (215,0);
},
{
name = ogonek;
pos = (401,10);
},
{
name = top;
pos = (215,500);
}
);
layerId = "B909A847-908A-4B08-AB88-1EC2F75AB3CA";
name = Regular;
shapes = (
{
closed = 1;
nodes = (
(265,440,o),
(308,405,o),
(310,310,c),
(195,315,o),
(25,295,o),
(25,155,cs),
(25,60,o),
(90,-10,o),
(200,-10,cs),
(251,-10,o),
(280,8,o),
(320,60,c),
(328,26,o),
(351,7,o),
(373,-1,c),
(381,-5,o),
(387,-2,o),
(392,6,c),
(417,43,l),
(422,51,o),
(420,57,o),
(413,63,c),
(377,91,o),
(385,124,o),
(385,275,cs),
(385,405,o),
(355,510,o),
(215,510,cs),
(140,510,o),
(81,476,o),
(57,459,c),
(49,454,o),
(48,446,o),
(54,438,c),
(76,411,ls),
(82,404,o),
(89,403,o),
(97,407,c),
(118,419,o),
(164,440,o),
(215,440,cs)
);
},
{
closed = 1;
nodes = (
(310,120,l),
(310,120,o),
(270,60,o),
(200,60,cs),
(140,60,o),
(105,100,o),
(105,155,cs),
(105,240,o),
(235,250,o),
(310,250,c)
);
}
);
width = 445;
}
);
unicode = 97;
},
{
glyphname = aacute;
layers = (
{
layerId = "B909A847-908A-4B08-AB88-1EC2F75AB3CA";
name = Regular;
shapes = (
{
closed = 1;
nodes = (
(263,740,l),
(300,675,l),
(127,580,l),
(95,632,l)
);
},
{
closed = 1;
nodes = (
(265,440,o),
(308,405,o),
(310,310,c),
(195,315,o),
(25,295,o),
(25,155,cs),
(25,60,o),
(70,-10,o),
(180,-10,cs),
(231,-10,o),
(280,20,o),
(320,60,c),
(329,26,o),
(349,2,o),
(373,-4,cs),
(381,-6,o),
(387,-2,o),
(392,5,c),
(416,42,l),
(422,50,o),
(420,57,o),
(411,62,c),
(377,84,o),
(385,126,o),
(385,275,cs),
(385,405,o),
(355,510,o),
(215,510,cs),
(140,510,o),
(81,476,o),
(57,459,c),
(49,454,o),
(48,446,o),
(54,438,c),
(76,411,ls),
(82,404,o),
(89,403,o),
(97,407,c),
(118,419,o),
(164,440,o),
(215,440,cs)
);
},
{
closed = 1;
nodes = (
(310,120,l),
(310,120,o),
(270,60,o),
(200,60,cs),
(140,60,o),
(105,100,o),
(105,155,cs),
(105,240,o),
(235,250,o),
(310,250,c)
);
}
);
width = 445;
}
);
unicode = 225;
},
{
glyphname = acircumflex;
layers = (
{
layerId = "B909A847-908A-4B08-AB88-1EC2F75AB3CA";
name = Regular;
shapes = (
{
closed = 1;
nodes = (
(51,571,l),
(57,564,o),
(64,563,o),
(72,567,c),
(200,645,l),
(328,567,l),
(336,563,o),
(343,564,o),
(349,571,c),
(361,588,ls),
(367,596,o),
(366,603,o),
(358,609,cs),
(210,717,l),
(203,723,o),
(197,723,o),
(190,717,c),
(42,609,ls),
(34,603,o),
(33,596,o),
(39,588,cs)
);
},
{
closed = 1;
nodes = (
(265,440,o),
(308,405,o),
(310,310,c),
(195,315,o),
(25,295,o),
(25,155,cs),
(25,60,o),
(70,-10,o),
(180,-10,cs),
(231,-10,o),
(280,20,o),
(320,60,c),
(329,26,o),
(349,2,o),
(373,-4,cs),
(381,-6,o),
(387,-2,o),
(392,5,c),
(416,42,l),
(422,50,o),
(420,57,o),
(411,62,c),
(377,84,o),
(385,126,o),
(385,275,cs),
(385,405,o),
(355,510,o),
(215,510,cs),
(140,510,o),
(81,476,o),
(57,459,c),
(49,454,o),
(48,446,o),
(54,438,c),
(76,411,ls),
(82,404,o),
(89,403,o),
(97,407,c),
(118,419,o),
(164,440,o),
(215,440,cs)
);
},
{
closed = 1;
nodes = (
(310,120,l),
(310,120,o),
(270,60,o),
(200,60,cs),
(140,60,o),
(105,100,o),
(105,155,cs),
(105,240,o),
(235,250,o),
(310,250,c)
);
}
);
width = 445;
}
);
unicode = 226;
},
{
glyphname = adieresis;
layers = (
{
layerId = "B909A847-908A-4B08-AB88-1EC2F75AB3CA";
name = Regular;
shapes = (
{
closed = 1;
nodes = (
(75,626,o),
(96,605,o),
(122,605,cs),
(148,605,o),
(170,626,o),
(170,652,cs),
(170,678,o),
(148,700,o),
(122,700,cs),
(96,700,o),
(75,678,o),
(75,652,cs)
);
},
{
closed = 1;
nodes = (
(220,626,o),
(241,605,o),
(267,605,cs),
(293,605,o),
(315,626,o),
(315,652,cs),
(315,678,o),
(293,700,o),
(267,700,cs),
(241,700,o),
(220,678,o),
(220,652,cs)
);
},
{
closed = 1;
nodes = (
(265,440,o),
(308,405,o),
(310,310,c),
(195,315,o),
(25,295,o),
(25,155,cs),
(25,60,o),
(70,-10,o),
(180,-10,cs),
(231,-10,o),
(280,20,o),
(320,60,c),
(329,26,o),
(349,2,o),
(373,-4,cs),
(381,-6,o),
(387,-2,o),
(392,5,c),
(416,42,l),
(422,50,o),
(420,57,o),
(411,62,c),
(377,84,o),
(385,126,o),
(385,275,cs),
(385,405,o),
(355,510,o),
(215,510,cs),
(140,510,o),
(81,476,o),
(57,459,c),
(49,454,o),
(48,446,o),
(54,438,c),
(76,411,ls),
(82,404,o),
(89,403,o),
(97,407,c),
(118,419,o),
(164,440,o),
(215,440,cs)
);
},
{
closed = 1;
nodes = (
(310,120,l),
(310,120,o),
(270,60,o),
(200,60,cs),
(140,60,o),
(105,100,o),
(105,155,cs),
(105,240,o),
(235,250,o),
(310,250,c)
);
}
);
width = 445;
}
);
unicode = 228;
},
{
glyphname = agrave;
layers = (
{
layerId = "B909A847-908A-4B08-AB88-1EC2F75AB3CA";
name = Regular;
shapes = (
{
closed = 1;
nodes = (
(267,587,ls),
(276,582,o),
(283,584,o),
(288,592,cs),
(304,619,ls),
(309,628,o),
(308,635,o),
(300,640,cs),
(157,732,ls),
(149,737,o),
(141,735,o),
(136,727,c),
(114,688,l),
(110,680,o),
(112,672,o),
(120,668,c)
);
},
{
closed = 1;
nodes = (
(265,440,o),
(308,405,o),
(310,310,c),
(195,315,o),
(25,295,o),
(25,155,cs),
(25,60,o),
(70,-10,o),
(180,-10,cs),
(231,-10,o),
(280,20,o),
(320,60,c),
(329,26,o),
(349,2,o),
(373,-4,cs),
(381,-6,o),
(387,-2,o),
(392,5,c),
(416,42,l),
(422,50,o),
(420,57,o),
(411,62,c),
(377,84,o),
(385,126,o),
(385,275,cs),
(385,405,o),
(355,510,o),
(215,510,cs),
(140,510,o),
(81,476,o),
(57,459,c),
(49,454,o),
(48,446,o),
(54,438,c),
(76,411,ls),
(82,404,o),
(89,403,o),
(97,407,c),
(118,419,o),
(164,440,o),
(215,440,cs)
);
},
{
closed = 1;
nodes = (
(310,120,l),
(310,120,o),
(270,60,o),
(200,60,cs),
(140,60,o),
(105,100,o),
(105,155,cs),
(105,240,o),
(235,250,o),
(310,250,c)
);
}
);
width = 445;
}
);
unicode = 224;
},
{
glyphname = aring;
layers = (
{
layerId = "B909A847-908A-4B08-AB88-1EC2F75AB3CA";
name = Regular;
shapes = (
{
closed = 1;
nodes = (
(125,599,o),
(159,565,o),
(200,565,cs),
(241,565,o),
(275,599,o),
(275,640,cs),
(275,681,o),
(241,715,o),
(200,715,cs),
(159,715,o),
(125,681,o),
(125,640,cs)
);
},
{
closed = 1;
nodes = (
(165,659,o),
(181,675,o),
(200,675,cs),
(219,675,o),
(235,659,o),
(235,640,cs),
(235,621,o),
(219,605,o),
(200,605,cs),
(181,605,o),
(165,621,o),
(165,640,cs)
);
},
{
closed = 1;
nodes = (
(265,440,o),
(308,405,o),
(310,310,c),
(195,315,o),
(25,295,o),
(25,155,cs),
(25,60,o),
(70,-10,o),
(180,-10,cs),
(231,-10,o),
(280,20,o),
(320,60,c),
(329,26,o),
(349,2,o),
(373,-4,cs),
(381,-6,o),
(387,-2,o),
(392,5,c),
(416,42,l),
(422,50,o),
(420,57,o),
(411,62,c),
(377,84,o),
(385,126,o),
(385,275,cs),
(385,405,o),
(355,510,o),
(215,510,cs),
(140,510,o),
(81,476,o),
(57,459,c),
(49,454,o),
(48,446,o),
(54,438,c),
(76,411,ls),
(82,404,o),
(89,403,o),
(97,407,c),
(118,419,o),
(164,440,o),
(215,440,cs)
);
},
{
closed = 1;
nodes = (
(310,120,l),
(310,120,o),
(270,60,o),
(200,60,cs),
(140,60,o),
(105,100,o),
(105,155,cs),
(105,240,o),
(235,250,o),
(310,250,c)
);
}
);
width = 445;
}
);
unicode = 229;
},
{
glyphname = atilde;
layers = (
{
layerId = "B909A847-908A-4B08-AB88-1EC2F75AB3CA";
name = Regular;
shapes = (
{
closed = 1;
nodes = (
(75,611,l),
(82,604,o),
(89,604,o),
(96,610,c),
(110,621,o),
(136,638,o),
(157,638,cs),
(223,638,o),
(223,588,o),
(291,588,cs),
(329,588,o),
(370,622,o),
(389,640,cs),
(396,647,o),
(396,655,o),
(389,661,c),
(372,678,l),
(366,685,o),
(359,684,o),
(351,678,c),
(338,667,o),
(314,651,o),
(291,651,cs),
(223,651,o),
(222,701,o),
(157,701,cs),
(117,701,o),
(78,667,o),
(60,649,c),
(53,643,o),
(53,635,o),
(60,628,c)
);
},
{
closed = 1;
nodes = (
(265,440,o),
(308,405,o),
(310,310,c),
(195,315,o),
(25,295,o),
(25,155,cs),
(25,60,o),
(70,-10,o),
(180,-10,cs),
(231,-10,o),
(280,20,o),
(320,60,c),
(329,26,o),
(349,2,o),
(373,-4,cs),
(381,-6,o),
(387,-2,o),
(392,5,c),
(416,42,l),
(422,50,o),
(420,57,o),
(411,62,c),
(377,84,o),
(385,126,o),
(385,275,cs),
(385,405,o),
(355,510,o),
(215,510,cs),
(140,510,o),
(81,476,o),
(57,459,c),
(49,454,o),
(48,446,o),
(54,438,c),
(76,411,ls),
(82,404,o),
(89,403,o),
(97,407,c),
(118,419,o),
(164,440,o),
(215,440,cs)
);
},
{
closed = 1;
nodes = (
(310,120,l),
(310,120,o),
(270,60,o),
(200,60,cs),
(140,60,o),
(105,100,o),
(105,155,cs),
(105,240,o),
(235,250,o),
(310,250,c)
);
}
);
width = 460;
}
);
unicode = 227;
},
{
glyphname = ae;
layers = (
{
layerId = "B909A847-908A-4B08-AB88-1EC2F75AB3CA";
name = Regular;
shapes = (
{
closed = 1;
nodes = (
(265,440,o),
(328,405,o),
(330,310,c),
(320,311,o),
(310,311,o),
(299,311,cs),
(184,311,o),
(25,283,o),
(25,155,cs),
(25,60,o),
(90,-10,o),
(200,-10,cs),
(264,-10,o),
(324,13,o),
(364,75,c),
(394,23,o),
(446,-10,o),
(525,-10,cs),
(600,-10,o),
(659,24,o),
(683,41,c),
(691,46,o),
(692,54,o),
(686,62,c),
(664,89,ls),
(658,96,o),
(651,97,o),
(643,93,c),
(622,81,o),
(576,60,o),
(525,60,cs),
(475,60,o),
(412,95,o),
(410,190,c),
(420,190,o),
(431,189,o),
(441,189,cs),
(556,189,o),
(715,217,o),
(715,345,cs),
(715,440,o),
(650,510,o),
(540,510,cs),
(476,510,o),
(415,486,o),
(376,424,c),
(345,476,o),
(294,510,o),
(215,510,cs),
(140,510,o),
(81,476,o),
(57,459,c),
(49,454,o),
(48,446,o),
(54,438,c),
(76,411,ls),
(82,404,o),
(89,403,o),
(97,407,c),
(118,419,o),
(164,440,o),
(215,440,cs)
);
},
{
closed = 1;
nodes = (
(410,261,ls),
(413,402,o),
(471,440,o),
(540,440,cs),
(600,440,o),
(635,400,o),
(635,345,cs),
(635,260,o),
(485,250,o),
(410,250,c)
);
},
{
closed = 1;
nodes = (
(330,239,ls),
(327,98,o),
(268,60,o),
(200,60,cs),
(140,60,o),
(105,100,o),
(105,155,cs),
(105,240,o),
(255,250,o),
(330,250,c)
);
}
);
width = 740;
}
);
unicode = 230;
},
{
glyphname = b;
layers = (
{
layerId = "B909A847-908A-4B08-AB88-1EC2F75AB3CA";
name = Regular;
shapes = (
{
closed = 1;
nodes = (
(405,-10,o),
(465,120,o),
(465,250,cs),
(465,380,o),
(435,510,o),
(285,510,cs),
(235,510,o),
(175,480,o),
(145,440,c),
(145,688,ls),
(145,699,o),
(139,704,o),
(129,702,cs),
(83,693,ls),
(74,691,o),
(70,685,o),
(70,676,cs),
(70,61,ls),
(70,53,o),
(73,48,o),
(79,43,c),
(103,28,o),
(168,-10,o),
(255,-10,cs)
);
},
{
closed = 1;
nodes = (
(365,440,o),
(385,348,o),
(385,250,cs),
(385,152,o),
(355,60,o),
(255,60,cs),
(185,60,o),
(145,90,o),
(145,90,c),
(145,380,l),
(145,380,o),
(195,440,o),
(265,440,cs)
);
}
);
width = 505;
}
);
unicode = 98;
},
{
glyphname = c;
lastChange = "2024-12-23 21:05:08 +0000";
layers = (
{
anchors = (
{
name = bottom;
pos = (240,0);
},
{
name = top;
pos = (240,500);
}
);
layerId = "B909A847-908A-4B08-AB88-1EC2F75AB3CA";
name = Regular;
shapes = (
{
closed = 1;
nodes = (
(275,440,o),
(305,428,o),
(328,417,c),
(335,414,o),
(340,417,o),
(345,425,c),
(363,462,l),
(368,470,o),
(366,478,o),
(357,482,c),
(328,497,o),
(288,510,o),
(240,510,cs),
(90,510,o),
(30,380,o),
(30,250,cs),
(30,120,o),
(90,-10,o),
(240,-10,cs),
(288,-10,o),
(328,3,o),
(357,18,c),
(366,22,o),
(368,30,o),
(363,38,c),
(345,75,l),
(340,83,o),
(333,86,o),
(325,82,cs),
(302,71,o),
(273,60,o),
(240,60,cs),
(140,60,o),
(110,152,o),
(110,250,cs),
(110,348,o),
(140,440,o),
(240,440,cs)
);
}
);
width = 390;
}
);
unicode = 99;
},
{
glyphname = ccedilla;
layers = (
{
layerId = "B909A847-908A-4B08-AB88-1EC2F75AB3CA";
name = Regular;
shapes = (
{
closed = 1;
nodes = (
(343,70,l),
(338,78,o),
(332,80,o),
(323,77,c),
(300,68,o),
(271,60,o),
(240,60,cs),
(140,60,o),
(110,152,o),
(110,250,cs),
(110,348,o),
(140,440,o),
(240,440,cs),
(272,440,o),
(300,432,o),
(323,423,c),
(332,419,o),
(338,421,o),
(343,429,c),
(362,463,l),
(367,471,o),
(365,479,o),
(356,483,cs),
(327,497,o),
(286,510,o),
(240,510,cs),
(90,510,o),
(30,380,o),
(30,250,cs),
(30,126,o),
(84,2,o),
(220,-9,c),
(220,-58,ls),
(220,-68,o),
(226,-71,o),
(236,-70,c),
(243,-70,ls),
(260,-70,o),
(271,-77,o),
(271,-90,cs),
(271,-103,o),
(260,-111,o),
(243,-111,cs),
(237,-111,o),
(229,-110,o),
(222,-109,c),
(213,-107,o),
(207,-108,o),
(203,-116,cs),
(200,-122,l),
(195,-130,o),
(197,-138,o),
(207,-142,cs),
(217,-146,o),
(231,-150,o),
(243,-150,cs),
(285,-150,o),
(316,-130,o),
(316,-90,cs),
(316,-53,o),
(285,-36,o),
(260,-36,c),
(260,-9,l),
(299,-6,o),
(331,5,o),
(356,17,cs),
(365,21,o),
(367,29,o),
(362,37,c)
);
}
);
width = 400;
}
);
unicode = 231;
},
{
glyphname = d;
lastChange = "2024-12-23 19:52:01 +0000";
layers = (
{
anchors = (
{
name = bottom;
pos = (248,0);
},
{
name = center;
pos = (351,600);
},
{
name = top;
pos = (248,500);
},
{
name = topright;
pos = (475,700);
}
);
layerId = "B909A847-908A-4B08-AB88-1EC2F75AB3CA";
name = Regular;
shapes = (
{
closed = 1;
nodes = (
(270,-10,o),
(320,10,o),
(360,60,c),
(368,26,o),
(391,7,o),
(413,-1,c),
(421,-5,o),
(427,-2,o),
(432,6,cs),
(456,42,l),
(462,50,o),
(460,57,o),
(451,62,c),
(417,84,o),
(425,127,o),
(425,275,cs),
(425,676,ls),
(425,685,o),
(421,691,o),
(412,693,cs),
(366,702,ls),
(356,704,o),
(350,699,o),
(350,688,cs),
(350,476,l),
(296,512,o),
(255,510,o),
(240,510,cs),
(90,510,o),
(30,380,o),
(30,250,cs),
(30,120,o),
(70,-10,o),
(220,-10,cs)
);
},
{
closed = 1;
nodes = (
(350,120,l),
(350,120,o),
(300,56,o),
(230,60,cs),
(138,65,o),
(110,152,o),
(110,250,cs),
(110,348,o),
(140,440,o),
(240,440,cs),
(310,440,o),
(350,410,o),
(350,410,c)
);
}
);
width = 495;
}
);
unicode = 100;
},
{
glyphname = eth;
layers = (
{
layerId = "B909A847-908A-4B08-AB88-1EC2F75AB3CA";
name = Regular;
shapes = (
{
closed = 1;
nodes = (
(455,363,o),
(434,531,o),
(313,618,c),
(354,659,ls),
(361,666,o),
(361,674,o),
(354,680,cs),
(330,702,l),
(323,709,o),
(315,708,o),
(309,702,cs),
(258,650,l),
(221,665,o),
(177,675,o),
(125,677,c),
(115,677,o),
(110,672,o),
(110,662,cs),
(110,627,ls),
(110,617,o),
(115,612,o),
(125,612,cs),
(154,611,o),
(182,608,o),
(208,599,c),
(121,511,ls),
(114,504,o),
(114,496,o),
(121,489,cs),
(142,468,l),
(149,462,o),
(157,462,o),
(164,469,cs),
(266,571,l),
(322,533,o),
(363,461,o),
(380,334,c),
(348,393,o),
(281,410,o),
(240,410,cs),
(90,410,o),
(30,295,o),
(30,200,cs),
(30,105,o),
(90,-10,o),
(240,-10,cs),
(390,-10,o),
(455,120,o),
(455,250,cs)
);
},
{
closed = 1;
nodes = (
(370,140,o),
(340,60,o),
(240,60,cs),
(140,60,o),
(110,140,o),
(110,200,cs),
(110,260,o),
(140,340,o),
(240,340,cs),
(340,340,o),
(370,260,o),
(370,200,cs)
);
}
);
width = 495;
}
);
unicode = 240;
},
{
glyphname = e;
lastChange = "2024-12-23 21:07:15 +0000";
layers = (
{
anchors = (
{
name = bottom;
pos = (225,0);
},
{
name = ogonek;
pos = (327,10);
},
{
name = top;
pos = (240,500);
}
);
layerId = "B909A847-908A-4B08-AB88-1EC2F75AB3CA";
name = Regular;
shapes = (
{
closed = 1;
nodes = (
(175,60,o),
(110,95,o),
(110,190,c),
(225,185,o),
(415,205,o),
(415,345,cs),
(415,440,o),
(350,510,o),
(240,510,cs),
(130,510,o),
(30,440,o),
(30,225,cs),
(30,95,o),
(85,-10,o),
(225,-10,cs),
(300,-10,o),
(359,24,o),
(383,41,c),
(391,46,o),
(392,54,o),
(386,62,c),
(364,89,ls),
(358,96,o),
(351,97,o),
(343,93,c),
(322,81,o),
(276,60,o),
(225,60,cs)
);
},
{
closed = 1;
nodes = (
(110,400,o),
(170,440,o),
(240,440,cs),
(300,440,o),
(335,400,o),
(335,345,cs),
(335,260,o),
(185,250,o),
(110,250,c)
);
}
);
width = 440;
}
);
unicode = 101;
},
{
glyphname = eacute;
layers = (
{
layerId = "B909A847-908A-4B08-AB88-1EC2F75AB3CA";
name = Regular;
shapes = (
{
closed = 1;
nodes = (
(298,740,l),
(335,675,l),
(162,580,l),
(130,632,l)
);
},
{
closed = 1;
nodes = (
(175,60,o),
(110,95,o),
(110,190,c),
(225,185,o),
(415,205,o),
(415,345,cs),
(415,440,o),
(350,510,o),
(240,510,cs),
(130,510,o),
(30,440,o),
(30,225,cs),
(30,95,o),
(85,-10,o),
(225,-10,cs),
(300,-10,o),
(359,24,o),
(383,41,c),
(391,46,o),
(392,54,o),
(386,62,c),
(364,89,ls),
(358,96,o),
(351,97,o),
(343,93,c),
(322,81,o),
(276,60,o),
(225,60,cs)
);
},
{
closed = 1;
nodes = (
(110,400,o),
(170,440,o),
(240,440,cs),
(300,440,o),
(335,400,o),
(335,345,cs),
(335,260,o),
(185,250,o),
(110,250,c)
);
}
);
width = 440;
}
);
unicode = 233;
},
{
glyphname = ecircumflex;
layers = (
{
layerId = "B909A847-908A-4B08-AB88-1EC2F75AB3CA";
name = Regular;
shapes = (
{
closed = 1;
nodes = (
(89,571,l),
(95,564,o),
(102,563,o),
(110,567,c),
(238,645,l),
(366,567,l),
(374,563,o),
(381,564,o),
(387,571,c),
(399,588,ls),
(405,596,o),
(404,603,o),
(396,609,cs),
(248,717,l),
(241,723,o),
(235,723,o),
(228,717,c),
(80,609,ls),
(72,603,o),
(71,596,o),
(77,588,cs)
);
},
{
closed = 1;
nodes = (
(175,60,o),
(110,95,o),
(110,190,c),
(225,185,o),
(415,205,o),
(415,345,cs),
(415,440,o),
(350,510,o),
(240,510,cs),
(130,510,o),
(30,440,o),
(30,225,cs),
(30,95,o),
(85,-10,o),
(225,-10,cs),
(300,-10,o),
(359,24,o),
(383,41,c),
(391,46,o),
(392,54,o),
(386,62,c),
(364,89,ls),
(358,96,o),
(351,97,o),
(343,93,c),
(322,81,o),
(276,60,o),
(225,60,cs)
);
},
{
closed = 1;
nodes = (
(110,400,o),
(170,440,o),
(240,440,cs),
(300,440,o),
(335,400,o),
(335,345,cs),
(335,260,o),
(185,250,o),
(110,250,c)
);
}
);
width = 440;
}
);
unicode = 234;
},
{
glyphname = edieresis;
layers = (
{
layerId = "B909A847-908A-4B08-AB88-1EC2F75AB3CA";
name = Regular;
shapes = (
{
closed = 1;
nodes = (
(125,626,o),
(146,605,o),
(172,605,cs),
(198,605,o),
(220,626,o),
(220,652,cs),
(220,678,o),
(198,700,o),
(172,700,cs),
(146,700,o),
(125,678,o),
(125,652,cs)
);
},
{
closed = 1;
nodes = (
(270,626,o),
(291,605,o),
(317,605,cs),
(343,605,o),
(365,626,o),
(365,652,cs),
(365,678,o),
(343,700,o),
(317,700,cs),
(291,700,o),
(270,678,o),
(270,652,cs)
);
},
{
closed = 1;
nodes = (
(175,60,o),
(110,95,o),
(110,190,c),
(225,185,o),
(415,205,o),
(415,345,cs),
(415,440,o),
(350,510,o),
(240,510,cs),
(130,510,o),
(30,440,o),
(30,225,cs),
(30,95,o),
(85,-10,o),
(225,-10,cs),
(300,-10,o),
(359,24,o),
(383,41,c),
(391,46,o),
(392,54,o),
(386,62,c),
(364,89,ls),
(358,96,o),
(351,97,o),
(343,93,c),
(322,81,o),
(276,60,o),
(225,60,cs)
);
},
{
closed = 1;
nodes = (
(110,400,o),
(170,440,o),
(240,440,cs),
(300,440,o),
(335,400,o),
(335,345,cs),
(335,260,o),
(185,250,o),
(110,250,c)
);
}
);
width = 440;
}
);
unicode = 235;
},
{
glyphname = egrave;
layers = (
{
layerId = "B909A847-908A-4B08-AB88-1EC2F75AB3CA";
name = Regular;
shapes = (
{
closed = 1;
nodes = (
(312,587,ls),
(321,582,o),
(328,584,o),
(333,592,cs),
(349,619,ls),
(354,628,o),
(353,635,o),
(345,640,cs),
(202,732,ls),
(194,737,o),
(186,735,o),
(181,727,c),
(159,688,l),
(155,680,o),
(157,672,o),
(165,668,c)
);
},
{
closed = 1;
nodes = (
(175,60,o),
(110,95,o),
(110,190,c),
(225,185,o),
(415,205,o),
(415,345,cs),
(415,440,o),
(350,510,o),
(240,510,cs),
(130,510,o),
(30,440,o),
(30,225,cs),
(30,95,o),
(85,-10,o),
(225,-10,cs),
(300,-10,o),
(359,24,o),
(383,41,c),
(391,46,o),
(392,54,o),
(386,62,c),
(364,89,ls),
(358,96,o),
(351,97,o),
(343,93,c),
(322,81,o),
(276,60,o),
(225,60,cs)
);
},
{
closed = 1;
nodes = (
(110,400,o),
(170,440,o),
(240,440,cs),
(300,440,o),
(335,400,o),
(335,345,cs),
(335,260,o),
(185,250,o),
(110,250,c)
);
}
);
width = 440;
}
);
unicode = 232;
},
{
glyphname = f;
layers = (
{
layerId = "B909A847-908A-4B08-AB88-1EC2F75AB3CA";
name = Regular;
shapes = (
{
closed = 1;
nodes = (
(10,450,ls),
(10,440,o),
(15,435,o),
(25,435,cs),
(85,435,l),
(85,15,ls),
(85,5,o),
(90,0,o),
(100,0,cs),
(145,0,ls),
(155,0,o),
(160,5,o),
(160,15,cs),
(160,435,l),
(267,435,ls),
(276,435,o),
(281,439,o),
(283,448,cs),
(291,483,l),
(294,494,o),
(289,500,o),
(278,500,cs),
(159,500,l),
(157,577,o),
(159,640,o),
(225,640,cs),
(250,640,o),
(272,629,o),
(285,621,c),
(294,616,o),
(301,617,o),
(305,626,c),
(323,662,l),
(328,671,o),
(326,678,o),
(318,683,c),
(300,693,o),
(264,710,o),
(225,710,cs),
(94,710,o),
(85,611,o),
(85,500,c),
(25,500,ls),
(15,500,o),
(10,495,o),
(10,485,cs)
);
}
);
width = 310;
}
);
unicode = 102;
},
{
glyphname = g;
lastChange = "2024-12-23 21:08:09 +0000";
layers = (
{
anchors = (
{
name = bottom;
pos = (195,-200);
},
{
name = top;
pos = (205,500);
}
);
layerId = "B909A847-908A-4B08-AB88-1EC2F75AB3CA";
name = Regular;
shapes = (
{
closed = 1;
nodes = (
(39,-157,l),
(33,-165,o),
(34,-173,o),
(43,-178,cs),
(76,-195,o),
(130,-210,o),
(195,-210,cs),
(345,-210,o),
(420,-130,o),
(420,-40,cs),
(420,50,o),
(345,75,o),
(205,60,cs),
(90,48,o),
(85,75,o),
(126,144,c),
(149,135,o),
(175,130,o),
(205,130,cs),
(319,130,o),
(385,205,o),
(385,320,cs),
(385,362,o),
(377,397,o),
(363,424,c),
(377,440,o),
(395,453,o),
(421,449,c),
(430,447,o),
(437,450,o),
(439,459,c),
(448,487,ls),
(451,496,o),
(448,503,o),
(440,506,c),
(434,508,o),
(425,510,o),
(413,510,cs),
(387,510,o),
(355,490,o),
(339,458,c),
(307,493,o),
(260,510,o),
(205,510,cs),
(90,510,o),
(25,435,o),
(25,320,cs),
(25,248,o),
(50,197,o),
(87,167,c),
(87,167,o),
(40,110,o),
(40,65,cs),
(40,0,o),
(90,-22,o),
(205,-5,cs),
(305,10,o),
(340,-10,o),
(340,-50,cs),
(340,-90,o),
(305,-140,o),
(195,-140,cs),
(146,-140,o),
(117,-136,o),
(83,-117,c),
(74,-113,o),
(67,-114,o),
(62,-122,cs)
);
},
{
closed = 1;
nodes = (
(310,245,o),
(270,195,o),
(205,195,cs),
(140,195,o),
(100,245,o),
(100,320,cs),
(100,395,o),
(140,445,o),
(205,445,cs),
(270,445,o),
(310,395,o),
(310,320,cs)
);
}
);
width = 445;
}
);
unicode = 103;
},
{
glyphname = h;
lastChange = "2024-12-23 21:20:40 +0000";
layers = (
{
anchors = (
{
name = bottom;
pos = (243,0);
},
{
name = center;
pos = (145,570);
},
{
name = top;
pos = (243,700);
}
);
layerId = "B909A847-908A-4B08-AB88-1EC2F75AB3CA";
name = Regular;
shapes = (
{
closed = 1;
nodes = (
(345,440,o),
(345,375,o),
(345,300,cs),
(345,15,ls),
(345,5,o),
(350,0,o),
(360,0,cs),
(410,0,ls),
(420,0,o),
(425,5,o),
(425,15,cs),
(425,300,ls),
(425,400,o),
(425,510,o),
(285,510,cs),
(235,510,o),
(175,480,o),
(145,440,c),
(145,686,ls),
(145,696,o),
(139,701,o),
(129,699,c),
(84,692,l),
(75,691,o),
(70,685,o),
(70,676,cs),
(70,15,ls),
(70,5,o),
(75,0,o),
(85,0,cs),
(130,0,ls),
(140,0,o),
(145,5,o),
(145,15,cs),
(145,380,l),
(145,380,o),
(195,440,o),
(265,440,cs)
);
}
);
width = 485;
}
);
unicode = 104;
},
{
glyphname = i;
lastChange = "2024-12-23 21:08:36 +0000";
layers = (
{
anchors = (
{
name = bottom;
pos = (118,0);
}
);
layerId = "B909A847-908A-4B08-AB88-1EC2F75AB3CA";
name = Regular;
shapes = (
{
closed = 1;
nodes = (
(70,626,o),
(91,605,o),
(117,605,cs),
(143,605,o),
(165,626,o),
(165,652,cs),
(165,678,o),
(143,700,o),
(117,700,cs),
(91,700,o),
(70,678,o),
(70,652,cs)
);
},
{
closed = 1;
nodes = (
(80,15,ls),
(80,5,o),
(85,0,o),
(95,0,cs),
(140,0,ls),
(150,0,o),
(155,5,o),
(155,15,cs),
(155,488,ls),
(155,499,o),
(149,504,o),
(139,502,cs),
(93,493,ls),
(84,491,o),
(80,485,o),
(80,476,cs)
);
}
);
width = 235;
}
);
unicode = 105;
},
{
glyphname = dotlessi;
lastChange = "2024-12-23 21:08:28 +0000";
layers = (
{
anchors = (
{
name = bottom;
pos = (118,0);
},
{
name = ogonek;
pos = (155,0);
},
{
name = top;
pos = (118,500);
}
);
layerId = "B909A847-908A-4B08-AB88-1EC2F75AB3CA";
name = Regular;
shapes = (
{
closed = 1;
nodes = (
(80,15,ls),
(80,5,o),
(85,0,o),
(95,0,cs),
(140,0,ls),
(150,0,o),
(155,5,o),
(155,15,cs),
(155,488,ls),
(155,499,o),
(149,504,o),
(139,502,cs),
(93,493,ls),
(84,491,o),
(80,485,o),
(80,476,cs)
);
}
);
width = 235;
}
);
unicode = 305;
},
{
glyphname = iacute;
layers = (
{
layerId = "B909A847-908A-4B08-AB88-1EC2F75AB3CA";
name = Regular;
shapes = (
{
closed = 1;
nodes = (
(185,740,l),
(222,675,l),
(49,580,l),
(17,632,l)
);
},
{
closed = 1;
nodes = (
(80,15,ls),
(80,5,o),
(85,0,o),
(95,0,cs),
(140,0,ls),
(150,0,o),
(155,5,o),
(155,15,cs),
(155,488,ls),
(155,499,o),
(149,504,o),
(139,502,cs),
(93,493,ls),
(84,491,o),
(80,485,o),
(80,476,cs)
);
}
);
width = 240;
}
);
unicode = 237;
},
{
glyphname = icircumflex;
layers = (
{
layerId = "B909A847-908A-4B08-AB88-1EC2F75AB3CA";
name = Regular;
shapes = (
{
closed = 1;
nodes = (
(-29,556,l),
(-23,549,o),
(-16,548,o),
(-8,552,c),
(120,630,l),
(248,552,l),
(256,548,o),
(263,549,o),
(269,556,c),
(281,573,ls),
(287,581,o),
(286,588,o),
(278,594,cs),
(130,702,l),
(123,708,o),
(117,708,o),
(110,702,c),
(-38,594,ls),
(-46,588,o),
(-47,581,o),
(-41,573,cs)
);
},
{
closed = 1;
nodes = (
(80,15,ls),
(80,5,o),
(85,0,o),
(95,0,cs),
(140,0,ls),
(150,0,o),
(155,5,o),
(155,15,cs),
(155,488,ls),
(155,499,o),
(149,504,o),
(139,502,cs),
(93,493,ls),
(84,491,o),
(80,485,o),
(80,476,cs)
);
}
);
width = 240;
}
);
unicode = 238;
},
{
glyphname = idieresis;
layers = (
{
layerId = "B909A847-908A-4B08-AB88-1EC2F75AB3CA";
name = Regular;
shapes = (
{
closed = 1;
nodes = (
(0,626,o),
(21,605,o),
(47,605,cs),
(73,605,o),
(95,626,o),
(95,652,cs),
(95,678,o),
(73,700,o),
(47,700,cs),
(21,700,o),
(0,678,o),
(0,652,cs)
);
},
{
closed = 1;
nodes = (
(145,626,o),
(166,605,o),
(192,605,cs),
(218,605,o),
(240,626,o),
(240,652,cs),
(240,678,o),
(218,700,o),
(192,700,cs),
(166,700,o),
(145,678,o),
(145,652,cs)
);
},
{
closed = 1;
nodes = (
(80,15,ls),
(80,5,o),
(85,0,o),
(95,0,cs),
(140,0,ls),
(150,0,o),
(155,5,o),
(155,15,cs),
(155,488,ls),
(155,499,o),
(149,504,o),
(139,502,cs),
(93,493,ls),
(84,491,o),
(80,485,o),
(80,476,cs)
);
}
);
width = 240;
}
);
unicode = 239;
},
{
glyphname = igrave;
layers = (
{
layerId = "B909A847-908A-4B08-AB88-1EC2F75AB3CA";
name = Regular;
shapes = (
{
closed = 1;
nodes = (
(177,587,ls),
(186,582,o),
(193,584,o),
(198,592,cs),
(214,619,ls),
(219,628,o),
(218,635,o),
(210,640,cs),
(67,732,ls),
(59,737,o),
(51,735,o),
(46,727,c),
(24,688,l),
(20,680,o),
(22,672,o),
(30,668,c)
);
},
{
closed = 1;
nodes = (
(80,15,ls),
(80,5,o),
(85,0,o),
(95,0,cs),
(140,0,ls),
(150,0,o),
(155,5,o),
(155,15,cs),
(155,488,ls),
(155,499,o),
(149,504,o),
(139,502,cs),
(93,493,ls),
(84,491,o),
(80,485,o),
(80,476,cs)
);
}
);
width = 240;
}
);
unicode = 236;
},
{
glyphname = j;
layers = (
{
layerId = "B909A847-908A-4B08-AB88-1EC2F75AB3CA";
name = Regular;
shapes = (
{
closed = 1;
nodes = (
(60,626,o),
(81,605,o),
(107,605,cs),
(133,605,o),
(155,626,o),
(155,652,cs),
(155,678,o),
(133,700,o),
(107,700,cs),
(81,700,o),
(60,678,o),
(60,652,cs)
);
},
{
closed = 1;
nodes = (
(70,-3,ls),
(70,-87,o),
(71,-145,o),
(32,-145,cs),
(30,-145,o),
(27,-145,o),
(25,-144,c),
(20,-144,o),
(17,-148,o),
(14,-157,c),
(6,-190,l),
(3,-199,o),
(6,-206,o),
(15,-209,c),
(24,-211,o),
(37,-213,o),
(55,-213,cs),
(145,-213,o),
(145,-114,o),
(145,-3,cs),
(145,488,ls),
(145,499,o),
(139,504,o),
(129,502,cs),
(83,493,ls),
(74,491,o),
(70,485,o),
(70,476,cs)
);
}
);
width = 225;
}
);
unicode = 106;
},
{
glyphname = jdotless;
lastChange = "2024-12-23 18:41:25 +0000";
layers = (
{
anchors = (
{
name = bottom;
pos = (113,-200);
},
{
name = top;
pos = (113,500);
}
);
layerId = "B909A847-908A-4B08-AB88-1EC2F75AB3CA";
shapes = (
{
closed = 1;
nodes = (
(70,-3,ls),
(70,-87,o),
(71,-145,o),
(32,-145,cs),
(30,-145,o),
(27,-145,o),
(25,-144,c),
(20,-144,o),
(17,-148,o),
(14,-157,c),
(6,-190,l),
(3,-199,o),
(6,-206,o),
(15,-209,c),
(24,-211,o),
(37,-213,o),
(55,-213,cs),
(145,-213,o),
(145,-114,o),
(145,-3,cs),
(145,488,ls),
(145,499,o),
(139,504,o),
(129,502,cs),
(83,493,ls),
(74,491,o),
(70,485,o),
(70,476,cs)
);
}
);
width = 225;
}
);
unicode = 567;
},
{
glyphname = k;
lastChange = "2024-12-23 21:10:16 +0000";
layers = (
{
anchors = (
{
name = bottom;
pos = (218,0);
},
{
name = top;
pos = (218,700);
}
);
layerId = "B909A847-908A-4B08-AB88-1EC2F75AB3CA";
name = Regular;
shapes = (
{
closed = 1;
nodes = (
(400,482,ls),
(408,492,o),
(404,500,o),
(392,500,cs),
(341,500,ls),
(333,500,o),
(328,497,o),
(323,491,cs),
(145,265,l),
(145,688,ls),
(145,699,o),
(139,704,o),
(129,702,cs),
(83,693,ls),
(74,691,o),
(70,685,o),
(70,676,cs),
(70,15,ls),
(70,5,o),
(75,0,o),
(85,0,cs),
(130,0,ls),
(140,0,o),
(145,5,o),
(145,15,cs),
(145,254,l),
(145,254,o),
(322,24,o),
(393,-2,cs),
(401,-5,o),
(407,-2,o),
(412,5,c),
(435,40,ls),
(441,49,o),
(438,55,o),
(428,59,cs),
(360,87,o),
(225,260,o),
(225,260,c)
);
}
);
width = 435;
}
);
unicode = 107;
},
{
glyphname = l;
lastChange = "2024-12-23 21:10:55 +0000";
layers = (
{
anchors = (
{
name = bottom;
pos = (124,0);
},
{
name = center;
pos = (124,250);
},
{
name = top;
pos = (124,700);
},
{
name = topright;
pos = (228,700);
}
);
layerId = "B909A847-908A-4B08-AB88-1EC2F75AB3CA";
name = Regular;
shapes = (
{
closed = 1;
nodes = (
(144,58,o),
(145,116,o),
(145,200,cs),
(145,688,ls),
(145,699,o),
(139,704,o),
(129,702,cs),
(83,693,ls),
(74,691,o),
(70,685,o),
(70,676,cs),
(70,200,ls),
(70,89,o),
(70,-10,o),
(160,-10,cs),
(178,-10,o),
(191,-8,o),
(200,-6,c),
(209,-3,o),
(212,4,o),
(209,13,c),
(201,46,l),
(198,55,o),
(183,58,o),
(183,58,cs)
);
}
);
width = 248;
}
);
unicode = 108;
},
{
glyphname = lslash;
layers = (
{
layerId = "B909A847-908A-4B08-AB88-1EC2F75AB3CA";
name = Regular;
shapes = (
{
closed = 1;
nodes = (
(30,266,l),
(37,260,o),
(45,260,o),
(52,267,cs),
(80,295,l),
(80,200,ls),
(80,89,o),
(80,-10,o),
(170,-10,cs),
(188,-10,o),
(201,-8,o),
(210,-6,c),
(219,-3,o),
(222,4,o),
(219,13,c),
(211,46,l),
(208,55,o),
(193,58,o),
(193,58,cs),
(154,58,o),
(155,116,o),
(155,200,cs),
(155,370,l),
(242,457,ls),
(249,464,o),
(249,472,o),
(242,478,cs),
(218,500,l),
(211,507,o),
(203,506,o),
(197,499,c),
(155,457,l),
(155,686,ls),
(155,696,o),
(149,701,o),
(139,699,c),
(94,692,l),
(85,691,o),
(80,685,o),
(80,676,cs),
(80,381,l),
(9,309,ls),
(2,302,o),
(2,294,o),
(9,287,cs)
);
}
);
width = 270;
}
);
unicode = 322;
},
{
glyphname = m;
layers = (
{
layerId = "B909A847-908A-4B08-AB88-1EC2F75AB3CA";
name = Regular;
shapes = (
{
closed = 1;
nodes = (
(590,440,o),
(590,375,o),
(590,300,cs),
(590,15,ls),
(590,5,o),
(595,0,o),
(605,0,cs),
(655,0,ls),
(665,0,o),
(670,5,o),
(670,15,cs),
(670,300,ls),
(670,400,o),
(670,510,o),
(530,510,cs),
(460,510,o),
(416,480,o),
(385,441,c),
(365,480,o),
(330,510,o),
(270,510,cs),
(229,510,o),
(160,480,o),
(141,440,c),
(136,489,l),
(136,499,o),
(129,504,o),
(119,502,cs),
(74,493,ls),
(65,491,o),
(61,485,o),
(61,476,c),
(64,447,o),
(70,376,o),
(70,300,cs),
(70,15,ls),
(70,5,o),
(75,0,o),
(85,0,cs),
(130,0,ls),
(140,0,o),
(145,5,o),
(145,15,cs),
(145,379,l),
(145,379,o),
(180,440,o),
(250,440,cs),
(330,440,o),
(330,375,o),
(330,300,cs),
(330,15,ls),
(330,5,o),
(335,0,o),
(345,0,cs),
(390,0,ls),
(400,0,o),
(405,5,o),
(405,15,cs),
(405,380,l),
(405,380,o),
(440,440,o),
(510,440,cs)
);
}
);
width = 730;
}
);
unicode = 109;
},
{
glyphname = n;
lastChange = "2024-12-23 21:11:29 +0000";
layers = (
{
anchors = (
{
name = bottom;
pos = (243,0);
},
{
name = top;
pos = (243,500);
}
);
layerId = "B909A847-908A-4B08-AB88-1EC2F75AB3CA";
name = Regular;
shapes = (
{
closed = 1;
nodes = (
(345,440,o),
(345,375,o),
(345,300,cs),
(345,15,ls),
(345,5,o),
(350,0,o),
(360,0,cs),
(410,0,ls),
(420,0,o),
(425,5,o),
(425,15,cs),
(425,300,ls),
(425,400,o),
(425,510,o),
(285,510,cs),
(235,510,o),
(170,480,o),
(140,440,c),
(136,489,ls),
(135,499,o),
(129,504,o),
(119,502,cs),
(74,493,ls),
(65,491,o),
(61,485,o),
(61,476,c),
(64,447,o),
(70,376,o),
(70,301,cs),
(70,15,ls),
(70,5,o),
(75,0,o),
(85,0,cs),
(130,0,ls),
(140,0,o),
(145,5,o),
(145,15,cs),
(145,380,l),
(145,380,o),
(195,440,o),
(265,440,cs)
);
}
);
width = 485;
}
);
unicode = 110;
},
{
glyphname = ntilde;
layers = (
{
layerId = "B909A847-908A-4B08-AB88-1EC2F75AB3CA";
name = Regular;
shapes = (
{
closed = 1;
nodes = (
(95,611,l),
(102,604,o),
(109,604,o),
(116,610,c),
(130,621,o),
(156,638,o),
(177,638,cs),
(243,638,o),
(243,588,o),
(311,588,cs),
(349,588,o),
(390,622,o),
(409,640,cs),
(416,647,o),
(416,655,o),
(409,661,c),
(392,678,l),
(386,685,o),
(379,684,o),
(371,678,c),
(358,667,o),
(334,651,o),
(311,651,cs),
(243,651,o),
(242,701,o),
(177,701,cs),
(137,701,o),
(98,667,o),
(80,649,c),
(73,643,o),
(73,635,o),
(80,628,c)
);
},
{
closed = 1;
nodes = (
(345,440,o),
(345,375,o),
(345,300,cs),
(345,15,ls),
(345,5,o),
(350,0,o),
(360,0,cs),
(410,0,ls),
(420,0,o),
(425,5,o),
(425,15,cs),
(425,300,ls),
(425,400,o),
(425,510,o),
(285,510,cs),
(235,510,o),
(170,480,o),
(140,440,c),
(136,489,ls),
(135,499,o),
(129,504,o),
(119,502,cs),
(74,493,ls),
(65,491,o),
(61,485,o),
(61,476,c),
(64,447,o),
(70,376,o),
(70,301,cs),
(70,15,ls),
(70,5,o),
(75,0,o),
(85,0,cs),
(130,0,ls),
(140,0,o),
(145,5,o),
(145,15,cs),
(145,380,l),
(145,380,o),
(195,440,o),
(265,440,cs)
);
}
);
width = 485;
}
);
unicode = 241;
},
{
glyphname = o;
lastChange = "2024-12-23 21:12:26 +0000";
layers = (
{
anchors = (
{
name = bottom;
pos = (240,0);
},
{
name = center;
pos = (240,250);
},
{
name = ogonek;
pos = (432,10);
},
{
name = top;
pos = (240,500);
},
{
name = topright;
pos = (460,500);
}
);
layerId = "B909A847-908A-4B08-AB88-1EC2F75AB3CA";
name = Regular;
shapes = (
{
closed = 1;
nodes = (
(30,120,o),
(90,-10,o),
(240,-10,cs),
(390,-10,o),
(450,120,o),
(450,250,cs),
(450,380,o),
(390,510,o),
(240,510,cs),
(90,510,o),
(30,380,o),
(30,250,cs)
);
},
{
closed = 1;
nodes = (
(110,348,o),
(140,440,o),
(240,440,cs),
(340,440,o),
(370,348,o),
(370,250,cs),
(370,152,o),
(340,60,o),
(240,60,cs),
(140,60,o),
(110,152,o),
(110,250,cs)
);
}
);
width = 480;
}
);
unicode = 111;
},
{
glyphname = oacute;
layers = (
{
layerId = "B909A847-908A-4B08-AB88-1EC2F75AB3CA";
name = Regular;
shapes = (
{
closed = 1;
nodes = (
(306,740,l),
(343,675,l),
(170,580,l),
(138,632,l)
);
},
{
closed = 1;
nodes = (
(30,120,o),
(90,-10,o),
(240,-10,cs),
(390,-10,o),
(450,120,o),
(450,250,cs),
(450,380,o),
(390,510,o),
(240,510,cs),
(90,510,o),
(30,380,o),
(30,250,cs)
);
},
{
closed = 1;
nodes = (
(110,348,o),
(140,440,o),
(240,440,cs),
(340,440,o),
(370,348,o),
(370,250,cs),
(370,152,o),
(340,60,o),
(240,60,cs),
(140,60,o),
(110,152,o),
(110,250,cs)
);
}
);
width = 480;
}
);
unicode = 243;
},
{
glyphname = ocircumflex;
layers = (
{
layerId = "B909A847-908A-4B08-AB88-1EC2F75AB3CA";
name = Regular;
shapes = (
{
closed = 1;
nodes = (
(91,571,l),
(97,564,o),
(104,563,o),
(112,567,c),
(240,645,l),
(368,567,l),
(376,563,o),
(383,564,o),
(389,571,c),
(401,588,ls),
(407,596,o),
(406,603,o),
(398,609,cs),
(250,717,l),
(243,723,o),
(237,723,o),
(230,717,c),
(82,609,ls),
(74,603,o),
(73,596,o),
(79,588,cs)
);
},
{
closed = 1;
nodes = (
(30,120,o),
(90,-10,o),
(240,-10,cs),
(390,-10,o),
(450,120,o),
(450,250,cs),
(450,380,o),
(390,510,o),
(240,510,cs),
(90,510,o),
(30,380,o),
(30,250,cs)
);
},
{
closed = 1;
nodes = (
(110,348,o),
(140,440,o),
(240,440,cs),
(340,440,o),
(370,348,o),
(370,250,cs),
(370,152,o),
(340,60,o),
(240,60,cs),
(140,60,o),
(110,152,o),
(110,250,cs)
);
}
);
width = 480;
}
);
unicode = 244;
},
{
glyphname = odieresis;
layers = (
{
layerId = "B909A847-908A-4B08-AB88-1EC2F75AB3CA";
name = Regular;
shapes = (
{
closed = 1;
nodes = (
(120,626,o),
(141,605,o),
(167,605,cs),
(193,605,o),
(215,626,o),
(215,652,cs),
(215,678,o),
(193,700,o),
(167,700,cs),
(141,700,o),
(120,678,o),
(120,652,cs)
);
},
{
closed = 1;
nodes = (
(265,626,o),
(286,605,o),
(312,605,cs),
(338,605,o),
(360,626,o),
(360,652,cs),
(360,678,o),
(338,700,o),
(312,700,cs),
(286,700,o),
(265,678,o),
(265,652,cs)
);
},
{
closed = 1;
nodes = (
(30,120,o),
(90,-10,o),
(240,-10,cs),
(390,-10,o),
(450,120,o),
(450,250,cs),
(450,380,o),
(390,510,o),
(240,510,cs),
(90,510,o),
(30,380,o),
(30,250,cs)
);
},
{
closed = 1;
nodes = (
(110,348,o),
(140,440,o),
(240,440,cs),
(340,440,o),
(370,348,o),
(370,250,cs),
(370,152,o),
(340,60,o),
(240,60,cs),
(140,60,o),
(110,152,o),
(110,250,cs)
);
}
);
width = 480;
}
);
unicode = 246;
},
{
glyphname = ograve;
layers = (
{
layerId = "B909A847-908A-4B08-AB88-1EC2F75AB3CA";
name = Regular;
shapes = (
{
closed = 1;
nodes = (
(297,587,ls),
(306,582,o),
(313,584,o),
(318,592,cs),
(334,619,ls),
(339,628,o),
(338,635,o),
(330,640,cs),
(187,732,ls),
(179,737,o),
(171,735,o),
(166,727,c),
(144,688,l),
(140,680,o),
(142,672,o),
(150,668,c)
);
},
{
closed = 1;
nodes = (
(30,120,o),
(90,-10,o),
(240,-10,cs),
(390,-10,o),
(450,120,o),
(450,250,cs),
(450,380,o),
(390,510,o),
(240,510,cs),
(90,510,o),
(30,380,o),
(30,250,cs)
);
},
{
closed = 1;
nodes = (
(110,348,o),
(140,440,o),
(240,440,cs),
(340,440,o),
(370,348,o),
(370,250,cs),
(370,152,o),
(340,60,o),
(240,60,cs),
(140,60,o),
(110,152,o),
(110,250,cs)
);
}
);
width = 480;
}
);
unicode = 242;
},
{
glyphname = oslash;
layers = (
{
layerId = "B909A847-908A-4B08-AB88-1EC2F75AB3CA";
name = Regular;
shapes = (
{
closed = 1;
nodes = (
(100,6,l),
(95,-3,o),
(98,-10,o),
(107,-15,c),
(120,-21,l),
(129,-26,o),
(136,-23,o),
(140,-14,c),
(151,8,l),
(176,-3,o),
(206,-10,o),
(240,-10,cs),
(390,-10,o),
(450,120,o),
(450,250,cs),
(450,332,o),
(426,414,o),
(370,464,c),
(385,494,l),
(389,503,o),
(386,510,o),
(377,514,c),
(363,521,l),
(355,526,o),
(348,523,o),
(343,515,c),
(331,489,l),
(305,502,o),
(275,510,o),
(240,510,cs),
(90,510,o),
(30,380,o),
(30,250,cs),
(30,166,o),
(55,82,o),
(113,33,c)
);
},
{
closed = 1;
nodes = (
(110,348,o),
(140,440,o),
(240,440,cs),
(264,440,o),
(284,434,o),
(300,425,c),
(147,104,l),
(120,140,o),
(110,194,o),
(110,250,cs)
);
},
{
closed = 1;
nodes = (
(370,152,o),
(340,60,o),
(240,60,cs),
(217,60,o),
(198,64,o),
(182,73,c),
(335,392,l),
(360,356,o),
(370,304,o),
(370,250,cs)
);
}
);
width = 490;
}
);
unicode = 248;
},
{
glyphname = otilde;
layers = (
{
layerId = "B909A847-908A-4B08-AB88-1EC2F75AB3CA";
name = Regular;
shapes = (
{
closed = 1;
nodes = (
(90,611,l),
(97,604,o),
(104,604,o),
(111,610,c),
(125,621,o),
(151,638,o),
(172,638,cs),
(238,638,o),
(238,588,o),
(306,588,cs),
(344,588,o),
(385,622,o),
(404,640,cs),
(411,647,o),
(411,655,o),
(404,661,c),
(387,678,l),
(381,685,o),
(374,684,o),
(366,678,c),
(353,667,o),
(329,651,o),
(306,651,cs),
(238,651,o),
(237,701,o),
(172,701,cs),
(132,701,o),
(93,667,o),
(75,649,c),
(68,643,o),
(68,635,o),
(75,628,c)
);
},
{
closed = 1;
nodes = (
(30,120,o),
(90,-10,o),
(240,-10,cs),
(390,-10,o),
(450,120,o),
(450,250,cs),
(450,380,o),
(390,510,o),
(240,510,cs),
(90,510,o),
(30,380,o),
(30,250,cs)
);
},
{
closed = 1;
nodes = (
(110,348,o),
(140,440,o),
(240,440,cs),
(340,440,o),
(370,348,o),
(370,250,cs),
(370,152,o),
(340,60,o),
(240,60,cs),
(140,60,o),
(110,152,o),
(110,250,cs)
);
}
);
width = 480;
}
);
unicode = 245;
},
{
glyphname = oe;
layers = (
{
layerId = "B909A847-908A-4B08-AB88-1EC2F75AB3CA";
name = Regular;
shapes = (
{
closed = 1;
nodes = (
(515,60,o),
(452,95,o),
(450,190,c),
(565,185,o),
(755,205,o),
(755,345,cs),
(755,440,o),
(690,510,o),
(580,510,cs),
(513,510,o),
(449,483,o),
(410,414,c),
(377,471,o),
(322,510,o),
(240,510,cs),
(90,510,o),
(30,380,o),
(30,250,cs),
(30,120,o),
(90,-10,o),
(240,-10,cs),
(317,-10,o),
(370,24,o),
(404,75,c),
(434,23,o),
(486,-10,o),
(565,-10,cs),
(640,-10,o),
(699,24,o),
(723,41,c),
(731,46,o),
(732,54,o),
(726,62,c),
(704,89,ls),
(698,96,o),
(691,97,o),
(683,93,c),
(662,81,o),
(616,60,o),
(565,60,cs)
);
},
{
closed = 1;
nodes = (
(110,348,o),
(140,440,o),
(240,440,cs),
(340,440,o),
(370,348,o),
(370,250,cs),
(370,152,o),
(340,60,o),
(240,60,cs),
(140,60,o),
(110,152,o),
(110,250,cs)
);
},
{
closed = 1;
nodes = (
(450,400,o),
(510,440,o),
(580,440,cs),
(640,440,o),
(675,400,o),
(675,345,cs),
(675,260,o),
(525,250,o),
(450,250,c)
);
}
);
width = 780;
}
);
unicode = 339;
},
{
glyphname = p;
layers = (
{
layerId = "B909A847-908A-4B08-AB88-1EC2F75AB3CA";
name = Regular;
shapes = (
{
closed = 1;
nodes = (
(235,510,o),
(170,480,o),
(140,440,c),
(136,489,ls),
(135,499,o),
(129,504,o),
(119,502,cs),
(74,493,ls),
(65,491,o),
(60,485,o),
(61,476,c),
(70,300,l),
(70,-181,ls),
(70,-190,o),
(74,-196,o),
(83,-198,cs),
(129,-207,ls),
(139,-209,o),
(145,-204,o),
(145,-193,cs),
(145,20,l),
(199,-10,o),
(240,-10,o),
(255,-10,cs),
(405,-10,o),
(465,120,o),
(465,250,cs),
(465,380,o),
(435,510,o),
(285,510,cs)
);
},
{
closed = 1;
nodes = (
(185,60,o),
(145,90,o),
(145,90,c),
(145,380,l),
(145,380,o),
(195,440,o),
(265,440,cs),
(365,440,o),
(385,348,o),
(385,250,cs),
(385,152,o),
(355,60,o),
(255,60,cs)
);
}
);
width = 495;
}
);
unicode = 112;
},
{
glyphname = thorn;
layers = (
{
layerId = "B909A847-908A-4B08-AB88-1EC2F75AB3CA";
name = Regular;
shapes = (
{
closed = 1;
nodes = (
(215,510,o),
(178,497,o),
(145,475,c),
(145,685,ls),
(145,695,o),
(140,700,o),
(130,700,cs),
(85,700,ls),
(75,700,o),
(70,695,o),
(70,685,cs),
(70,-184,ls),
(70,-194,o),
(75,-199,o),
(85,-199,cs),
(130,-199,ls),
(140,-199,o),
(145,-194,o),
(145,-184,cs),
(145,38,l),
(181,2,o),
(224,-10,o),
(255,-10,cs),
(405,-10,o),
(465,120,o),
(465,250,cs),
(465,380,o),
(405,510,o),
(255,510,cs)
);
},
{
closed = 1;
nodes = (
(213,60,o),
(176,79,o),
(145,101,c),
(145,399,l),
(176,421,o),
(213,440,o),
(255,440,cs),
(355,440,o),
(385,348,o),
(385,250,cs),
(385,152,o),
(355,60,o),
(255,60,cs)
);
}
);
width = 495;
}
);
unicode = 254;
},
{
glyphname = q;
layers = (
{
layerId = "B909A847-908A-4B08-AB88-1EC2F75AB3CA";
name = Regular;
shapes = (
{
closed = 1;
nodes = (
(90,510,o),
(30,380,o),
(30,250,cs),
(30,120,o),
(60,-10,o),
(210,-10,cs),
(260,-10,o),
(310,10,o),
(350,50,c),
(350,-193,ls),
(350,-204,o),
(356,-209,o),
(366,-207,cs),
(412,-198,ls),
(421,-196,o),
(425,-190,o),
(425,-181,cs),
(425,439,ls),
(425,447,o),
(422,452,o),
(416,457,c),
(392,472,o),
(327,510,o),
(240,510,cs)
);
},
{
closed = 1;
nodes = (
(130,60,o),
(110,152,o),
(110,250,cs),
(110,348,o),
(140,440,o),
(240,440,cs),
(310,440,o),
(350,410,o),
(350,410,c),
(350,120,l),
(350,120,o),
(300,60,o),
(230,60,cs)
);
}
);
width = 495;
}
);
unicode = 113;
},
{
glyphname = r;
lastChange = "2024-12-23 21:13:10 +0000";
layers = (
{
anchors = (
{
name = bottom;
pos = (158,0);
},
{
name = top;
pos = (158,500);
}
);
layerId = "B909A847-908A-4B08-AB88-1EC2F75AB3CA";
name = Regular;
shapes = (
{
closed = 1;
nodes = (
(267,440,o),
(276,438,o),
(280,437,c),
(282,436,o),
(284,441,o),
(287,450,cs),
(300,490,ls),
(303,500,o),
(300,507,o),
(290,509,c),
(287,510,o),
(283,510,o),
(275,510,cs),
(224,510,o),
(170,480,o),
(140,435,c),
(136,489,ls),
(135,499,o),
(129,504,o),
(119,502,cs),
(74,493,ls),
(65,491,o),
(61,485,o),
(61,476,c),
(64,447,o),
(70,376,o),
(70,299,cs),
(70,15,ls),
(70,5,o),
(75,0,o),
(85,0,cs),
(130,0,ls),
(140,0,o),
(145,5,o),
(145,15,cs),
(145,380,l),
(145,380,o),
(185,440,o),
(255,440,cs)
);
}
);
width = 315;
}
);
unicode = 114;
},
{
glyphname = s;
lastChange = "2024-12-23 21:14:00 +0000";
layers = (
{
anchors = (
{
name = bottom;
pos = (178,0);
},
{
name = top;
pos = (188,500);
}
);
layerId = "B909A847-908A-4B08-AB88-1EC2F75AB3CA";
name = Regular;
shapes = (
{
closed = 1;
nodes = (
(38,285,o),
(106,245,o),
(188,230,cs),
(239,221,o),
(273,204,o),
(273,155,cs),
(273,100,o),
(238,60,o),
(178,60,cs),
(135,60,o),
(97,76,o),
(78,86,cs),
(69,91,o),
(62,89,o),
(58,81,cs),
(37,41,ls),
(32,32,o),
(35,24,o),
(44,20,cs),
(68,10,o),
(120,-10,o),
(178,-10,cs),
(288,-10,o),
(353,60,o),
(353,155,cs),
(353,254,o),
(278,291,o),
(188,305,cs),
(136,313,o),
(108,335,o),
(108,373,cs),
(108,417,o),
(153,440,o),
(188,440,cs),
(221,440,o),
(250,429,o),
(273,418,cs),
(281,414,o),
(288,417,o),
(293,425,c),
(311,462,l),
(316,470,o),
(314,478,o),
(305,482,c),
(276,497,o),
(236,510,o),
(188,510,cs),
(103,510,o),
(38,457,o),
(38,373,cs)
);
}
);
width = 378;
}
);
unicode = 115;
},
{
glyphname = scaron;
layers = (
{
layerId = "B909A847-908A-4B08-AB88-1EC2F75AB3CA";
name = Regular;
shapes = (
{
closed = 1;
nodes = (
(190,555,l),
(70,665,l),
(100,700,l),
(179,638,l),
(187,633,o),
(193,633,o),
(201,638,c),
(280,700,l),
(310,665,l)
);
},
{
closed = 1;
nodes = (
(38,285,o),
(106,245,o),
(188,230,cs),
(239,221,o),
(273,204,o),
(273,155,cs),
(273,100,o),
(238,60,o),
(178,60,cs),
(135,60,o),
(97,76,o),
(78,86,cs),
(69,91,o),
(62,89,o),
(58,81,cs),
(37,41,ls),
(32,32,o),
(35,24,o),
(44,20,cs),
(68,10,o),
(120,-10,o),
(178,-10,cs),
(288,-10,o),
(353,60,o),
(353,155,cs),
(353,254,o),
(278,291,o),
(188,305,cs),
(136,313,o),
(108,335,o),
(108,373,cs),
(108,417,o),
(153,440,o),
(188,440,cs),
(221,440,o),
(250,429,o),
(273,418,cs),
(281,414,o),
(288,417,o),
(293,425,c),
(311,462,l),
(316,470,o),
(314,478,o),
(305,482,c),
(276,497,o),
(236,510,o),
(188,510,cs),
(103,510,o),
(38,457,o),
(38,373,cs)
);
}
);
width = 380;
}
);
unicode = 353;
},
{
glyphname = germandbls;
layers = (
{
layerId = "B909A847-908A-4B08-AB88-1EC2F75AB3CA";
name = Regular;
shapes = (
{
closed = 1;
nodes = (
(195,285,o),
(263,245,o),
(345,230,cs),
(396,221,o),
(430,204,o),
(430,155,cs),
(430,100,o),
(395,60,o),
(335,60,cs),
(292,60,o),
(254,76,o),
(235,86,cs),
(226,91,o),
(219,89,o),
(215,81,cs),
(194,41,ls),
(189,32,o),
(192,24,o),
(201,20,cs),
(225,10,o),
(277,-10,o),
(335,-10,cs),
(445,-10,o),
(510,60,o),
(510,155,cs),
(510,254,o),
(435,291,o),
(345,305,cs),
(293,313,o),
(265,335,o),
(265,373,cs),
(265,443,o),
(400,470,o),
(400,580,cs),
(400,654,o),
(340,720,o),
(235,720,cs),
(105,720,o),
(60,630,o),
(60,500,cs),
(60,16,ls),
(60,6,o),
(65,1,o),
(75,1,cs),
(120,1,ls),
(130,1,o),
(135,6,o),
(135,16,cs),
(135,500,ls),
(135,600,o),
(160,655,o),
(235,655,cs),
(300,655,o),
(328,625,o),
(328,575,cs),
(328,515,o),
(195,463,o),
(195,373,cs)
);
}
);
width = 535;
}
);
unicode = 223;
},
{
glyphname = t;
lastChange = "2024-12-23 21:14:56 +0000";
layers = (
{
anchors = (
{
name = bottom;
pos = (225,0);
},
{
name = center;
pos = (170,250);
},
{
name = top;
pos = (170,602);
},
{
name = topright;
pos = (320,700);
}
);
layerId = "B909A847-908A-4B08-AB88-1EC2F75AB3CA";
name = Regular;
shapes = (
{
closed = 1;
nodes = (
(85,500,l),
(25,500,ls),
(15,500,o),
(10,495,o),
(10,485,cs),
(10,450,ls),
(10,440,o),
(15,435,o),
(25,435,cs),
(85,435,l),
(85,200,ls),
(85,89,o),
(94,-10,o),
(225,-10,cs),
(264,-10,o),
(300,7,o),
(318,17,c),
(326,22,o),
(328,29,o),
(323,38,c),
(305,74,l),
(301,83,o),
(294,84,o),
(285,79,c),
(272,71,o),
(250,60,o),
(225,60,cs),
(159,60,o),
(157,123,o),
(159,200,cs),
(159,435,l),
(267,435,ls),
(276,435,o),
(281,439,o),
(283,448,cs),
(291,483,l),
(294,494,o),
(289,500,o),
(278,500,cs),
(159,500,l),
(160,588,ls),
(160,599,o),
(154,604,o),
(144,602,cs),
(98,593,ls),
(89,591,o),
(85,585,o),
(85,576,cs)
);
}
);
width = 340;
}
);
unicode = 116;
},
{
glyphname = u;
lastChange = "2024-12-23 21:15:45 +0000";
layers = (
{
anchors = (
{
name = bottom;
pos = (238,0);
},
{
name = ogonek;
pos = (428,10);
},
{
name = top;
pos = (238,500);
},
{
name = topright;
pos = (455,500);
}
);
layerId = "B909A847-908A-4B08-AB88-1EC2F75AB3CA";
name = Regular;
shapes = (
{
closed = 1;
nodes = (
(140,488,ls),
(140,499,o),
(134,504,o),
(124,502,cs),
(73,493,l),
(64,491,o),
(60,485,o),
(60,476,cs),
(60,200,ls),
(60,100,o),
(60,-10,o),
(200,-10,cs),
(251,-10,o),
(310,10,o),
(350,60,c),
(358,26,o),
(381,3,o),
(403,-3,c),
(411,-6,o),
(417,-2,o),
(422,5,c),
(446,42,l),
(452,50,o),
(450,57,o),
(441,62,c),
(407,84,o),
(415,127,o),
(415,275,cs),
(415,485,ls),
(415,495,o),
(410,500,o),
(400,500,cs),
(355,500,ls),
(345,500,o),
(340,495,o),
(340,485,cs),
(340,120,l),
(340,120,o),
(290,60,o),
(220,60,cs),
(140,60,o),
(140,125,o),
(140,200,cs)
);
}
);
width = 475;
}
);
unicode = 117;
},
{
glyphname = uacute;
layers = (
{
layerId = "B909A847-908A-4B08-AB88-1EC2F75AB3CA";
name = Regular;
shapes = (
{
closed = 1;
nodes = (
(311,740,l),
(348,675,l),
(175,580,l),
(143,632,l)
);
},
{
closed = 1;
nodes = (
(140,488,ls),
(140,499,o),
(134,504,o),
(124,502,cs),
(73,493,l),
(64,491,o),
(60,485,o),
(60,476,cs),
(60,200,ls),
(60,100,o),
(60,-10,o),
(200,-10,cs),
(251,-10,o),
(310,10,o),
(350,60,c),
(358,26,o),
(381,3,o),
(403,-3,c),
(411,-6,o),
(417,-2,o),
(422,5,c),
(446,42,l),
(452,50,o),
(450,57,o),
(441,62,c),
(407,84,o),
(415,127,o),
(415,275,cs),
(415,485,ls),
(415,495,o),
(410,500,o),
(400,500,cs),
(355,500,ls),
(345,500,o),
(340,495,o),
(340,485,cs),
(340,120,l),
(340,120,o),
(290,60,o),
(220,60,cs),
(140,60,o),
(140,125,o),
(140,200,cs)
);
}
);
width = 475;
}
);
unicode = 250;
},
{
glyphname = ucircumflex;
layers = (
{
layerId = "B909A847-908A-4B08-AB88-1EC2F75AB3CA";
name = Regular;
shapes = (
{
closed = 1;
nodes = (
(96,571,l),
(102,564,o),
(109,563,o),
(117,567,c),
(245,645,l),
(373,567,l),
(381,563,o),
(388,564,o),
(394,571,c),
(406,588,ls),
(412,596,o),
(411,603,o),
(403,609,cs),
(255,717,l),
(248,723,o),
(242,723,o),
(235,717,c),
(87,609,ls),
(79,603,o),
(78,596,o),
(84,588,cs)
);
},
{
closed = 1;
nodes = (
(140,488,ls),
(140,499,o),
(134,504,o),
(124,502,cs),
(73,493,l),
(64,491,o),
(60,485,o),
(60,476,cs),
(60,200,ls),
(60,100,o),
(60,-10,o),
(200,-10,cs),
(251,-10,o),
(310,10,o),
(350,60,c),
(358,26,o),
(381,3,o),
(403,-3,c),
(411,-6,o),
(417,-2,o),
(422,5,c),
(446,42,l),
(452,50,o),
(450,57,o),
(441,62,c),
(407,84,o),
(415,127,o),
(415,275,cs),
(415,485,ls),
(415,495,o),
(410,500,o),
(400,500,cs),
(355,500,ls),
(345,500,o),
(340,495,o),
(340,485,cs),
(340,120,l),
(340,120,o),
(290,60,o),
(220,60,cs),
(140,60,o),
(140,125,o),
(140,200,cs)
);
}
);
width = 475;
}
);
unicode = 251;
},
{
glyphname = udieresis;
layers = (
{
layerId = "B909A847-908A-4B08-AB88-1EC2F75AB3CA";
name = Regular;
shapes = (
{
closed = 1;
nodes = (
(125,626,o),
(146,605,o),
(172,605,cs),
(198,605,o),
(220,626,o),
(220,652,cs),
(220,678,o),
(198,700,o),
(172,700,cs),
(146,700,o),
(125,678,o),
(125,652,cs)
);
},
{
closed = 1;
nodes = (
(270,626,o),
(291,605,o),
(317,605,cs),
(343,605,o),
(365,626,o),
(365,652,cs),
(365,678,o),
(343,700,o),
(317,700,cs),
(291,700,o),
(270,678,o),
(270,652,cs)
);
},
{
closed = 1;
nodes = (
(140,488,ls),
(140,499,o),
(134,504,o),
(124,502,cs),
(73,493,l),
(64,491,o),
(60,485,o),
(60,476,cs),
(60,200,ls),
(60,100,o),
(60,-10,o),
(200,-10,cs),
(251,-10,o),
(310,10,o),
(350,60,c),
(358,26,o),
(381,3,o),
(403,-3,c),
(411,-6,o),
(417,-2,o),
(422,5,c),
(446,42,l),
(452,50,o),
(450,57,o),
(441,62,c),
(407,84,o),
(415,127,o),
(415,275,cs),
(415,485,ls),
(415,495,o),
(410,500,o),
(400,500,cs),
(355,500,ls),
(345,500,o),
(340,495,o),
(340,485,cs),
(340,120,l),
(340,120,o),
(290,60,o),
(220,60,cs),
(140,60,o),
(140,125,o),
(140,200,cs)
);
}
);
width = 475;
}
);
unicode = 252;
},
{
glyphname = ugrave;
layers = (
{
layerId = "B909A847-908A-4B08-AB88-1EC2F75AB3CA";
name = Regular;
shapes = (
{
closed = 1;
nodes = (
(307,587,ls),
(316,582,o),
(323,584,o),
(328,592,cs),
(344,619,ls),
(349,628,o),
(348,635,o),
(340,640,cs),
(197,732,ls),
(189,737,o),
(181,735,o),
(176,727,c),
(154,688,l),
(150,680,o),
(152,672,o),
(160,668,c)
);
},
{
closed = 1;
nodes = (
(140,488,ls),
(140,499,o),
(134,504,o),
(124,502,cs),
(73,493,l),
(64,491,o),
(60,485,o),
(60,476,cs),
(60,200,ls),
(60,100,o),
(60,-10,o),
(200,-10,cs),
(251,-10,o),
(310,10,o),
(350,60,c),
(358,26,o),
(381,3,o),
(403,-3,c),
(411,-6,o),
(417,-2,o),
(422,5,c),
(446,42,l),
(452,50,o),
(450,57,o),
(441,62,c),
(407,84,o),
(415,127,o),
(415,275,cs),
(415,485,ls),
(415,495,o),
(410,500,o),
(400,500,cs),
(355,500,ls),
(345,500,o),
(340,495,o),
(340,485,cs),
(340,120,l),
(340,120,o),
(290,60,o),
(220,60,cs),
(140,60,o),
(140,125,o),
(140,200,cs)
);
}
);
width = 475;
}
);
unicode = 249;
},
{
glyphname = v;
layers = (
{
layerId = "B909A847-908A-4B08-AB88-1EC2F75AB3CA";
name = Regular;
shapes = (
{
closed = 1;
nodes = (
(26,493,ls),
(16,491,o),
(12,484,o),
(16,474,cs),
(183,12,ls),
(186,4,o),
(191,0,o),
(200,0,cs),
(260,0,ls),
(269,0,o),
(274,4,o),
(277,12,cs),
(445,483,l),
(449,493,o),
(444,500,o),
(433,500,cs),
(373,500,ls),
(364,500,o),
(359,496,o),
(356,488,c),
(230,85,l),
(104,492,l),
(101,500,o),
(95,504,o),
(86,503,c)
);
}
);
width = 461;
}
);
unicode = 118;
},
{
glyphname = w;
lastChange = "2024-12-23 18:44:44 +0000";
layers = (
{
anchors = (
{
name = bottom;
pos = (336,0);
},
{
name = top;
pos = (336,500);
}
);
layerId = "B909A847-908A-4B08-AB88-1EC2F75AB3CA";
name = Regular;
shapes = (
{
closed = 1;
nodes = (
(306,500,l),
(366,500,l),
(461,123,ls),
(465,108,o),
(476,109,o),
(480,123,c),
(566,500,l),
(646,500,l),
(514,0,l),
(428,0,l),
(345,294,ls),
(341,308,o),
(330,308,o),
(326,294,cs),
(239,0,l),
(153,0,l),
(25,490,l),
(106,505,l),
(188,123,ls),
(191,109,o),
(202,108,o),
(206,123,cs)
);
}
);
width = 671;
}
);
unicode = 119;
},
{
glyphname = x;
layers = (
{
layerId = "B909A847-908A-4B08-AB88-1EC2F75AB3CA";
name = Regular;
shapes = (
{
closed = 1;
nodes = (
(115,0,l),
(25,0,l),
(175,240,l),
(180,247,o),
(180,253,o),
(175,260,c),
(25,490,l),
(115,505,l),
(220,323,ls),
(226,313,o),
(234,312,o),
(240,323,c),
(345,500,l),
(435,500,l),
(285,260,l),
(280,253,o),
(280,247,o),
(285,240,c),
(435,0,l),
(345,0,l),
(240,177,l),
(234,188,o),
(226,188,o),
(220,177,c)
);
}
);
width = 460;
}
);
unicode = 120;
},
{
glyphname = y;
lastChange = "2024-12-23 18:46:39 +0000";
layers = (
{
anchors = (
{
name = bottom;
pos = (231,0);
},
{
name = top;
pos = (231,500);
}
);
layerId = "B909A847-908A-4B08-AB88-1EC2F75AB3CA";
name = Regular;
shapes = (
{
closed = 1;
nodes = (
(26,493,ls),
(16,491,o),
(12,484,o),
(16,474,cs),
(191,-10,l),
(153,-97,o),
(125,-130,o),
(77,-117,c),
(68,-114,o),
(62,-116,o),
(58,-125,cs),
(43,-156,ls),
(39,-165,o),
(42,-173,o),
(51,-177,cs),
(203,-241,o),
(273,0,o),
(273,0,c),
(445,483,l),
(449,493,o),
(444,500,o),
(433,500,cs),
(373,500,ls),
(364,500,o),
(359,496,o),
(356,488,c),
(230,85,l),
(104,492,l),
(101,500,o),
(95,504,o),
(86,503,c)
);
}
);
width = 461;
}
);
unicode = 121;
},
{
glyphname = yacute;
layers = (
{
layerId = "B909A847-908A-4B08-AB88-1EC2F75AB3CA";
name = Regular;
shapes = (
{
closed = 1;
nodes = (
(306,740,l),
(343,675,l),
(170,580,l),
(138,632,l)
);
},
{
closed = 1;
nodes = (
(28,500,ls),
(17,500,o),
(12,493,o),
(16,483,c),
(191,-10,l),
(153,-97,o),
(125,-130,o),
(77,-117,c),
(68,-114,o),
(62,-116,o),
(58,-125,cs),
(43,-156,ls),
(39,-165,o),
(42,-173,o),
(51,-177,cs),
(203,-241,o),
(273,0,o),
(273,0,c),
(445,483,l),
(449,493,o),
(444,500,o),
(433,500,cs),
(373,500,ls),
(364,500,o),
(359,496,o),
(356,488,c),
(230,85,l),
(104,488,l),
(101,496,o),
(96,500,o),
(87,500,cs)
);
}
);
width = 461;
}
);
unicode = 253;
},
{
glyphname = ydieresis;
layers = (
{
layerId = "B909A847-908A-4B08-AB88-1EC2F75AB3CA";
name = Regular;
shapes = (
{
closed = 1;
nodes = (
(110,626,o),
(131,605,o),
(157,605,cs),
(183,605,o),
(205,626,o),
(205,652,cs),
(205,678,o),
(183,700,o),
(157,700,cs),
(131,700,o),
(110,678,o),
(110,652,cs)
);
},
{
closed = 1;
nodes = (
(255,626,o),
(276,605,o),
(302,605,cs),
(328,605,o),
(350,626,o),
(350,652,cs),
(350,678,o),
(328,700,o),
(302,700,cs),
(276,700,o),
(255,678,o),
(255,652,cs)
);
},
{
closed = 1;
nodes = (
(28,500,ls),
(17,500,o),
(12,493,o),
(16,483,c),
(191,-10,l),
(153,-97,o),
(125,-130,o),
(77,-117,c),
(68,-114,o),
(62,-116,o),
(58,-125,cs),
(43,-156,ls),
(39,-165,o),
(42,-173,o),
(51,-177,cs),
(203,-241,o),
(273,0,o),
(273,0,c),
(445,483,l),
(449,493,o),
(444,500,o),
(433,500,cs),
(373,500,ls),
(364,500,o),
(359,496,o),
(356,488,c),
(230,85,l),
(104,488,l),
(101,496,o),
(96,500,o),
(87,500,cs)
);
}
);
width = 461;
}
);
unicode = 255;
},
{
glyphname = z;
lastChange = "2024-12-23 21:16:17 +0000";
layers = (
{
anchors = (
{
name = bottom;
pos = (228,0);
},
{
name = center;
pos = (228,250);
},
{
name = top;
pos = (228,500);
}
);
layerId = "B909A847-908A-4B08-AB88-1EC2F75AB3CA";
name = Regular;
shapes = (
{
closed = 1;
nodes = (
(74,500,ls),
(65,500,o),
(59,496,o),
(57,487,cs),
(49,446,l),
(46,436,o),
(51,430,o),
(62,430,cs),
(300,430,l),
(41,59,ls),
(37,53,o),
(36,47,o),
(38,39,c),
(46,13,ls),
(49,4,o),
(54,0,o),
(63,0,cs),
(386,0,ls),
(395,0,o),
(401,4,o),
(403,13,cs),
(411,54,l),
(414,64,o),
(409,70,o),
(398,70,cs),
(148,70,l),
(404,441,ls),
(408,447,o),
(409,453,o),
(407,461,c),
(399,487,ls),
(396,496,o),
(391,500,o),
(382,500,cs)
);
}
);
width = 455;
}
);
unicode = 122;
},
{
glyphname = zcaron;
layers = (
{
layerId = "B909A847-908A-4B08-AB88-1EC2F75AB3CA";
name = Regular;
shapes = (
{
closed = 1;
nodes = (
(226,555,l),
(106,665,l),
(136,700,l),
(215,638,l),
(223,633,o),
(229,633,o),
(237,638,c),
(316,700,l),
(346,665,l)
);
},
{
closed = 1;
nodes = (
(65,500,ls),
(55,500,o),
(50,495,o),
(50,485,cs),
(50,440,ls),
(50,430,o),
(55,425,o),
(65,425,cs),
(300,425,l),
(41,58,ls),
(37,52,o),
(35,47,o),
(35,40,cs),
(35,15,ls),
(35,5,o),
(40,0,o),
(50,0,cs),
(386,0,ls),
(395,0,o),
(401,4,o),
(403,13,cs),
(412,59,ls),
(414,69,o),
(409,75,o),
(398,75,cs),
(148,75,l),
(404,442,ls),
(408,448,o),
(410,453,o),
(410,460,cs),
(410,485,ls),
(410,495,o),
(405,500,o),
(395,500,cs)
);
}
);
width = 455;
}
);
unicode = 382;
},
{
glyphname = a.salt;
lastChange = "2023-01-02 23:33:09 +0000";
layers = (
{
layerId = "B909A847-908A-4B08-AB88-1EC2F75AB3CA";
name = Regular;
shapes = (
{
closed = 1;
nodes = (
(360,60,l),
(369,26,o),
(389,2,o),
(413,-4,cs),
(421,-6,o),
(427,-2,o),
(432,5,c),
(456,42,l),
(462,50,o),
(460,57,o),
(451,62,c),
(417,84,o),
(425,126,o),
(425,275,cs),
(425,439,ls),
(425,447,o),
(422,452,o),
(416,457,c),
(392,472,o),
(327,510,o),
(240,510,cs),
(90,510,o),
(30,380,o),
(30,250,cs),
(30,120,o),
(60,-10,o),
(210,-10,cs),
(260,-10,o),
(311,11,o),
(350,50,cs)
);
},
{
closed = 1;
nodes = (
(130,60,o),
(110,152,o),
(110,250,cs),
(110,348,o),
(140,440,o),
(240,440,cs),
(310,440,o),
(350,410,o),
(350,410,c),
(350,120,l),
(350,120,o),
(300,60,o),
(230,60,cs)
);
}
);
width = 485;
}
);
},
{
glyphname = g.salt;
lastChange = "2023-01-02 23:33:16 +0000";
layers = (
{
layerId = "B909A847-908A-4B08-AB88-1EC2F75AB3CA";
name = Regular;
shapes = (
{
closed = 1;
nodes = (
(350,20,ls),
(350,-75,o),
(330,-145,o),
(230,-145,cs),
(186,-145,o),
(154,-131,o),
(130,-119,c),
(122,-114,o),
(115,-117,o),
(111,-126,cs),
(96,-157,ls),
(92,-165,o),
(94,-173,o),
(103,-177,c),
(134,-193,o),
(182,-210,o),
(230,-210,cs),
(390,-210,o),
(425,-100,o),
(425,50,cs),
(425,439,ls),
(425,447,o),
(422,452,o),
(416,457,c),
(392,472,o),
(327,510,o),
(240,510,cs),
(90,510,o),
(30,380,o),
(30,250,cs),
(30,120,o),
(60,-10,o),
(210,-10,cs),
(260,-10,o),
(310,10,o),
(350,50,c)
);
},
{
closed = 1;
nodes = (
(130,60,o),
(110,152,o),
(110,250,cs),
(110,348,o),
(140,440,o),
(240,440,cs),
(310,440,o),
(350,410,o),
(350,410,c),
(350,120,l),
(350,120,o),
(300,60,o),
(230,60,cs)
);
}
);
width = 495;
}
);
},
{
glyphname = f_f;
layers = (
{
layerId = "B909A847-908A-4B08-AB88-1EC2F75AB3CA";
name = Regular;
shapes = (
{
closed = 1;
nodes = (
(10,450,ls),
(10,440,o),
(15,435,o),
(25,435,cs),
(85,435,l),
(85,15,ls),
(85,5,o),
(90,0,o),
(100,0,cs),
(145,0,ls),
(155,0,o),
(160,5,o),
(160,15,cs),
(160,435,l),
(350,435,l),
(350,15,ls),
(350,5,o),
(355,0,o),
(365,0,cs),
(410,0,ls),
(420,0,o),
(425,5,o),
(425,15,cs),
(425,435,l),
(532,435,ls),
(541,435,o),
(546,439,o),
(548,448,cs),
(556,483,l),
(559,494,o),
(554,500,o),
(543,500,cs),
(424,500,l),
(422,577,o),
(424,640,o),
(490,640,cs),
(515,640,o),
(537,629,o),
(550,621,c),
(559,616,o),
(566,617,o),
(570,626,c),
(588,662,l),
(593,671,o),
(591,678,o),
(583,683,c),
(565,693,o),
(529,710,o),
(490,710,cs),
(439,710,o),
(407,695,o),
(386,671,c),
(354,688,o),
(301,710,o),
(235,710,cs),
(113,710,o),
(85,611,o),
(85,500,c),
(25,500,ls),
(15,500,o),
(10,495,o),
(10,485,cs)
);
},
{
closed = 1;
nodes = (
(159,500,l),
(159,612,o),
(194,640,o),
(265,640,cs),
(298,640,o),
(333,625,o),
(359,612,c),
(351,579,o),
(350,540,o),
(350,500,c)
);
}
);
width = 575;
}
);
},
{
glyphname = f_f_i;
layers = (
{
layerId = "B909A847-908A-4B08-AB88-1EC2F75AB3CA";
name = Regular;
shapes = (
{
closed = 1;
nodes = (
(160,435,l),
(350,435,l),
(350,15,ls),
(350,5,o),
(355,0,o),
(365,0,cs),
(410,0,ls),
(420,0,o),
(425,5,o),
(425,15,cs),
(425,435,l),
(532,435,ls),
(541,435,o),
(546,439,o),
(548,448,cs),
(556,483,l),
(559,494,o),
(554,500,o),
(543,500,cs),
(424,500,l),
(424,612,o),
(459,640,o),
(530,640,cs),
(571,640,o),
(614,618,o),
(640,604,cs),
(649,599,o),
(656,601,o),
(660,609,c),
(677,637,l),
(682,646,o),
(681,653,o),
(673,658,cs),
(647,675,o),
(585,710,o),
(500,710,cs),
(450,710,o),
(416,694,o),
(393,667,c),
(362,684,o),
(306,710,o),
(235,710,cs),
(113,710,o),
(85,611,o),
(85,500,c),
(25,500,ls),
(15,500,o),
(10,495,o),
(10,485,cs),
(10,450,ls),
(10,440,o),
(15,435,o),
(25,435,cs),
(85,435,l),
(85,15,ls),
(85,5,o),
(90,0,o),
(100,0,cs),
(145,0,ls),
(155,0,o),
(160,5,o),
(160,15,cs)
);
},
{
closed = 1;
nodes = (
(300,640,o),
(337,623,o),
(363,610,c),
(353,577,o),
(350,539,o),
(350,500,c),
(159,500,l),
(159,612,o),
(194,640,o),
(265,640,cs)
);
},
{
closed = 1;
nodes = (
(680,0,ls),
(690,0,o),
(695,5,o),
(695,15,cs),
(695,488,ls),
(695,499,o),
(689,504,o),
(679,502,cs),
(633,493,ls),
(624,491,o),
(620,485,o),
(620,476,cs),
(620,15,ls),
(620,5,o),
(625,0,o),
(635,0,cs)
);
}
);
width = 775;
}
);
},
{
glyphname = f_f_j;
layers = (
{
layerId = "B909A847-908A-4B08-AB88-1EC2F75AB3CA";
name = Regular;
shapes = (
{
closed = 1;
nodes = (
(160,435,l),
(350,435,l),
(350,15,ls),
(350,5,o),
(355,0,o),
(365,0,cs),
(410,0,ls),
(420,0,o),
(425,5,o),
(425,15,cs),
(425,435,l),
(532,435,ls),
(541,435,o),
(546,439,o),
(548,448,cs),
(556,483,l),
(559,494,o),
(554,500,o),
(543,500,cs),
(424,500,l),
(424,612,o),
(459,640,o),
(530,640,cs),
(571,640,o),
(614,618,o),
(640,604,cs),
(649,599,o),
(656,601,o),
(660,609,c),
(677,637,l),
(682,646,o),
(681,653,o),
(673,658,cs),
(647,675,o),
(585,710,o),
(500,710,cs),
(450,710,o),
(416,694,o),
(393,667,c),
(362,684,o),
(306,710,o),
(235,710,cs),
(113,710,o),
(85,611,o),
(85,500,c),
(25,500,ls),
(15,500,o),
(10,495,o),
(10,485,cs),
(10,450,ls),
(10,440,o),
(15,435,o),
(25,435,cs),
(85,435,l),
(85,15,ls),
(85,5,o),
(90,0,o),
(100,0,cs),
(145,0,ls),
(155,0,o),
(160,5,o),
(160,15,cs)
);
},
{
closed = 1;
nodes = (
(300,640,o),
(337,623,o),
(363,610,c),
(353,577,o),
(350,539,o),
(350,500,c),
(159,500,l),
(159,612,o),
(194,640,o),
(265,640,cs)
);
},
{
closed = 1;
nodes = (
(620,-3,ls),
(620,-87,o),
(621,-145,o),
(582,-145,cs),
(580,-145,o),
(577,-145,o),
(575,-144,c),
(570,-144,o),
(567,-148,o),
(564,-157,c),
(556,-190,l),
(553,-199,o),
(556,-206,o),
(565,-209,c),
(574,-211,o),
(587,-213,o),
(605,-213,cs),
(695,-213,o),
(695,-114,o),
(695,-3,cs),
(695,488,ls),
(695,499,o),
(689,504,o),
(679,502,cs),
(633,493,ls),
(624,491,o),
(620,485,o),
(620,476,cs)
);
}
);
width = 775;
}
);
},
{
glyphname = f_f_l;
layers = (
{
layerId = "B909A847-908A-4B08-AB88-1EC2F75AB3CA";
name = Regular;
shapes = (
{
closed = 1;
nodes = (
(10,450,ls),
(10,440,o),
(15,435,o),
(25,435,cs),
(85,435,l),
(85,15,ls),
(85,5,o),
(90,0,o),
(100,0,cs),
(145,0,ls),
(155,0,o),
(160,5,o),
(160,15,cs),
(160,435,l),
(345,435,l),
(345,15,ls),
(345,5,o),
(350,0,o),
(360,0,cs),
(405,0,ls),
(415,0,o),
(420,5,o),
(420,15,cs),
(420,435,l),
(527,435,ls),
(536,435,o),
(541,439,o),
(543,448,cs),
(551,483,l),
(554,494,o),
(549,500,o),
(538,500,cs),
(420,500,l),
(420,510,ls),
(422,603,o),
(452,640,o),
(522,640,cs),
(547,640,o),
(580,634,o),
(620,634,c),
(620,200,ls),
(620,89,o),
(620,-10,o),
(710,-10,cs),
(728,-10,o),
(741,-8,o),
(750,-6,c),
(759,-3,o),
(762,4,o),
(759,13,c),
(751,46,l),
(748,55,o),
(733,58,o),
(733,58,cs),
(694,58,o),
(695,116,o),
(695,200,cs),
(695,686,ls),
(695,696,o),
(689,701,o),
(679,699,c),
(615,691,o),
(584,710,o),
(522,710,cs),
(468,710,o),
(428,692,o),
(401,662,c),
(372,680,o),
(313,710,o),
(235,710,cs),
(113,710,o),
(85,611,o),
(85,500,c),
(25,500,ls),
(15,500,o),
(10,495,o),
(10,485,cs)
);
},
{
closed = 1;
nodes = (
(159,500,l),
(159,612,o),
(194,640,o),
(265,640,cs),
(302,640,o),
(340,622,o),
(367,608,c),
(354,576,o),
(348,540,o),
(346,500,c)
);
}
);
width = 798;
}
);
},
{
glyphname = f_j;
layers = (
{
layerId = "B909A847-908A-4B08-AB88-1EC2F75AB3CA";
name = Regular;
shapes = (
{
closed = 1;
nodes = (
(0,450,ls),
(0,440,o),
(5,435,o),
(15,435,cs),
(75,435,l),
(75,15,ls),
(75,5,o),
(80,0,o),
(90,0,cs),
(135,0,ls),
(145,0,o),
(150,5,o),
(150,15,cs),
(150,435,l),
(257,435,ls),
(266,435,o),
(271,439,o),
(273,448,cs),
(281,483,l),
(284,494,o),
(279,500,o),
(268,500,cs),
(149,500,l),
(149,612,o),
(184,640,o),
(255,640,cs),
(296,640,o),
(339,618,o),
(365,604,cs),
(374,599,o),
(381,601,o),
(385,609,c),
(402,637,l),
(407,646,o),
(406,653,o),
(398,658,cs),
(372,675,o),
(310,710,o),
(225,710,cs),
(103,710,o),
(75,611,o),
(75,500,c),
(15,500,ls),
(5,500,o),
(0,495,o),
(0,485,cs)
);
},
{
closed = 1;
nodes = (
(345,-3,ls),
(345,-87,o),
(346,-145,o),
(307,-145,cs),
(305,-145,o),
(302,-145,o),
(300,-144,c),
(295,-144,o),
(292,-148,o),
(289,-157,c),
(281,-190,l),
(278,-199,o),
(281,-206,o),
(290,-209,c),
(299,-211,o),
(312,-213,o),
(330,-213,cs),
(420,-213,o),
(420,-114,o),
(420,-3,cs),
(420,488,ls),
(420,499,o),
(414,504,o),
(404,502,cs),
(358,493,ls),
(349,491,o),
(345,485,o),
(345,476,cs)
);
}
);
width = 500;
}
);
},
{
glyphname = fi;
layers = (
{
layerId = "B909A847-908A-4B08-AB88-1EC2F75AB3CA";
name = Regular;
shapes = (
{
closed = 1;
nodes = (
(10,450,ls),
(10,440,o),
(15,435,o),
(25,435,cs),
(85,435,l),
(85,15,ls),
(85,5,o),
(90,0,o),
(100,0,cs),
(145,0,ls),
(155,0,o),
(160,5,o),
(160,15,cs),
(160,435,l),
(267,435,ls),
(276,435,o),
(281,439,o),
(283,448,cs),
(291,483,l),
(294,494,o),
(289,500,o),
(278,500,cs),
(159,500,l),
(159,612,o),
(194,640,o),
(265,640,cs),
(306,640,o),
(349,618,o),
(375,604,cs),
(384,599,o),
(391,601,o),
(395,609,c),
(412,637,l),
(417,646,o),
(416,653,o),
(408,658,cs),
(382,675,o),
(320,710,o),
(235,710,cs),
(113,710,o),
(85,611,o),
(85,500,c),
(25,500,ls),
(15,500,o),
(10,495,o),
(10,485,cs)
);
},
{
closed = 1;
nodes = (
(415,0,ls),
(425,0,o),
(430,5,o),
(430,15,cs),
(430,488,ls),
(430,499,o),
(424,504,o),
(414,502,cs),
(368,493,ls),
(359,491,o),
(355,485,o),
(355,476,cs),
(355,15,ls),
(355,5,o),
(360,0,o),
(370,0,cs)
);
}
);
width = 510;
}
);
unicode = 64257;
},
{
glyphname = fl;
layers = (
{
layerId = "B909A847-908A-4B08-AB88-1EC2F75AB3CA";
name = Regular;
shapes = (
{
closed = 1;
nodes = (
(434,58,o),
(435,116,o),
(435,200,cs),
(435,686,ls),
(435,696,o),
(429,701,o),
(419,699,c),
(355,691,o),
(324,710,o),
(262,710,cs),
(138,710,o),
(92,618,o),
(86,500,c),
(25,500,ls),
(15,500,o),
(10,495,o),
(10,485,cs),
(10,450,ls),
(10,440,o),
(15,435,o),
(25,435,cs),
(85,435,l),
(85,15,ls),
(85,5,o),
(90,0,o),
(100,0,cs),
(145,0,ls),
(155,0,o),
(160,5,o),
(160,15,cs),
(160,435,l),
(267,435,ls),
(276,435,o),
(281,439,o),
(283,448,cs),
(291,483,l),
(294,494,o),
(289,500,o),
(278,500,cs),
(160,500,l),
(160,510,ls),
(162,603,o),
(192,640,o),
(262,640,cs),
(287,640,o),
(320,634,o),
(360,634,c),
(360,200,ls),
(360,89,o),
(360,-10,o),
(450,-10,cs),
(468,-10,o),
(481,-8,o),
(490,-6,c),
(499,-3,o),
(502,4,o),
(499,13,c),
(491,46,l),
(488,55,o),
(473,58,o),
(473,58,cs)
);
}
);
width = 538;
}
);
unicode = 64258;
},
{
glyphname = mu;
layers = (
{
layerId = "B909A847-908A-4B08-AB88-1EC2F75AB3CA";
name = Regular;
shapes = (
{
closed = 1;
nodes = (
(140,488,ls),
(140,499,o),
(134,504,o),
(124,502,cs),
(73,493,l),
(64,491,o),
(60,485,o),
(60,476,cs),
(60,-176,ls),
(60,-185,o),
(65,-191,o),
(74,-192,c),
(124,-200,l),
(134,-201,o),
(140,-196,o),
(140,-186,cs),
(140,19,l),
(156,-7,o),
(176,-10,o),
(200,-10,cs),
(251,-10,o),
(310,10,o),
(350,60,c),
(358,26,o),
(381,3,o),
(403,-3,c),
(411,-6,o),
(417,-2,o),
(422,5,c),
(446,42,l),
(452,50,o),
(450,57,o),
(441,62,c),
(407,84,o),
(415,127,o),
(415,275,cs),
(415,485,ls),
(415,495,o),
(410,500,o),
(400,500,cs),
(355,500,ls),
(345,500,o),
(340,495,o),
(340,485,cs),
(340,120,l),
(340,120,o),
(290,60,o),
(220,60,cs),
(140,60,o),
(140,125,o),
(140,200,cs)
);
}
);
width = 475;
}
);
unicode = 956;
},
{
glyphname = zero;
layers = (
{
layerId = "B909A847-908A-4B08-AB88-1EC2F75AB3CA";
name = Regular;
shapes = (
{
closed = 1;
nodes = (
(40,120,o),
(130,-10,o),
(280,-10,cs),
(430,-10,o),
(515,120,o),
(515,300,cs),
(515,480,o),
(430,610,o),
(280,610,cs),
(130,610,o),
(40,480,o),
(40,300,cs)
);
},
{
closed = 1;
nodes = (
(120,448,o),
(175,540,o),
(280,540,cs),
(385,540,o),
(435,448,o),
(435,300,cs),
(435,152,o),
(385,60,o),
(280,60,cs),
(175,60,o),
(120,152,o),
(120,300,cs)
);
}
);
width = 555;
}
);
unicode = 48;
},
{
glyphname = one;
layers = (
{
layerId = "B909A847-908A-4B08-AB88-1EC2F75AB3CA";
name = Regular;
shapes = (
{
closed = 1;
nodes = (
(55,15,ls),
(55,5,o),
(60,0,o),
(70,0,cs),
(390,0,ls),
(400,0,o),
(405,5,o),
(405,15,cs),
(405,55,ls),
(405,65,o),
(400,70,o),
(390,70,cs),
(268,70,l),
(268,585,ls),
(268,595,o),
(263,600,o),
(253,600,cs),
(223,600,ls),
(216,600,o),
(211,599,o),
(204,596,cs),
(43,521,ls),
(35,517,o),
(32,510,o),
(36,501,cs),
(49,469,ls),
(53,460,o),
(60,457,o),
(69,460,cs),
(193,505,l),
(193,70,l),
(70,70,ls),
(60,70,o),
(55,65,o),
(55,55,cs)
);
}
);
width = 435;
}
);
unicode = 49;
},
{
glyphname = two;
layers = (
{
layerId = "B909A847-908A-4B08-AB88-1EC2F75AB3CA";
name = Regular;
shapes = (
{
closed = 1;
nodes = (
(30,15,ls),
(30,5,o),
(35,0,o),
(45,0,cs),
(432,0,ls),
(442,0,o),
(447,5,o),
(447,15,cs),
(447,55,ls),
(447,65,o),
(442,70,o),
(432,70,cs),
(117,70,l),
(157,183,o),
(448,229,o),
(448,402,cs),
(448,522,o),
(373,610,o),
(210,610,cs),
(147,610,o),
(91,594,o),
(42,566,c),
(34,562,o),
(32,555,o),
(36,546,cs),
(54,508,ls),
(58,500,o),
(65,497,o),
(74,501,cs),
(116,519,o),
(158,535,o),
(210,535,cs),
(303,535,o),
(358,483,o),
(358,402,cs),
(358,256,o),
(30,230,o),
(30,35,cs)
);
}
);
width = 488;
}
);
unicode = 50;
},
{
glyphname = three;
layers = (
{
layerId = "B909A847-908A-4B08-AB88-1EC2F75AB3CA";
name = Regular;
shapes = (
{
closed = 1;
nodes = (
(118,-2,o),
(89,3,o),
(61,12,c),
(54,15,o),
(48,12,o),
(44,3,cs),
(26,-36,ls),
(22,-45,o),
(25,-52,o),
(34,-56,c),
(71,-69,o),
(112,-77,o),
(155,-77,cs),
(362,-77,o),
(415,27,o),
(415,132,cs),
(415,199,o),
(386,260,o),
(291,297,c),
(349,311,o),
(390,374,o),
(390,424,cs),
(390,517,o),
(332,610,o),
(155,610,cs),
(112,610,o),
(71,602,o),
(34,588,c),
(25,584,o),
(22,577,o),
(26,568,cs),
(44,530,ls),
(48,521,o),
(54,519,o),
(63,521,c),
(90,530,o),
(119,535,o),
(155,535,cs),
(269,535,o),
(305,479,o),
(305,424,cs),
(305,372,o),
(269,331,o),
(155,331,cs),
(115,331,ls),
(105,331,o),
(100,326,o),
(100,316,cs),
(100,280,ls),
(100,270,o),
(105,265,o),
(115,265,cs),
(155,265,ls),
(294,265,o),
(330,196,o),
(330,132,cs),
(330,65,o),
(294,-2,o),
(155,-2,cs)
);
}
);
width = 455;
}
);
unicode = 51;
},
{
glyphname = four;
layers = (
{
layerId = "B909A847-908A-4B08-AB88-1EC2F75AB3CA";
name = Regular;
shapes = (
{
closed = 1;
nodes = (
(6,178,ls),
(2,172,o),
(0,167,o),
(0,160,cs),
(0,125,ls),
(0,115,o),
(5,110,o),
(15,110,cs),
(315,110,l),
(315,-52,ls),
(315,-62,o),
(320,-67,o),
(330,-67,cs),
(370,-67,ls),
(380,-67,o),
(385,-62,o),
(385,-52,cs),
(385,110,l),
(455,110,ls),
(465,110,o),
(470,115,o),
(470,125,cs),
(470,165,ls),
(470,175,o),
(465,180,o),
(455,180,cs),
(385,180,l),
(385,595,ls),
(385,605,o),
(380,610,o),
(370,610,cs),
(326,610,ls),
(318,610,o),
(313,607,o),
(308,601,c)
);
},
{
closed = 1;
nodes = (
(315,480,l),
(315,180,l),
(95,180,l)
);
}
);
width = 500;
}
);
unicode = 52;
},
{
glyphname = five;
layers = (
{
layerId = "B909A847-908A-4B08-AB88-1EC2F75AB3CA";
name = Regular;
shapes = (
{
closed = 1;
nodes = (
(372,-78,o),
(440,48,o),
(440,146,cs),
(440,244,o),
(395,369,o),
(165,369,cs),
(140,369,o),
(110,362,o),
(110,362,c),
(110,529,l),
(380,529,ls),
(390,529,o),
(395,534,o),
(395,544,cs),
(395,584,ls),
(395,594,o),
(390,599,o),
(380,599,cs),
(60,599,ls),
(50,599,o),
(45,594,o),
(45,584,cs),
(45,296,ls),
(45,285,o),
(51,280,o),
(62,283,cs),
(88,290,o),
(128,297,o),
(165,297,cs),
(314,297,o),
(356,213,o),
(356,148,cs),
(356,83,o),
(314,-8,o),
(165,-8,cs),
(134,-8,o),
(104,-1,o),
(75,10,c),
(66,14,o),
(59,11,o),
(55,3,cs),
(36,-37,ls),
(32,-46,o),
(35,-53,o),
(44,-57,c),
(81,-70,o),
(122,-78,o),
(165,-78,cs)
);
}
);
width = 470;
}
);
unicode = 53;
},
{
glyphname = six;
layers = (
{
layerId = "B909A847-908A-4B08-AB88-1EC2F75AB3CA";
name = Regular;
shapes = (
{
closed = 1;
nodes = (
(40,120,o),
(105,-10,o),
(255,-10,cs),
(405,-10,o),
(465,105,o),
(465,200,cs),
(465,295,o),
(405,410,o),
(255,410,cs),
(214,410,o),
(147,393,o),
(115,334,c),
(145,555,o),
(247,608,o),
(370,612,cs),
(380,612,o),
(385,617,o),
(385,627,cs),
(385,662,ls),
(385,672,o),
(380,677,o),
(369,677,cs),
(79,668,o),
(40,407,o),
(40,250,cs)
);
},
{
closed = 1;
nodes = (
(125,260,o),
(155,340,o),
(255,340,cs),
(355,340,o),
(385,260,o),
(385,200,cs),
(385,140,o),
(355,60,o),
(255,60,cs),
(155,60,o),
(125,140,o),
(125,200,cs)
);
}
);
width = 495;
}
);
unicode = 54;
},
{
glyphname = seven;
layers = (
{
layerId = "B909A847-908A-4B08-AB88-1EC2F75AB3CA";
name = Regular;
shapes = (
{
closed = 1;
nodes = (
(396,526,ls),
(399,533,o),
(400,538,o),
(400,545,cs),
(400,585,ls),
(400,595,o),
(395,600,o),
(385,600,cs),
(35,600,ls),
(25,600,o),
(20,595,o),
(20,585,cs),
(20,540,ls),
(20,530,o),
(25,525,o),
(35,525,cs),
(320,525,l),
(76,-33,ls),
(72,-42,o),
(75,-49,o),
(84,-53,c),
(131,-71,l),
(140,-75,o),
(147,-72,o),
(151,-63,cs)
);
}
);
width = 425;
}
);
unicode = 55;
},
{
glyphname = eight;
layers = (
{
layerId = "B909A847-908A-4B08-AB88-1EC2F75AB3CA";
name = Regular;
shapes = (
{
closed = 1;
nodes = (
(65,454,o),
(90,398,o),
(159,364,c),
(79,328,o),
(40,261,o),
(40,190,cs),
(40,87,o),
(100,-10,o),
(250,-10,cs),
(400,-10,o),
(460,87,o),
(460,190,cs),
(460,262,o),
(420,329,o),
(340,365,c),
(408,398,o),
(434,454,o),
(434,502,cs),
(434,580,o),
(388,677,o),
(250,677,cs),
(111,677,o),
(65,580,o),
(65,502,cs)
);
},
{
closed = 1;
nodes = (
(138,554,o),
(166,608,o),
(250,608,cs),
(333,608,o),
(361,554,o),
(361,502,cs),
(361,451,o),
(333,396,o),
(250,396,cs),
(166,396,o),
(138,451,o),
(138,502,cs)
);
},
{
closed = 1;
nodes = (
(120,260,o),
(160,326,o),
(250,326,cs),
(340,326,o),
(380,260,o),
(380,190,cs),
(380,121,o),
(345,60,o),
(250,60,cs),
(154,60,o),
(120,121,o),
(120,190,cs)
);
}
);
width = 500;
}
);
unicode = 56;
},
{
glyphname = nine;
layers = (
{
layerId = "B909A847-908A-4B08-AB88-1EC2F75AB3CA";
name = Regular;
shapes = (
{
closed = 1;
nodes = (
(445,480,o),
(380,610,o),
(230,610,cs),
(80,610,o),
(20,495,o),
(20,400,cs),
(20,305,o),
(80,190,o),
(230,190,cs),
(271,190,o),
(338,207,o),
(370,266,c),
(340,45,o),
(238,-8,o),
(115,-12,cs),
(105,-12,o),
(100,-17,o),
(100,-27,cs),
(100,-62,ls),
(100,-72,o),
(105,-77,o),
(116,-77,cs),
(406,-68,o),
(445,193,o),
(445,350,cs)
);
},
{
closed = 1;
nodes = (
(360,340,o),
(330,260,o),
(230,260,cs),
(130,260,o),
(100,340,o),
(100,400,cs),
(100,460,o),
(130,540,o),
(230,540,cs),
(330,540,o),
(360,460,o),
(360,400,cs)
);
}
);
width = 485;
}
);
unicode = 57;
},
{
glyphname = fraction;
layers = (
{
layerId = "B909A847-908A-4B08-AB88-1EC2F75AB3CA";
name = Regular;
shapes = (
{
closed = 1;
nodes = (
(16,13,ls),
(12,5,o),
(15,-2,o),
(23,-7,c),
(51,-21,l),
(60,-26,o),
(67,-23,o),
(72,-14,c),
(409,687,ls),
(413,695,o),
(410,702,o),
(402,707,c),
(374,721,l),
(365,726,o),
(358,723,o),
(353,714,c)
);
}
);
width = 425;
}
);
unicode = 8260;
},
{
glyphname = onehalf;
layers = (
{
layerId = "B909A847-908A-4B08-AB88-1EC2F75AB3CA";
name = Regular;
shapes = (
{
closed = 1;
nodes = (
(199,11,l),
(195,2,o),
(196,-5,o),
(204,-10,cs),
(231,-28,ls),
(239,-33,o),
(247,-31,o),
(252,-23,cs),
(650,651,l),
(654,660,o),
(653,667,o),
(645,672,cs),
(618,690,ls),
(610,695,o),
(602,693,o),
(597,685,cs)
);
},
{
closed = 1;
nodes = (
(99,345,ls),
(99,335,o),
(104,330,o),
(114,330,cs),
(329,330,ls),
(339,330,o),
(344,335,o),
(344,345,cs),
(344,375,ls),
(344,385,o),
(339,390,o),
(329,390,cs),
(257,390,l),
(257,665,ls),
(257,675,o),
(252,680,o),
(242,680,cs),
(211,680,ls),
(204,680,o),
(199,679,o),
(192,676,cs),
(93,630,ls),
(85,626,o),
(82,619,o),
(86,610,cs),
(97,584,l),
(101,576,o),
(108,573,o),
(117,576,c),
(186,603,l),
(186,390,l),
(114,390,ls),
(104,390,o),
(99,385,o),
(99,375,cs)
);
},
{
closed = 1;
nodes = (
(505,10,ls),
(505,0,o),
(510,-5,o),
(520,-5,cs),
(748,-5,ls),
(758,-5,o),
(763,0,o),
(763,10,cs),
(763,40,ls),
(763,50,o),
(758,55,o),
(748,55,cs),
(580,55,l),
(593,74,o),
(620,88,o),
(650,106,cs),
(703,137,o),
(763,171,o),
(763,235,cs),
(763,310,o),
(718,364,o),
(618,364,cs),
(582,364,o),
(548,354,o),
(515,335,c),
(507,331,o),
(505,324,o),
(509,315,cs),
(520,290,ls),
(524,281,o),
(531,278,o),
(540,282,cs),
(565,293,o),
(591,302,o),
(618,302,cs),
(665,302,o),
(692,276,o),
(692,235,cs),
(692,202,o),
(655,180,o),
(614,155,cs),
(562,124,o),
(505,91,o),
(505,25,cs)
);
}
);
width = 853;
}
);
unicode = 189;
},
{
glyphname = onequarter;
layers = (
{
layerId = "B909A847-908A-4B08-AB88-1EC2F75AB3CA";
name = Regular;
shapes = (
{
closed = 1;
nodes = (
(199,11,l),
(195,2,o),
(196,-5,o),
(204,-10,cs),
(231,-28,ls),
(239,-33,o),
(247,-31,o),
(252,-23,cs),
(650,651,l),
(654,660,o),
(653,667,o),
(645,672,cs),
(618,690,ls),
(610,695,o),
(602,693,o),
(597,685,cs)
);
},
{
closed = 1;
nodes = (
(99,345,ls),
(99,335,o),
(104,330,o),
(114,330,cs),
(329,330,ls),
(339,330,o),
(344,335,o),
(344,345,cs),
(344,375,ls),
(344,385,o),
(339,390,o),
(329,390,cs),
(257,390,l),
(257,665,ls),
(257,675,o),
(252,680,o),
(242,680,cs),
(211,680,ls),
(204,680,o),
(199,679,o),
(192,676,cs),
(93,630,ls),
(85,626,o),
(82,619,o),
(86,610,cs),
(97,584,l),
(101,576,o),
(108,573,o),
(117,576,c),
(186,603,l),
(186,390,l),
(114,390,ls),
(104,390,o),
(99,385,o),
(99,375,cs)
);
},
{
closed = 1;
nodes = (
(390,55,ls),
(386,49,o),
(384,44,o),
(384,37,cs),
(384,10,ls),
(384,0,o),
(389,-5,o),
(399,-5,cs),
(596,-5,l),
(596,-81,ls),
(596,-91,o),
(601,-96,o),
(611,-96,cs),
(647,-96,ls),
(657,-96,o),
(662,-91,o),
(662,-81,cs),
(662,-5,l),
(707,-5,ls),
(717,-5,o),
(722,0,o),
(722,10,cs),
(722,40,ls),
(722,50,o),
(717,55,o),
(707,55,cs),
(662,55,l),
(662,330,ls),
(662,340,o),
(657,345,o),
(647,345,cs),
(608,345,ls),
(599,345,o),
(594,342,o),
(589,336,c)
);
},
{
closed = 1;
nodes = (
(596,233,l),
(596,55,l),
(469,55,l)
);
}
);
width = 853;
}
);
unicode = 188;
},
{
glyphname = threequarters;
layers = (
{
layerId = "B909A847-908A-4B08-AB88-1EC2F75AB3CA";
name = Regular;
shapes = (
{
closed = 1;
nodes = (
(240,11,l),
(236,2,o),
(237,-5,o),
(245,-10,cs),
(272,-28,ls),
(280,-33,o),
(288,-31,o),
(293,-23,cs),
(691,651,l),
(695,660,o),
(694,667,o),
(686,672,cs),
(659,690,ls),
(651,695,o),
(643,693,o),
(638,685,cs)
);
},
{
closed = 1;
nodes = (
(154,267,o),
(135,270,o),
(117,274,c),
(109,277,o),
(103,274,o),
(99,265,cs),
(86,237,ls),
(82,228,o),
(85,221,o),
(94,217,c),
(119,209,o),
(146,204,o),
(175,204,cs),
(319,204,o),
(360,277,o),
(360,350,cs),
(360,397,o),
(343,443,o),
(277,469,c),
(318,488,o),
(339,520,o),
(339,555,cs),
(339,620,o),
(305,685,o),
(175,685,cs),
(146,685,o),
(119,680,o),
(94,671,c),
(85,667,o),
(82,660,o),
(86,651,cs),
(99,624,ls),
(103,615,o),
(109,613,o),
(118,615,cs),
(136,619,o),
(154,622,o),
(175,622,cs),
(251,622,o),
(269,583,o),
(269,555,cs),
(269,525,o),
(251,498,o),
(175,498,cs),
(151,498,ls),
(141,498,o),
(136,493,o),
(136,483,cs),
(136,447,ls),
(136,437,o),
(141,432,o),
(151,432,cs),
(175,432,ls),
(268,432,o),
(287,388,o),
(287,350,cs),
(287,314,o),
(268,267,o),
(175,267,cs)
);
},
{
closed = 1;
nodes = (
(430,55,ls),
(426,49,o),
(424,44,o),
(424,37,cs),
(424,10,ls),
(424,0,o),
(429,-5,o),
(439,-5,cs),
(636,-5,l),
(636,-81,ls),
(636,-91,o),
(641,-96,o),
(651,-96,cs),
(687,-96,ls),
(697,-96,o),
(702,-91,o),
(702,-81,cs),
(702,-5,l),
(747,-5,ls),
(757,-5,o),
(762,0,o),
(762,10,cs),
(762,40,ls),
(762,50,o),
(757,55,o),
(747,55,cs),
(702,55,l),
(702,330,ls),
(702,340,o),
(697,345,o),
(687,345,cs),
(648,345,ls),
(639,345,o),
(634,342,o),
(629,336,c)
);
},
{
closed = 1;
nodes = (
(636,233,l),
(636,55,l),
(509,55,l)
);
}
);
width = 853;
}
);
unicode = 190;
},
{
glyphname = onesuperior;
layers = (
{
layerId = "B909A847-908A-4B08-AB88-1EC2F75AB3CA";
name = Regular;
shapes = (
{
closed = 1;
nodes = (
(112,345,ls),
(112,335,o),
(117,330,o),
(127,330,cs),
(342,330,ls),
(352,330,o),
(357,335,o),
(357,345,cs),
(357,375,ls),
(357,385,o),
(352,390,o),
(342,390,cs),
(270,390,l),
(270,665,ls),
(270,675,o),
(265,680,o),
(255,680,cs),
(224,680,ls),
(217,680,o),
(212,679,o),
(205,676,cs),
(106,630,ls),
(98,626,o),
(95,619,o),
(99,610,cs),
(110,584,l),
(114,576,o),
(121,573,o),
(130,576,c),
(199,603,l),
(199,390,l),
(127,390,ls),
(117,390,o),
(112,385,o),
(112,375,cs)
);
}
);
width = 450;
}
);
unicode = 185;
},
{
glyphname = twosuperior;
layers = (
{
layerId = "B909A847-908A-4B08-AB88-1EC2F75AB3CA";
name = Regular;
shapes = (
{
closed = 1;
nodes = (
(92,344,ls),
(92,334,o),
(97,329,o),
(107,329,cs),
(335,329,ls),
(345,329,o),
(350,334,o),
(350,344,cs),
(350,374,ls),
(350,384,o),
(345,389,o),
(335,389,cs),
(167,389,l),
(180,408,o),
(207,422,o),
(237,440,cs),
(290,471,o),
(350,505,o),
(350,569,cs),
(350,644,o),
(305,698,o),
(205,698,cs),
(169,698,o),
(135,688,o),
(102,669,c),
(94,665,o),
(92,658,o),
(96,649,cs),
(107,624,ls),
(111,615,o),
(118,612,o),
(127,616,cs),
(152,627,o),
(178,636,o),
(205,636,cs),
(252,636,o),
(279,610,o),
(279,569,cs),
(279,536,o),
(242,514,o),
(201,489,cs),
(149,458,o),
(92,425,o),
(92,359,cs)
);
}
);
width = 450;
}
);
unicode = 178;
},
{
glyphname = threesuperior;
layers = (
{
layerId = "B909A847-908A-4B08-AB88-1EC2F75AB3CA";
name = Regular;
shapes = (
{
closed = 1;
nodes = (
(154,267,o),
(135,270,o),
(117,274,c),
(109,277,o),
(103,274,o),
(99,265,cs),
(86,237,ls),
(82,228,o),
(85,221,o),
(94,217,c),
(119,209,o),
(146,204,o),
(175,204,cs),
(319,204,o),
(360,277,o),
(360,350,cs),
(360,397,o),
(343,443,o),
(277,469,c),
(318,488,o),
(339,520,o),
(339,555,cs),
(339,620,o),
(305,685,o),
(175,685,cs),
(146,685,o),
(119,680,o),
(94,671,c),
(85,667,o),
(82,660,o),
(86,651,cs),
(99,624,ls),
(103,615,o),
(109,613,o),
(118,615,cs),
(136,619,o),
(154,622,o),
(175,622,cs),
(251,622,o),
(269,583,o),
(269,555,cs),
(269,525,o),
(251,498,o),
(175,498,cs),
(151,498,ls),
(141,498,o),
(136,493,o),
(136,483,cs),
(136,447,ls),
(136,437,o),
(141,432,o),
(151,432,cs),
(175,432,ls),
(268,432,o),
(287,388,o),
(287,350,cs),
(287,314,o),
(268,267,o),
(175,267,cs)
);
}
);
width = 450;
}
);
unicode = 179;
},
{
glyphname = period;
lastChange = "2016-12-11 18:57:35 +0000";
layers = (
{
layerId = "B909A847-908A-4B08-AB88-1EC2F75AB3CA";
name = Regular;
shapes = (
{
closed = 1;
nodes = (
(58,15,o),
(80,-7,o),
(107,-7,cs),
(134,-7,o),
(158,15,o),
(158,42,cs),
(158,69,o),
(134,93,o),
(107,93,cs),
(80,93,o),
(58,69,o),
(58,42,cs)
);
}
);
width = 215;
}
);
unicode = 46;
},
{
glyphname = comma;
lastChange = "2016-12-11 18:45:46 +0000";
layers = (
{
layerId = "B909A847-908A-4B08-AB88-1EC2F75AB3CA";
name = Regular;
shapes = (
{
closed = 1;
nodes = (
(60,6,o),
(87,6,o),
(87,-23,cs),
(87,-46,o),
(62,-61,o),
(53,-77,cs),
(48,-86,o),
(50,-93,o),
(58,-98,c),
(71,-105,ls),
(78,-109,o),
(85,-108,o),
(91,-102,cs),
(125,-67,o),
(160,-6,o),
(155,42,cs),
(152,68,o),
(133,90,o),
(107,90,cs),
(81,90,o),
(60,68,o),
(60,42,cs)
);
}
);
width = 215;
}
);
unicode = 44;
},
{
glyphname = colon;
lastChange = "2016-12-11 18:56:37 +0000";
layers = (
{
layerId = "B909A847-908A-4B08-AB88-1EC2F75AB3CA";
name = Regular;
shapes = (
{
closed = 1;
nodes = (
(58,323,o),
(80,301,o),
(107,301,cs),
(134,301,o),
(158,323,o),
(158,350,cs),
(158,377,o),
(134,401,o),
(107,401,cs),
(80,401,o),
(58,377,o),
(58,350,cs)
);
},
{
closed = 1;
nodes = (
(58,15,o),
(80,-7,o),
(107,-7,cs),
(134,-7,o),
(158,15,o),
(158,42,cs),
(158,69,o),
(134,93,o),
(107,93,cs),
(80,93,o),
(58,69,o),
(58,42,cs)
);
}
);
width = 215;
}
);
unicode = 58;
},
{
glyphname = semicolon;
lastChange = "2016-12-11 18:58:08 +0000";
layers = (
{
layerId = "B909A847-908A-4B08-AB88-1EC2F75AB3CA";
name = Regular;
shapes = (
{
closed = 1;
nodes = (
(58,323,o),
(80,301,o),
(107,301,cs),
(134,301,o),
(158,323,o),
(158,350,cs),
(158,377,o),
(134,401,o),
(107,401,cs),
(80,401,o),
(58,377,o),
(58,350,cs)
);
},
{
closed = 1;
nodes = (
(60,6,o),
(87,6,o),
(87,-23,cs),
(87,-46,o),
(62,-61,o),
(53,-77,cs),
(48,-86,o),
(50,-93,o),
(58,-98,c),
(71,-105,ls),
(78,-109,o),
(85,-108,o),
(91,-102,cs),
(125,-67,o),
(160,-6,o),
(155,42,cs),
(152,68,o),
(133,90,o),
(107,90,cs),
(81,90,o),
(60,68,o),
(60,42,cs)
);
}
);
width = 215;
}
);
unicode = 59;
},
{
glyphname = ellipsis;
lastChange = "2016-12-11 18:57:13 +0000";
layers = (
{
layerId = "B909A847-908A-4B08-AB88-1EC2F75AB3CA";
name = Regular;
shapes = (
{
closed = 1;
nodes = (
(77,15,o),
(100,-7,o),
(127,-7,cs),
(154,-7,o),
(177,15,o),
(177,42,cs),
(177,69,o),
(154,93,o),
(127,93,cs),
(100,93,o),
(77,69,o),
(77,42,cs)
);
},
{
closed = 1;
nodes = (
(278,15,o),
(300,-7,o),
(327,-7,cs),
(354,-7,o),
(378,15,o),
(378,42,cs),
(378,69,o),
(354,93,o),
(327,93,cs),
(300,93,o),
(278,69,o),
(278,42,cs)
);
},
{
closed = 1;
nodes = (
(478,15,o),
(500,-7,o),
(527,-7,cs),
(554,-7,o),
(578,15,o),
(578,42,cs),
(578,69,o),
(554,93,o),
(527,93,cs),
(500,93,o),
(478,69,o),
(478,42,cs)
);
}
);
width = 655;
}
);
unicode = 8230;
},
{
glyphname = exclam;
lastChange = "2016-12-11 18:51:48 +0000";
layers = (
{
layerId = "B909A847-908A-4B08-AB88-1EC2F75AB3CA";
name = Regular;
shapes = (
{
closed = 1;
nodes = (
(112,200,ls),
(102,200,o),
(97,205,o),
(97,215,cs),
(92,652,ls),
(92,662,o),
(97,667,o),
(107,667,cs),
(152,667,ls),
(162,667,o),
(167,662,o),
(167,652,cs),
(162,215,ls),
(162,205,o),
(157,200,o),
(147,200,cs)
);
},
{
closed = 1;
nodes = (
(80,73,o),
(103,95,o),
(130,95,cs),
(158,95,o),
(180,73,o),
(180,45,cs),
(180,18,o),
(158,-5,o),
(130,-5,cs),
(103,-5,o),
(80,18,o),
(80,45,cs)
);
}
);
width = 260;
}
);
unicode = 33;
},
{
glyphname = exclamdown;
layers = (
{
layerId = "B909A847-908A-4B08-AB88-1EC2F75AB3CA";
name = Regular;
shapes = (
{
closed = 1;
nodes = (
(180,431,o),
(157,409,o),
(130,409,cs),
(102,409,o),
(80,431,o),
(80,459,cs),
(80,486,o),
(102,509,o),
(130,509,cs),
(157,509,o),
(180,486,o),
(180,459,cs)
);
},
{
closed = 1;
nodes = (
(163,304,l),
(168,-163,l),
(93,-163,l),
(98,304,l)
);
}
);
width = 260;
}
);
unicode = 161;
},
{
glyphname = question;
lastChange = "2016-12-11 18:57:44 +0000";
layers = (
{
layerId = "B909A847-908A-4B08-AB88-1EC2F75AB3CA";
name = Regular;
shapes = (
{
closed = 1;
nodes = (
(198,410,o),
(323,390,o),
(323,502,cs),
(323,557,o),
(288,597,o),
(228,597,cs),
(185,597,o),
(147,581,o),
(128,571,cs),
(119,566,o),
(112,568,o),
(108,576,cs),
(87,616,ls),
(82,625,o),
(85,633,o),
(94,637,cs),
(118,647,o),
(170,667,o),
(228,667,cs),
(338,667,o),
(403,597,o),
(403,502,cs),
(403,360,o),
(271,370,o),
(271,260,cs),
(271,215,ls),
(271,205,o),
(266,200,o),
(256,200,cs),
(216,200,ls),
(207,200,o),
(201,204,o),
(200,213,cs),
(199,222,o),
(198,237,o),
(198,260,cs)
);
},
{
closed = 1;
nodes = (
(188,15,o),
(210,-7,o),
(237,-7,cs),
(264,-7,o),
(288,15,o),
(288,42,cs),
(288,69,o),
(264,93,o),
(237,93,cs),
(210,93,o),
(188,69,o),
(188,42,cs)
);
}
);
width = 483;
}
);
unicode = 63;
},
{
glyphname = questiondown;
lastChange = "2016-12-11 18:52:54 +0000";
layers = (
{
layerId = "B909A847-908A-4B08-AB88-1EC2F75AB3CA";
name = Regular;
shapes = (
{
closed = 1;
nodes = (
(293,489,o),
(272,510,o),
(246,510,cs),
(220,510,o),
(198,489,o),
(198,463,cs),
(198,437,o),
(220,415,o),
(246,415,cs),
(272,415,o),
(293,437,o),
(293,463,cs)
);
},
{
closed = 1;
nodes = (
(285,95,o),
(160,115,o),
(160,3,cs),
(160,-52,o),
(195,-92,o),
(255,-92,cs),
(298,-92,o),
(336,-76,o),
(355,-66,cs),
(364,-61,o),
(371,-63,o),
(375,-71,cs),
(396,-111,ls),
(401,-120,o),
(398,-128,o),
(389,-132,cs),
(365,-142,o),
(313,-162,o),
(255,-162,cs),
(145,-162,o),
(80,-92,o),
(80,3,cs),
(80,145,o),
(212,135,o),
(212,245,cs),
(212,290,ls),
(212,300,o),
(217,305,o),
(227,305,cs),
(267,305,ls),
(276,305,o),
(282,301,o),
(283,292,cs),
(284,283,o),
(285,268,o),
(285,245,cs)
);
}
);
width = 483;
}
);
unicode = 191;
},
{
glyphname = periodcentered;
lastChange = "2016-12-11 18:58:22 +0000";
layers = (
{
layerId = "B909A847-908A-4B08-AB88-1EC2F75AB3CA";
name = Regular;
shapes = (
{
closed = 1;
nodes = (
(88,223,o),
(110,201,o),
(137,201,cs),
(164,201,o),
(188,223,o),
(188,250,cs),
(188,277,o),
(164,301,o),
(137,301,cs),
(110,301,o),
(88,277,o),
(88,250,cs)
);
}
);
width = 275;
}
);
unicode = 183;
},
{
glyphname = bullet;
layers = (
{
layerId = "B909A847-908A-4B08-AB88-1EC2F75AB3CA";
name = Regular;
shapes = (
{
closed = 1;
nodes = (
(80,195,o),
(125,150,o),
(180,150,cs),
(235,150,o),
(280,195,o),
(280,250,cs),
(280,305,o),
(235,350,o),
(180,350,cs),
(125,350,o),
(80,305,o),
(80,250,cs)
);
}
);
width = 360;
}
);
unicode = 8226;
},
{
glyphname = asterisk;
layers = (
{
layerId = "B909A847-908A-4B08-AB88-1EC2F75AB3CA";
name = Regular;
shapes = (
{
closed = 1;
nodes = (
(68,647,l),
(63,639,o),
(65,631,o),
(73,627,c),
(189,562,l),
(73,496,l),
(65,492,o),
(63,484,o),
(67,476,c),
(84,446,l),
(89,438,o),
(97,436,o),
(105,441,cs),
(219,511,l),
(219,365,ls),
(219,355,o),
(224,350,o),
(234,350,cs),
(269,350,ls),
(279,350,o),
(284,355,o),
(284,365,cs),
(284,511,l),
(394,442,ls),
(402,437,o),
(410,439,o),
(415,447,c),
(432,478,l),
(436,486,o),
(434,494,o),
(426,498,c),
(309,562,l),
(426,626,l),
(434,630,o),
(436,638,o),
(432,646,c),
(414,677,ls),
(409,685,o),
(401,687,o),
(393,682,cs),
(284,616,l),
(284,735,ls),
(284,745,o),
(279,750,o),
(269,750,cs),
(234,750,ls),
(224,750,o),
(219,745,o),
(219,735,cs),
(219,614,l),
(106,682,ls),
(98,687,o),
(90,685,o),
(85,677,c)
);
}
);
width = 499;
}
);
unicode = 42;
},
{
glyphname = numbersign;
layers = (
{
layerId = "B909A847-908A-4B08-AB88-1EC2F75AB3CA";
name = Regular;
shapes = (
{
closed = 1;
nodes = (
(71,315,ls),
(68,304,o),
(73,298,o),
(83,298,cs),
(156,298,l),
(131,203,l),
(61,203,ls),
(52,203,o),
(47,199,o),
(45,190,c),
(35,155,ls),
(32,144,o),
(37,138,o),
(47,138,cs),
(113,138,l),
(85,31,l),
(82,22,o),
(86,16,o),
(95,13,c),
(128,4,ls),
(138,1,o),
(144,5,o),
(147,15,cs),
(180,138,l),
(273,138,l),
(245,31,l),
(242,22,o),
(246,16,o),
(255,13,c),
(290,4,l),
(299,1,o),
(305,5,o),
(308,15,cs),
(341,138,l),
(417,138,ls),
(426,138,o),
(431,142,o),
(433,151,c),
(443,186,ls),
(446,197,o),
(441,203,o),
(431,203,cs),
(358,203,l),
(384,298,l),
(453,298,ls),
(462,298,o),
(467,302,o),
(469,311,c),
(479,346,ls),
(482,357,o),
(477,363,o),
(467,363,cs),
(401,363,l),
(429,468,ls),
(432,478,o),
(428,484,o),
(418,487,cs),
(384,496,l),
(375,499,o),
(369,495,o),
(366,486,c),
(333,363,l),
(240,363,l),
(269,468,ls),
(272,478,o),
(268,484,o),
(258,487,cs),
(224,496,l),
(215,499,o),
(209,495,o),
(206,486,c),
(173,363,l),
(97,363,ls),
(88,363,o),
(83,359,o),
(80,350,c)
);
},
{
closed = 1;
nodes = (
(291,203,l),
(197,203,l),
(223,298,l),
(316,298,l)
);
}
);
width = 514;
}
);
unicode = 35;
},
{
glyphname = slash;
layers = (
{
layerId = "B909A847-908A-4B08-AB88-1EC2F75AB3CA";
name = Regular;
shapes = (
{
closed = 1;
nodes = (
(16,13,ls),
(12,5,o),
(15,-2,o),
(23,-7,c),
(51,-21,l),
(60,-26,o),
(67,-23,o),
(72,-14,c),
(409,687,ls),
(413,695,o),
(410,702,o),
(402,707,c),
(374,721,l),
(365,726,o),
(358,723,o),
(353,714,c)
);
}
);
width = 425;
}
);
unicode = 47;
},
{
glyphname = backslash;
lastChange = "2016-12-11 19:21:03 +0000";
layers = (
{
layerId = "B909A847-908A-4B08-AB88-1EC2F75AB3CA";
name = Regular;
shapes = (
{
closed = 1;
nodes = (
(17,687,ls),
(14,694,o),
(16,703,o),
(24,707,cs),
(52,721,ls),
(60,725,o),
(69,722,o),
(73,714,cs),
(410,13,ls),
(413,6,o),
(411,-3,o),
(403,-7,cs),
(375,-21,ls),
(367,-25,o),
(358,-22,o),
(354,-14,cs)
);
}
);
width = 425;
}
);
unicode = 92;
},
{
glyphname = hyphen;
layers = (
{
layerId = "B909A847-908A-4B08-AB88-1EC2F75AB3CA";
name = Regular;
shapes = (
{
closed = 1;
nodes = (
(50,233,ls),
(50,223,o),
(55,218,o),
(65,218,cs),
(335,218,ls),
(345,218,o),
(350,223,o),
(350,233,cs),
(350,268,ls),
(350,278,o),
(345,283,o),
(335,283,cs),
(65,283,ls),
(55,283,o),
(50,278,o),
(50,268,cs)
);
}
);
width = 400;
}
);
unicode = 45;
},
{
glyphname = endash;
layers = (
{
layerId = "B909A847-908A-4B08-AB88-1EC2F75AB3CA";
name = Regular;
shapes = (
{
closed = 1;
nodes = (
(80,233,ls),
(80,223,o),
(85,218,o),
(95,218,cs),
(465,218,ls),
(475,218,o),
(480,223,o),
(480,233,cs),
(480,268,ls),
(480,278,o),
(475,283,o),
(465,283,cs),
(95,283,ls),
(85,283,o),
(80,278,o),
(80,268,cs)
);
}
);
width = 560;
}
);
unicode = 8211;
},
{
glyphname = emdash;
layers = (
{
layerId = "B909A847-908A-4B08-AB88-1EC2F75AB3CA";
name = Regular;
shapes = (
{
closed = 1;
nodes = (
(50,233,ls),
(50,223,o),
(55,218,o),
(65,218,cs),
(685,218,ls),
(695,218,o),
(700,223,o),
(700,233,cs),
(700,268,ls),
(700,278,o),
(695,283,o),
(685,283,cs),
(65,283,ls),
(55,283,o),
(50,278,o),
(50,268,cs)
);
}
);
width = 780;
}
);
unicode = 8212;
},
{
glyphname = underscore;
layers = (
{
layerId = "B909A847-908A-4B08-AB88-1EC2F75AB3CA";
name = Regular;
shapes = (
{
closed = 1;
nodes = (
(50,-60,ls),
(50,-70,o),
(55,-75,o),
(65,-75,cs),
(435,-75,ls),
(445,-75,o),
(450,-70,o),
(450,-60,cs),
(450,-26,ls),
(450,-16,o),
(445,-11,o),
(435,-11,cs),
(65,-11,ls),
(55,-11,o),
(50,-16,o),
(50,-26,cs)
);
}
);
width = 500;
}
);
unicode = 95;
},
{
glyphname = parenleft;
layers = (
{
layerId = "B909A847-908A-4B08-AB88-1EC2F75AB3CA";
name = Regular;
shapes = (
{
closed = 1;
nodes = (
(130,551,o),
(245,667,o),
(273,686,c),
(274,686,o),
(272,691,o),
(267,699,cs),
(248,730,ls),
(243,738,o),
(236,740,o),
(228,735,cs),
(160,694,o),
(50,555,o),
(50,334,cs),
(50,113,o),
(160,-27,o),
(228,-68,c),
(235,-73,o),
(243,-71,o),
(248,-63,cs),
(267,-32,ls),
(272,-24,o),
(271,-18,o),
(264,-11,c),
(225,22,o),
(130,135,o),
(130,334,cs)
);
}
);
width = 335;
}
);
unicode = 40;
},
{
glyphname = parenright;
lastChange = "2016-12-11 18:53:55 +0000";
layers = (
{
layerId = "B909A847-908A-4B08-AB88-1EC2F75AB3CA";
name = Regular;
shapes = (
{
closed = 1;
nodes = (
(205,552,o),
(90,667,o),
(62,686,cs),
(61,686,o),
(63,691,o),
(68,699,cs),
(87,730,ls),
(92,738,o),
(99,740,o),
(107,735,cs),
(175,694,o),
(285,555,o),
(285,334,cs),
(285,113,o),
(175,-27,o),
(107,-68,cs),
(100,-73,o),
(92,-71,o),
(87,-63,cs),
(68,-32,ls),
(63,-24,o),
(64,-18,o),
(71,-11,cs),
(110,22,o),
(205,135,o),
(205,334,cs)
);
}
);
width = 335;
}
);
unicode = 41;
},
{
glyphname = braceleft;
lastChange = "2016-12-11 18:53:10 +0000";
layers = (
{
layerId = "B909A847-908A-4B08-AB88-1EC2F75AB3CA";
name = Regular;
shapes = (
{
closed = 1;
nodes = (
(330,-47,ls),
(330,-56,o),
(326,-61,o),
(317,-63,cs),
(275,-71,o),
(150,-83,o),
(150,50,cs),
(150,146,o),
(182,300,o),
(75,312,cs),
(65,313,o),
(60,318,o),
(60,328,cs),
(60,348,ls),
(60,358,o),
(65,363,o),
(75,364,cs),
(182,376,o),
(150,521,o),
(150,617,cs),
(150,750,o),
(275,738,o),
(317,730,cs),
(326,728,o),
(330,723,o),
(330,714,cs),
(330,688,ls),
(330,678,o),
(324,673,o),
(313,675,cs),
(106,705,o),
(290,390,o),
(143,343,cs),
(134,340,o),
(134,339,o),
(143,336,c),
(290,280,o),
(106,-38,o),
(313,-8,cs),
(324,-6,o),
(330,-11,o),
(330,-21,cs)
);
}
);
width = 370;
}
);
unicode = 123;
},
{
glyphname = braceright;
layers = (
{
layerId = "B909A847-908A-4B08-AB88-1EC2F75AB3CA";
name = Regular;
shapes = (
{
closed = 1;
nodes = (
(40,-47,ls),
(40,-56,o),
(44,-61,o),
(53,-63,cs),
(95,-71,o),
(220,-83,o),
(220,50,cs),
(220,146,o),
(188,300,o),
(295,312,cs),
(305,313,o),
(310,318,o),
(310,328,cs),
(310,348,ls),
(310,358,o),
(305,363,o),
(295,364,cs),
(188,376,o),
(220,521,o),
(220,617,cs),
(220,750,o),
(95,738,o),
(53,730,cs),
(44,728,o),
(40,723,o),
(40,714,cs),
(40,688,ls),
(40,678,o),
(46,673,o),
(57,675,c),
(270,705,o),
(69,372,o),
(240,340,c),
(69,298,o),
(270,-38,o),
(57,-8,c),
(46,-6,o),
(40,-11,o),
(40,-21,cs)
);
}
);
width = 370;
}
);
unicode = 125;
},
{
glyphname = bracketleft;
layers = (
{
layerId = "B909A847-908A-4B08-AB88-1EC2F75AB3CA";
name = Regular;
shapes = (
{
closed = 1;
nodes = (
(290,-1,l),
(290,-71,l),
(110,-71,l),
(110,737,l),
(290,737,l),
(290,667,l),
(205,667,ls),
(195,667,o),
(190,662,o),
(190,652,cs),
(190,14,ls),
(190,4,o),
(195,-1,o),
(205,-1,cs)
);
}
);
width = 340;
}
);
unicode = 91;
},
{
glyphname = bracketright;
layers = (
{
layerId = "B909A847-908A-4B08-AB88-1EC2F75AB3CA";
name = Regular;
shapes = (
{
closed = 1;
nodes = (
(50,-56,ls),
(50,-66,o),
(55,-71,o),
(65,-71,cs),
(215,-71,ls),
(225,-71,o),
(230,-66,o),
(230,-56,cs),
(230,722,ls),
(230,732,o),
(225,737,o),
(215,737,cs),
(65,737,ls),
(55,737,o),
(50,732,o),
(50,722,cs),
(50,682,ls),
(50,672,o),
(55,667,o),
(65,667,cs),
(150,667,l),
(150,-1,l),
(65,-1,ls),
(55,-1,o),
(50,-6,o),
(50,-16,cs)
);
}
);
width = 340;
}
);
unicode = 93;
},
{
glyphname = quotesinglbase;
lastChange = "2016-12-11 18:45:28 +0000";
layers = (
{
layerId = "B909A847-908A-4B08-AB88-1EC2F75AB3CA";
name = Regular;
shapes = (
{
closed = 1;
nodes = (
(40,6,o),
(67,6,o),
(67,-23,cs),
(67,-46,o),
(42,-61,o),
(33,-77,cs),
(28,-86,o),
(30,-93,o),
(38,-98,c),
(51,-105,ls),
(58,-109,o),
(65,-108,o),
(71,-102,cs),
(105,-67,o),
(140,-6,o),
(135,42,cs),
(132,68,o),
(113,90,o),
(87,90,cs),
(61,90,o),
(40,68,o),
(40,42,cs)
);
}
);
width = 175;
}
);
unicode = 8218;
},
{
glyphname = quotedblbase;
lastChange = "2016-12-11 18:45:09 +0000";
layers = (
{
layerId = "B909A847-908A-4B08-AB88-1EC2F75AB3CA";
name = Regular;
shapes = (
{
closed = 1;
nodes = (
(60,6,o),
(87,6,o),
(87,-23,cs),
(87,-46,o),
(62,-61,o),
(53,-77,cs),
(48,-86,o),
(50,-93,o),
(58,-98,c),
(71,-105,ls),
(78,-109,o),
(85,-108,o),
(91,-102,cs),
(125,-67,o),
(160,-6,o),
(155,42,cs),
(152,68,o),
(133,90,o),
(107,90,cs),
(81,90,o),
(60,68,o),
(60,42,cs)
);
},
{
closed = 1;
nodes = (
(185,6,o),
(212,6,o),
(212,-23,cs),
(212,-46,o),
(187,-61,o),
(178,-77,cs),
(173,-86,o),
(175,-93,o),
(183,-98,c),
(196,-105,ls),
(203,-109,o),
(210,-108,o),
(216,-102,cs),
(250,-67,o),
(285,-6,o),
(280,42,cs),
(277,68,o),
(258,90,o),
(232,90,cs),
(206,90,o),
(185,68,o),
(185,42,cs)
);
}
);
width = 340;
}
);
unicode = 8222;
},
{
glyphname = quotedblleft;
lastChange = "2016-12-11 18:47:55 +0000";
layers = (
{
layerId = "B909A847-908A-4B08-AB88-1EC2F75AB3CA";
name = Regular;
shapes = (
{
closed = 1;
nodes = (
(281,624,o),
(254,624,o),
(254,653,cs),
(254,676,o),
(279,691,o),
(288,707,cs),
(293,716,o),
(291,723,o),
(283,728,c),
(270,735,ls),
(263,739,o),
(256,738,o),
(250,732,cs),
(216,697,o),
(181,636,o),
(186,588,cs),
(189,562,o),
(208,540,o),
(234,540,cs),
(260,540,o),
(281,562,o),
(281,588,cs)
);
},
{
closed = 1;
nodes = (
(156,624,o),
(129,624,o),
(129,653,cs),
(129,676,o),
(154,691,o),
(163,707,cs),
(168,716,o),
(166,723,o),
(158,728,c),
(145,735,ls),
(138,739,o),
(131,738,o),
(125,732,cs),
(91,697,o),
(56,636,o),
(61,588,cs),
(64,562,o),
(83,540,o),
(109,540,cs),
(135,540,o),
(156,562,o),
(156,588,cs)
);
}
);
width = 340;
}
);
unicode = 8220;
},
{
glyphname = quotedblright;
lastChange = "2016-12-11 18:48:26 +0000";
layers = (
{
layerId = "B909A847-908A-4B08-AB88-1EC2F75AB3CA";
name = Regular;
shapes = (
{
closed = 1;
nodes = (
(60,621,o),
(87,621,o),
(87,592,cs),
(87,569,o),
(62,554,o),
(53,538,cs),
(48,529,o),
(50,522,o),
(58,517,c),
(71,510,ls),
(78,506,o),
(85,507,o),
(91,513,cs),
(125,548,o),
(160,609,o),
(155,657,cs),
(152,683,o),
(133,705,o),
(107,705,cs),
(81,705,o),
(60,683,o),
(60,657,cs)
);
},
{
closed = 1;
nodes = (
(185,621,o),
(212,621,o),
(212,592,cs),
(212,569,o),
(187,554,o),
(178,538,cs),
(173,529,o),
(175,522,o),
(183,517,c),
(196,510,ls),
(203,506,o),
(210,507,o),
(216,513,cs),
(250,548,o),
(285,609,o),
(280,657,cs),
(277,683,o),
(258,705,o),
(232,705,cs),
(206,705,o),
(185,683,o),
(185,657,cs)
);
}
);
width = 340;
}
);
unicode = 8221;
},
{
glyphname = quoteleft;
lastChange = "2016-12-11 18:49:19 +0000";
layers = (
{
layerId = "B909A847-908A-4B08-AB88-1EC2F75AB3CA";
name = Regular;
shapes = (
{
closed = 1;
nodes = (
(156,624,o),
(129,624,o),
(129,653,cs),
(129,676,o),
(154,691,o),
(163,707,cs),
(168,716,o),
(166,723,o),
(158,728,c),
(145,735,ls),
(138,739,o),
(131,738,o),
(125,732,cs),
(91,697,o),
(56,636,o),
(61,588,cs),
(64,562,o),
(83,540,o),
(109,540,cs),
(135,540,o),
(156,562,o),
(156,588,cs)
);
}
);
width = 215;
}
);
unicode = 8216;
},
{
glyphname = quoteright;
lastChange = "2016-12-11 18:48:54 +0000";
layers = (
{
layerId = "B909A847-908A-4B08-AB88-1EC2F75AB3CA";
name = Regular;
shapes = (
{
closed = 1;
nodes = (
(60,621,o),
(87,621,o),
(87,592,cs),
(87,569,o),
(62,554,o),
(53,538,cs),
(48,529,o),
(50,522,o),
(58,517,c),
(71,510,ls),
(78,506,o),
(85,507,o),
(91,513,cs),
(125,548,o),
(160,609,o),
(155,657,cs),
(152,683,o),
(133,705,o),
(107,705,cs),
(81,705,o),
(60,683,o),
(60,657,cs)
);
}
);
width = 215;
}
);
unicode = 8217;
},
{
glyphname = guillemetleft;
lastChange = "2016-12-11 18:54:42 +0000";
layers = (
{
layerId = "B909A847-908A-4B08-AB88-1EC2F75AB3CA";
name = Regular;
shapes = (
{
closed = 1;
nodes = (
(196,427,ls),
(202,435,o),
(209,435,o),
(217,429,cs),
(239,409,ls),
(246,402,o),
(247,395,o),
(241,388,cs),
(139,261,l),
(134,253,o),
(134,247,o),
(139,239,c),
(241,111,ls),
(247,104,o),
(246,97,o),
(239,90,cs),
(217,70,ls),
(209,64,o),
(202,64,o),
(196,72,cs),
(68,239,ls),
(63,247,o),
(63,253,o),
(68,261,cs)
);
},
{
closed = 1;
nodes = (
(358,427,ls),
(364,435,o),
(371,435,o),
(379,429,cs),
(401,409,ls),
(408,402,o),
(409,395,o),
(403,388,cs),
(300,261,l),
(294,253,o),
(294,247,o),
(300,239,cs),
(403,111,ls),
(409,104,o),
(408,97,o),
(401,90,cs),
(379,70,ls),
(371,64,o),
(364,64,o),
(358,72,cs),
(229,239,ls),
(224,247,o),
(224,253,o),
(229,261,cs)
);
}
);
width = 492;
}
);
unicode = 171;
},
{
glyphname = guillemetright;
layers = (
{
layerId = "B909A847-908A-4B08-AB88-1EC2F75AB3CA";
name = Regular;
shapes = (
{
closed = 1;
nodes = (
(201,250,l),
(89,111,ls),
(83,104,o),
(84,97,o),
(91,90,c),
(113,70,l),
(121,64,o),
(128,64,o),
(134,72,cs),
(263,239,l),
(268,247,o),
(268,253,o),
(263,261,c),
(134,427,ls),
(128,435,o),
(121,435,o),
(113,429,c),
(91,409,l),
(84,402,o),
(83,395,o),
(89,388,cs)
);
},
{
closed = 1;
nodes = (
(361,250,l),
(251,111,l),
(245,104,o),
(246,97,o),
(253,90,c),
(275,70,l),
(283,64,o),
(290,64,o),
(296,72,cs),
(424,239,l),
(429,247,o),
(429,253,o),
(424,261,c),
(296,427,ls),
(290,435,o),
(283,435,o),
(275,429,c),
(253,409,l),
(246,402,o),
(245,395,o),
(251,388,c)
);
}
);
width = 492;
}
);
unicode = 187;
},
{
glyphname = guilsinglleft;
lastChange = "2016-12-11 18:55:13 +0000";
layers = (
{
layerId = "B909A847-908A-4B08-AB88-1EC2F75AB3CA";
name = Regular;
shapes = (
{
closed = 1;
nodes = (
(196,427,ls),
(202,435,o),
(209,435,o),
(217,429,cs),
(239,409,ls),
(246,402,o),
(247,395,o),
(241,388,cs),
(139,261,l),
(134,253,o),
(134,247,o),
(139,239,c),
(241,111,ls),
(247,104,o),
(246,97,o),
(239,90,cs),
(217,70,ls),
(209,64,o),
(202,64,o),
(196,72,cs),
(68,239,ls),
(63,247,o),
(63,253,o),
(68,261,cs)
);
}
);
width = 330;
}
);
unicode = 8249;
},
{
glyphname = guilsinglright;
layers = (
{
layerId = "B909A847-908A-4B08-AB88-1EC2F75AB3CA";
name = Regular;
shapes = (
{
closed = 1;
nodes = (
(199,250,l),
(89,111,l),
(83,104,o),
(84,97,o),
(91,90,c),
(113,70,l),
(121,64,o),
(128,64,o),
(134,72,cs),
(262,239,l),
(267,247,o),
(267,253,o),
(262,261,c),
(134,427,ls),
(128,435,o),
(121,435,o),
(113,429,c),
(91,409,l),
(84,402,o),
(83,395,o),
(89,388,c)
);
}
);
width = 330;
}
);
unicode = 8250;
},
{
glyphname = quotedbl;
layers = (
{
layerId = "B909A847-908A-4B08-AB88-1EC2F75AB3CA";
name = Regular;
shapes = (
{
closed = 1;
nodes = (
(50,515,ls),
(50,505,o),
(55,500,o),
(65,500,cs),
(91,500,ls),
(100,500,o),
(105,505,o),
(106,514,cs),
(119,684,ls),
(120,694,o),
(114,700,o),
(104,700,cs),
(65,700,ls),
(55,700,o),
(50,695,o),
(50,685,cs)
);
},
{
closed = 1;
nodes = (
(175,515,ls),
(175,505,o),
(180,500,o),
(190,500,cs),
(216,500,ls),
(225,500,o),
(230,505,o),
(231,514,cs),
(244,684,ls),
(245,694,o),
(239,700,o),
(229,700,cs),
(190,700,ls),
(180,700,o),
(175,695,o),
(175,685,cs)
);
}
);
width = 300;
}
);
unicode = 34;
},
{
glyphname = quotesingle;
layers = (
{
layerId = "B909A847-908A-4B08-AB88-1EC2F75AB3CA";
name = Regular;
shapes = (
{
closed = 1;
nodes = (
(50,515,ls),
(50,505,o),
(55,500,o),
(65,500,cs),
(91,500,ls),
(100,500,o),
(105,505,o),
(106,514,cs),
(119,684,ls),
(120,694,o),
(114,700,o),
(104,700,cs),
(65,700,ls),
(55,700,o),
(50,695,o),
(50,685,cs)
);
}
);
width = 175;
}
);
unicode = 39;
},
{
glyphname = florin;
layers = (
{
layerId = "B909A847-908A-4B08-AB88-1EC2F75AB3CA";
name = Regular;
shapes = (
{
closed = 1;
nodes = (
(48,-140,o),
(23,-130,o),
(-3,-114,c),
(-11,-108,o),
(-19,-110,o),
(-23,-119,c),
(-38,-146,l),
(-43,-154,o),
(-41,-161,o),
(-34,-166,cs),
(4,-193,o),
(49,-210,o),
(80,-210,cs),
(203,-210,o),
(210,-111,o),
(210,0,cs),
(210,435,l),
(330,435,ls),
(340,435,o),
(345,440,o),
(345,450,cs),
(345,485,ls),
(345,495,o),
(340,500,o),
(330,500,cs),
(210,500,l),
(209,578,o),
(213,640,o),
(265,640,cs),
(297,640,o),
(322,630,o),
(348,614,c),
(356,608,o),
(364,610,o),
(368,619,c),
(383,646,l),
(388,654,o),
(386,661,o),
(379,666,cs),
(341,693,o),
(296,710,o),
(265,710,cs),
(142,710,o),
(135,611,o),
(135,500,c),
(75,500,ls),
(65,500,o),
(60,495,o),
(60,485,cs),
(60,450,ls),
(60,440,o),
(65,435,o),
(75,435,cs),
(135,435,l),
(135,0,ls),
(136,-78,o),
(132,-140,o),
(80,-140,cs)
);
}
);
width = 410;
}
);
unicode = 402;
},
{
glyphname = at;
layers = (
{
layerId = "B909A847-908A-4B08-AB88-1EC2F75AB3CA";
name = Regular;
shapes = (
{
closed = 1;
nodes = (
(382,412,o),
(212,392,o),
(212,252,cs),
(212,157,o),
(257,87,o),
(367,87,cs),
(418,87,o),
(467,117,o),
(507,157,c),
(516,123,o),
(536,99,o),
(560,93,cs),
(568,91,o),
(574,95,o),
(579,102,c),
(603,139,l),
(609,147,o),
(607,154,o),
(598,159,c),
(564,181,o),
(572,223,o),
(572,372,cs),
(572,502,o),
(542,607,o),
(402,607,cs),
(202,607,o),
(30,502,o),
(30,250,cs),
(30,50,o),
(202,-107,o),
(402,-107,cs),
(497,-107,o),
(586,-71,o),
(652,-10,c),
(659,-4,o),
(659,4,o),
(653,11,cs),
(637,29,l),
(630,36,o),
(623,37,o),
(615,31,cs),
(553,-15,o),
(473,-37,o),
(402,-37,cs),
(252,-37,o),
(108,100,o),
(108,250,cs),
(108,477,o),
(262,537,o),
(402,537,cs),
(452,537,o),
(495,502,o),
(497,407,c)
);
},
{
closed = 1;
nodes = (
(497,217,l),
(497,217,o),
(457,157,o),
(387,157,cs),
(327,157,o),
(292,197,o),
(292,252,cs),
(292,337,o),
(426,347,o),
(501,347,c)
);
}
);
width = 667;
}
);
unicode = 64;
},
{
glyphname = ampersand;
layers = (
{
layerId = "B909A847-908A-4B08-AB88-1EC2F75AB3CA";
name = Regular;
shapes = (
{
closed = 1;
nodes = (
(509,248,l),
(559,248,ls),
(569,248,o),
(574,253,o),
(574,263,cs),
(574,298,ls),
(574,308,o),
(569,313,o),
(559,313,cs),
(509,313,l),
(509,420,ls),
(509,431,o),
(502,436,o),
(492,432,c),
(446,417,l),
(438,414,o),
(434,409,o),
(434,400,cs),
(434,313,l),
(327,313,ls),
(188,313,o),
(155,374,o),
(155,435,cs),
(155,498,o),
(188,560,o),
(327,560,cs),
(360,560,o),
(387,556,o),
(412,548,c),
(420,545,o),
(427,547,o),
(431,556,cs),
(447,591,ls),
(451,600,o),
(448,607,o),
(439,611,c),
(405,623,o),
(367,630,o),
(327,630,cs),
(134,630,o),
(80,533,o),
(80,435,cs),
(80,373,o),
(102,311,o),
(191,277,c),
(136,252,o),
(108,210,o),
(108,163,cs),
(108,77,o),
(153,-10,o),
(327,-10,cs),
(393,-10,o),
(450,8,o),
(499,41,c),
(506,45,o),
(509,50,o),
(509,59,cs)
);
},
{
closed = 1;
nodes = (
(210,54,o),
(178,103,o),
(178,163,cs),
(178,219,o),
(211,248,o),
(327,248,cs),
(434,248,l),
(434,77,l),
(411,66,o),
(370,54,o),
(327,54,cs)
);
}
);
width = 654;
}
);
unicode = 38;
},
{
glyphname = paragraph;
layers = (
{
layerId = "B909A847-908A-4B08-AB88-1EC2F75AB3CA";
name = Regular;
shapes = (
{
closed = 1;
nodes = (
(50,545,o),
(95,500,o),
(150,500,c),
(150,15,ls),
(150,5,o),
(155,0,o),
(165,0,cs),
(200,0,ls),
(210,0,o),
(215,5,o),
(215,15,cs),
(215,635,l),
(310,635,l),
(310,15,ls),
(310,5,o),
(315,0,o),
(325,0,cs),
(360,0,ls),
(370,0,o),
(375,5,o),
(375,15,cs),
(375,635,l),
(410,635,ls),
(420,635,o),
(425,640,o),
(425,650,cs),
(425,685,ls),
(425,695,o),
(420,700,o),
(410,700,cs),
(150,700,ls),
(95,700,o),
(50,655,o),
(50,600,cs)
);
}
);
width = 485;
}
);
unicode = 182;
},
{
glyphname = section;
layers = (
{
layerId = "B909A847-908A-4B08-AB88-1EC2F75AB3CA";
name = Regular;
shapes = (
{
closed = 1;
nodes = (
(48,525,o),
(68,494,o),
(99,474,c),
(67,453,o),
(48,419,o),
(48,373,cs),
(48,285,o),
(116,255,o),
(198,240,cs),
(249,231,o),
(283,204,o),
(283,155,cs),
(283,100,o),
(248,60,o),
(188,60,cs),
(145,60,o),
(107,76,o),
(88,86,cs),
(79,91,o),
(72,89,o),
(68,81,cs),
(47,41,ls),
(42,32,o),
(45,24,o),
(54,20,cs),
(78,10,o),
(130,-10,o),
(188,-10,cs),
(298,-10,o),
(363,60,o),
(363,155,cs),
(363,197,o),
(349,229,o),
(326,251,c),
(350,277,o),
(363,313,o),
(363,355,cs),
(363,454,o),
(288,491,o),
(198,505,cs),
(146,513,o),
(118,535,o),
(118,573,cs),
(118,617,o),
(163,640,o),
(198,640,cs),
(231,640,o),
(260,629,o),
(283,618,cs),
(291,614,o),
(298,617,o),
(303,625,c),
(321,662,l),
(326,670,o),
(324,678,o),
(315,682,c),
(286,697,o),
(246,710,o),
(198,710,cs),
(113,710,o),
(48,657,o),
(48,573,cs)
);
},
{
closed = 1;
nodes = (
(146,313,o),
(118,335,o),
(118,373,cs),
(118,417,o),
(163,440,o),
(198,440,c),
(249,431,o),
(283,404,o),
(283,355,cs),
(283,329,o),
(275,306,o),
(260,290,c),
(241,296,o),
(220,301,o),
(198,305,cs)
);
}
);
width = 413;
}
);
unicode = 167;
},
{
glyphname = copyright;
layers = (
{
layerId = "B909A847-908A-4B08-AB88-1EC2F75AB3CA";
name = Regular;
shapes = (
{
closed = 1;
nodes = (
(50,106,o),
(166,-10,o),
(310,-10,cs),
(454,-10,o),
(570,106,o),
(570,250,cs),
(570,394,o),
(454,510,o),
(310,510,cs),
(166,510,o),
(50,394,o),
(50,250,cs)
);
},
{
closed = 1;
nodes = (
(100,366,o),
(194,460,o),
(310,460,cs),
(426,460,o),
(520,366,o),
(520,250,cs),
(520,134,o),
(426,40,o),
(310,40,cs),
(194,40,o),
(100,134,o),
(100,250,cs)
);
},
{
closed = 1;
nodes = (
(275,356,o),
(263,301,o),
(263,250,cs),
(263,199,o),
(275,144,o),
(325,144,cs),
(338,144,o),
(359,147,o),
(376,159,c),
(400,126,l),
(376,104,o),
(348,95,o),
(325,95,cs),
(236,95,o),
(200,173,o),
(200,250,cs),
(200,328,o),
(236,405,o),
(325,405,cs),
(348,405,o),
(376,396,o),
(400,374,c),
(376,341,l),
(359,352,o),
(338,356,o),
(325,356,cs)
);
}
);
width = 620;
}
);
unicode = 169;
},
{
glyphname = registered;
layers = (
{
layerId = "B909A847-908A-4B08-AB88-1EC2F75AB3CA";
name = Regular;
shapes = (
{
closed = 1;
nodes = (
(50,106,o),
(166,-10,o),
(310,-10,cs),
(454,-10,o),
(570,106,o),
(570,250,cs),
(570,394,o),
(454,510,o),
(310,510,cs),
(166,510,o),
(50,394,o),
(50,250,cs)
);
},
{
closed = 1;
nodes = (
(100,366,o),
(194,460,o),
(310,460,cs),
(426,460,o),
(520,366,o),
(520,250,cs),
(520,134,o),
(426,40,o),
(310,40,cs),
(194,40,o),
(100,134,o),
(100,250,cs)
);
},
{
closed = 1;
nodes = (
(212,115,ls),
(212,105,o),
(217,100,o),
(227,100,cs),
(245,100,ls),
(255,100,o),
(260,105,o),
(260,115,cs),
(260,219,l),
(272,216,o),
(287,215,o),
(300,215,cs),
(312,215,o),
(322,216,o),
(331,217,c),
(370,112,l),
(374,104,o),
(379,100,o),
(388,100,c),
(406,101,ls),
(418,102,o),
(422,109,o),
(417,119,c),
(369,228,l),
(407,246,o),
(419,278,o),
(419,310,cs),
(419,358,o),
(393,405,o),
(300,405,cs),
(271,405,o),
(244,397,o),
(222,383,c),
(215,379,o),
(212,373,o),
(212,365,cs)
);
},
{
closed = 1;
nodes = (
(356,364,o),
(372,334,o),
(372,310,cs),
(372,287,o),
(356,255,o),
(300,255,cs),
(286,255,o),
(270,257,o),
(260,263,c),
(260,356,l),
(270,362,o),
(286,364,o),
(300,364,cs)
);
}
);
width = 620;
}
);
unicode = 174;
},
{
glyphname = trademark;
layers = (
{
layerId = "B909A847-908A-4B08-AB88-1EC2F75AB3CA";
name = Regular;
shapes = (
{
closed = 1;
nodes = (
(154,660,l),
(205,660,ls),
(215,660,o),
(220,665,o),
(220,675,cs),
(220,685,ls),
(220,695,o),
(215,700,o),
(205,700,cs),
(65,700,ls),
(55,700,o),
(50,695,o),
(50,685,cs),
(50,675,ls),
(50,665,o),
(55,660,o),
(65,660,cs),
(116,660,l),
(116,457,ls),
(116,447,o),
(121,442,o),
(131,442,cs),
(139,442,ls),
(149,442,o),
(154,447,o),
(154,457,cs)
);
},
{
closed = 1;
nodes = (
(373,442,l),
(338,442,l),
(294,596,ls),
(290,611,o),
(278,609,o),
(277,595,cs),
(262,442,l),
(220,442,l),
(253,700,l),
(301,700,l),
(346,534,ls),
(350,519,o),
(360,519,o),
(364,534,cs),
(409,700,l),
(457,700,l),
(490,442,l),
(449,442,l),
(434,595,ls),
(432,610,o),
(420,611,o),
(416,596,cs)
);
}
);
width = 540;
}
);
unicode = 8482;
},
{
glyphname = degree;
layers = (
{
layerId = "B909A847-908A-4B08-AB88-1EC2F75AB3CA";
name = Regular;
shapes = (
{
closed = 1;
nodes = (
(40,472,o),
(112,400,o),
(202,400,cs),
(292,400,o),
(365,472,o),
(365,562,cs),
(365,652,o),
(292,725,o),
(202,725,cs),
(112,725,o),
(40,652,o),
(40,562,cs)
);
},
{
closed = 1;
nodes = (
(105,616,o),
(148,660,o),
(202,660,cs),
(256,660,o),
(300,616,o),
(300,562,cs),
(300,508,o),
(256,465,o),
(202,465,cs),
(148,465,o),
(105,508,o),
(105,562,cs)
);
}
);
width = 405;
}
);
unicode = 176;
},
{
glyphname = bar;
layers = (
{
layerId = "B909A847-908A-4B08-AB88-1EC2F75AB3CA";
name = Regular;
shapes = (
{
closed = 1;
nodes = (
(105,-185,ls),
(105,-195,o),
(110,-200,o),
(120,-200,cs),
(155,-200,ls),
(165,-200,o),
(170,-195,o),
(170,-185,cs),
(170,685,ls),
(170,695,o),
(165,700,o),
(155,700,cs),
(120,700,ls),
(110,700,o),
(105,695,o),
(105,685,cs)
);
}
);
width = 275;
}
);
unicode = 124;
},
{
glyphname = dagger;
layers = (
{
layerId = "B909A847-908A-4B08-AB88-1EC2F75AB3CA";
name = Regular;
shapes = (
{
closed = 1;
nodes = (
(49,570,ls),
(49,560,o),
(54,555,o),
(64,555,cs),
(159,555,l),
(159,265,ls),
(159,255,o),
(164,250,o),
(174,250,cs),
(214,250,ls),
(224,250,o),
(229,255,o),
(229,265,cs),
(229,555,l),
(324,555,ls),
(334,555,o),
(339,560,o),
(339,570,cs),
(339,604,ls),
(339,614,o),
(334,619,o),
(324,619,cs),
(229,619,l),
(229,735,ls),
(229,745,o),
(224,750,o),
(214,750,cs),
(174,750,ls),
(164,750,o),
(159,745,o),
(159,735,cs),
(159,619,l),
(64,619,ls),
(54,619,o),
(49,614,o),
(49,604,cs)
);
}
);
width = 386;
}
);
unicode = 8224;
},
{
glyphname = cent;
layers = (
{
layerId = "B909A847-908A-4B08-AB88-1EC2F75AB3CA";
name = Regular;
shapes = (
{
closed = 1;
nodes = (
(343,70,l),
(338,78,o),
(332,80,o),
(323,77,c),
(306,70,o),
(285,64,o),
(263,61,c),
(263,438,l),
(285,436,o),
(306,429,o),
(323,422,c),
(332,419,o),
(338,421,o),
(343,429,c),
(362,462,ls),
(367,471,o),
(365,479,o),
(356,483,cs),
(331,494,o),
(300,506,o),
(263,509,c),
(263,570,ls),
(263,580,o),
(258,585,o),
(248,585,cs),
(238,585,ls),
(228,585,o),
(223,580,o),
(223,570,cs),
(223,509,l),
(85,500,o),
(30,375,o),
(30,250,cs),
(30,125,o),
(85,0,o),
(223,-9,c),
(223,-70,ls),
(223,-80,o),
(228,-85,o),
(238,-85,cs),
(248,-85,ls),
(258,-85,o),
(263,-80,o),
(263,-70,cs),
(263,-9,l),
(301,-6,o),
(332,5,o),
(357,17,cs),
(365,21,o),
(367,29,o),
(362,37,c)
);
},
{
closed = 1;
nodes = (
(110,342,o),
(136,429,o),
(223,439,c),
(223,61,l),
(136,71,o),
(110,158,o),
(110,250,cs)
);
}
);
width = 400;
}
);
unicode = 162;
},
{
glyphname = dollar;
layers = (
{
layerId = "B909A847-908A-4B08-AB88-1EC2F75AB3CA";
name = Regular;
shapes = (
{
closed = 1;
nodes = (
(235,-68,ls),
(235,-78,o),
(240,-83,o),
(250,-83,cs),
(270,-83,ls),
(280,-83,o),
(285,-78,o),
(285,-68,cs),
(285,-9,l),
(431,-1,o),
(499,84,o),
(499,198,cs),
(499,321,o),
(423,356,o),
(285,394,c),
(285,601,l),
(323,597,o),
(358,585,o),
(393,568,cs),
(401,564,o),
(408,566,o),
(413,575,cs),
(434,613,ls),
(439,622,o),
(437,629,o),
(428,633,c),
(386,657,o),
(340,673,o),
(285,676,c),
(285,720,ls),
(285,730,o),
(280,735,o),
(270,735,cs),
(250,735,ls),
(240,735,o),
(235,730,o),
(235,720,cs),
(235,675,l),
(157,665,o),
(89,607,o),
(89,499,cs),
(89,391,o),
(156,348,o),
(235,323,c),
(235,66,l),
(196,70,o),
(163,84,o),
(129,103,c),
(121,107,o),
(114,105,o),
(109,96,c),
(88,54,l),
(83,45,o),
(85,38,o),
(93,34,c),
(135,10,o),
(182,-5,o),
(235,-9,c)
);
},
{
closed = 1;
nodes = (
(171,546,o),
(192,587,o),
(235,598,c),
(235,409,l),
(193,425,o),
(171,454,o),
(171,500,cs)
);
},
{
closed = 1;
nodes = (
(409,124,o),
(363,75,o),
(285,66,c),
(285,308,l),
(356,288,o),
(409,265,o),
(409,198,cs)
);
}
);
width = 578;
}
);
unicode = 36;
},
{
glyphname = euro;
layers = (
{
layerId = "B909A847-908A-4B08-AB88-1EC2F75AB3CA";
name = Regular;
shapes = (
{
closed = 1;
nodes = (
(80,359,l),
(80,314,l),
(47,314,ls),
(38,314,o),
(33,310,o),
(29,302,c),
(21,281,ls),
(17,271,o),
(21,264,o),
(33,264,cs),
(84,264,l),
(104,113,o),
(190,-10,o),
(370,-10,cs),
(432,-10,o),
(489,6,o),
(537,33,cs),
(546,38,o),
(548,45,o),
(543,54,cs),
(522,92,ls),
(517,101,o),
(510,103,o),
(502,99,cs),
(459,79,o),
(417,65,o),
(370,65,cs),
(249,65,o),
(191,153,o),
(175,264,c),
(367,264,ls),
(376,264,o),
(381,268,o),
(385,276,c),
(393,297,ls),
(397,307,o),
(393,314,o),
(381,314,cs),
(170,314,l),
(170,359,l),
(405,359,ls),
(414,359,o),
(419,363,o),
(423,371,c),
(431,392,ls),
(435,402,o),
(431,409,o),
(419,409,cs),
(175,409,l),
(193,516,o),
(251,602,o),
(370,602,cs),
(417,602,o),
(459,588,o),
(502,568,cs),
(511,564,o),
(517,566,o),
(522,575,cs),
(543,613,ls),
(548,622,o),
(546,629,o),
(537,634,cs),
(489,661,o),
(432,677,o),
(370,677,cs),
(192,677,o),
(106,557,o),
(85,409,c),
(47,409,ls),
(38,409,o),
(33,405,o),
(29,397,c),
(21,376,ls),
(17,366,o),
(21,359,o),
(33,359,cs)
);
}
);
width = 574;
}
);
unicode = 8364;
},
{
glyphname = sterling;
layers = (
{
layerId = "B909A847-908A-4B08-AB88-1EC2F75AB3CA";
name = Regular;
shapes = (
{
closed = 1;
nodes = (
(40,315,ls),
(40,305,o),
(45,300,o),
(55,300,cs),
(96,300,l),
(101,234,o),
(103,146,o),
(47,83,cs),
(42,77,o),
(40,72,o),
(40,64,cs),
(40,18,ls),
(40,7,o),
(47,3,o),
(57,6,cs),
(176,45,o),
(288,-10,o),
(360,-10,cs),
(422,-10,o),
(479,6,o),
(527,33,cs),
(536,38,o),
(538,45,o),
(533,54,cs),
(517,83,l),
(512,91,o),
(506,93,o),
(497,90,cs),
(454,76,o),
(407,65,o),
(360,65,cs),
(295,65,o),
(235,120,o),
(110,95,c),
(174,137,o),
(169,230,o),
(166,300,c),
(277,300,ls),
(286,300,o),
(291,304,o),
(295,312,c),
(303,333,ls),
(307,343,o),
(303,350,o),
(291,350,cs),
(165,350,l),
(170,480,o),
(211,597,o),
(350,597,cs),
(397,597,o),
(452,590,o),
(497,576,c),
(506,574,o),
(512,576,o),
(517,584,c),
(533,613,ls),
(538,622,o),
(536,629,o),
(527,634,cs),
(479,661,o),
(422,677,o),
(360,677,cs),
(159,677,o),
(99,523,o),
(95,350,c),
(55,350,ls),
(45,350,o),
(40,345,o),
(40,335,cs)
);
}
);
width = 550;
}
);
unicode = 163;
},
{
glyphname = yen;
layers = (
{
layerId = "B909A847-908A-4B08-AB88-1EC2F75AB3CA";
name = Regular;
shapes = (
{
closed = 1;
nodes = (
(260,350,l),
(115,656,l),
(112,664,o),
(106,667,o),
(98,667,cs),
(40,667,ls),
(28,667,o),
(24,660,o),
(29,649,c),
(193,330,l),
(100,330,ls),
(90,330,o),
(85,325,o),
(85,315,cs),
(85,295,ls),
(85,285,o),
(90,280,o),
(100,280,cs),
(218,280,l),
(220,277,l),
(220,230,l),
(100,230,ls),
(90,230,o),
(85,225,o),
(85,215,cs),
(85,195,ls),
(85,185,o),
(90,180,o),
(100,180,cs),
(220,180,l),
(220,15,ls),
(220,5,o),
(225,0,o),
(235,0,cs),
(285,0,ls),
(295,0,o),
(300,5,o),
(300,15,cs),
(300,180,l),
(420,180,ls),
(430,180,o),
(435,185,o),
(435,195,cs),
(435,215,ls),
(435,225,o),
(430,230,o),
(420,230,cs),
(300,230,l),
(300,277,l),
(301,280,l),
(420,280,ls),
(430,280,o),
(435,285,o),
(435,295,cs),
(435,315,ls),
(435,325,o),
(430,330,o),
(420,330,cs),
(327,330,l),
(491,649,l),
(496,660,o),
(492,667,o),
(480,667,cs),
(422,667,ls),
(414,667,o),
(408,664,o),
(405,656,c)
);
}
);
width = 520;
}
);
unicode = 165;
},
{
glyphname = plus;
lastChange = "2024-12-23 17:41:24 +0000";
layers = (
{
layerId = "B909A847-908A-4B08-AB88-1EC2F75AB3CA";
name = Regular;
shapes = (
{
closed = 1;
nodes = (
(80,233,ls),
(80,223,o),
(85,218,o),
(95,218,cs),
(248,218,l),
(248,65,ls),
(248,55,o),
(253,50,o),
(263,50,cs),
(298,50,ls),
(308,50,o),
(313,55,o),
(313,65,cs),
(313,218,l),
(465,218,ls),
(475,218,o),
(480,223,o),
(480,233,cs),
(480,268,ls),
(480,278,o),
(475,283,o),
(465,283,cs),
(313,283,l),
(313,435,ls),
(313,445,o),
(308,450,o),
(298,450,cs),
(263,450,ls),
(253,450,o),
(248,445,o),
(248,435,cs),
(248,283,l),
(95,283,ls),
(85,283,o),
(80,278,o),
(80,268,cs)
);
}
);
width = 560;
}
);
unicode = 43;
},
{
glyphname = minus;
layers = (
{
layerId = "B909A847-908A-4B08-AB88-1EC2F75AB3CA";
name = Regular;
shapes = (
{
closed = 1;
nodes = (
(80,233,ls),
(80,223,o),
(85,218,o),
(95,218,cs),
(465,218,ls),
(475,218,o),
(480,223,o),
(480,233,cs),
(480,268,ls),
(480,278,o),
(475,283,o),
(465,283,cs),
(95,283,ls),
(85,283,o),
(80,278,o),
(80,268,cs)
);
}
);
width = 560;
}
);
unicode = 8722;
},
{
glyphname = multiply;
layers = (
{
layerId = "B909A847-908A-4B08-AB88-1EC2F75AB3CA";
name = Regular;
shapes = (
{
closed = 1;
nodes = (
(123,376,ls),
(116,369,o),
(116,361,o),
(123,355,c),
(233,250,l),
(123,145,l),
(116,139,o),
(116,131,o),
(123,124,cs),
(154,93,ls),
(161,86,o),
(169,86,o),
(176,93,cs),
(281,202,l),
(385,93,l),
(391,86,o),
(399,86,o),
(406,93,cs),
(437,124,ls),
(444,131,o),
(444,139,o),
(437,146,cs),
(329,250,l),
(437,354,ls),
(444,361,o),
(444,369,o),
(437,376,cs),
(406,407,ls),
(399,414,o),
(391,414,o),
(385,407,c),
(281,298,l),
(176,407,ls),
(169,414,o),
(161,414,o),
(154,407,cs)
);
}
);
width = 560;
}
);
unicode = 215;
},
{
glyphname = divide;
layers = (
{
layerId = "B909A847-908A-4B08-AB88-1EC2F75AB3CA";
name = Regular;
shapes = (
{
closed = 1;
nodes = (
(233,376,o),
(254,355,o),
(280,355,cs),
(306,355,o),
(328,376,o),
(328,402,cs),
(328,428,o),
(306,450,o),
(280,450,cs),
(254,450,o),
(233,428,o),
(233,402,cs)
);
},
{
closed = 1;
nodes = (
(80,233,ls),
(80,223,o),
(85,218,o),
(95,218,cs),
(465,218,ls),
(475,218,o),
(480,223,o),
(480,233,cs),
(480,268,ls),
(480,278,o),
(475,283,o),
(465,283,cs),
(95,283,ls),
(85,283,o),
(80,278,o),
(80,268,cs)
);
},
{
closed = 1;
nodes = (
(233,71,o),
(254,50,o),
(280,50,cs),
(306,50,o),
(328,71,o),
(328,97,cs),
(328,123,o),
(306,145,o),
(280,145,cs),
(254,145,o),
(233,123,o),
(233,97,cs)
);
}
);
width = 560;
}
);
unicode = 247;
},
{
glyphname = equal;
layers = (
{
layerId = "B909A847-908A-4B08-AB88-1EC2F75AB3CA";
name = Regular;
shapes = (
{
closed = 1;
nodes = (
(80,313,ls),
(80,303,o),
(85,298,o),
(95,298,cs),
(465,298,ls),
(475,298,o),
(480,303,o),
(480,313,cs),
(480,348,ls),
(480,358,o),
(475,363,o),
(465,363,cs),
(95,363,ls),
(85,363,o),
(80,358,o),
(80,348,cs)
);
},
{
closed = 1;
nodes = (
(80,153,ls),
(80,143,o),
(85,138,o),
(95,138,cs),
(465,138,ls),
(475,138,o),
(480,143,o),
(480,153,cs),
(480,188,ls),
(480,198,o),
(475,203,o),
(465,203,cs),
(95,203,ls),
(85,203,o),
(80,198,o),
(80,188,cs)
);
}
);
width = 560;
}
);
unicode = 61;
},
{
glyphname = notequal;
layers = (
{
layerId = "B909A847-908A-4B08-AB88-1EC2F75AB3CA";
name = Regular;
shapes = (
{
closed = 1;
nodes = (
(80,313,ls),
(80,303,o),
(85,298,o),
(95,298,cs),
(276,298,l),
(231,203,l),
(95,203,ls),
(85,203,o),
(80,198,o),
(80,188,cs),
(80,153,ls),
(80,143,o),
(85,138,o),
(95,138,cs),
(200,138,l),
(137,8,ls),
(133,0,o),
(136,-7,o),
(144,-12,c),
(162,-21,l),
(171,-26,o),
(178,-23,o),
(183,-14,c),
(255,138,l),
(465,138,ls),
(475,138,o),
(480,143,o),
(480,153,cs),
(480,188,ls),
(480,198,o),
(475,203,o),
(465,203,cs),
(286,203,l),
(332,298,l),
(465,298,ls),
(475,298,o),
(480,303,o),
(480,313,cs),
(480,348,ls),
(480,358,o),
(475,363,o),
(465,363,cs),
(363,363,l),
(423,487,ls),
(427,495,o),
(425,502,o),
(416,507,cs),
(399,516,ls),
(390,521,o),
(383,518,o),
(378,509,c),
(308,363,l),
(95,363,ls),
(85,363,o),
(80,358,o),
(80,348,cs)
);
}
);
width = 560;
}
);
unicode = 8800;
},
{
glyphname = greater;
lastChange = "2024-12-23 17:42:21 +0000";
layers = (
{
layerId = "B909A847-908A-4B08-AB88-1EC2F75AB3CA";
name = Regular;
shapes = (
{
closed = 1;
nodes = (
(30,385,l),
(30,470,l),
(530,293,l),
(530,207,l),
(30,30,l),
(30,115,l),
(411,240,l),
(424,245,o),
(424,255,o),
(411,260,c)
);
}
);
width = 560;
}
);
unicode = 62;
},
{
glyphname = less;
lastChange = "2024-12-23 17:42:38 +0000";
layers = (
{
layerId = "B909A847-908A-4B08-AB88-1EC2F75AB3CA";
name = Regular;
shapes = (
{
closed = 1;
nodes = (
(530,452,ls),
(530,463,o),
(523,468,o),
(513,464,c),
(42,297,ls),
(34,294,o),
(30,289,o),
(30,280,cs),
(30,220,ls),
(30,211,o),
(34,206,o),
(42,203,cs),
(513,36,l),
(523,32,o),
(530,37,o),
(530,48,cs),
(530,102,ls),
(530,111,o),
(526,116,o),
(518,119,c),
(120,250,l),
(518,381,l),
(526,384,o),
(530,389,o),
(530,398,cs)
);
}
);
width = 560;
}
);
unicode = 60;
},
{
glyphname = greaterequal;
layers = (
{
layerId = "B909A847-908A-4B08-AB88-1EC2F75AB3CA";
name = Regular;
shapes = (
{
closed = 1;
nodes = (
(80,453,l),
(80,524,l),
(480,383,l),
(480,314,l),
(80,173,l),
(80,244,l),
(370,339,ls),
(384,344,o),
(384,354,o),
(370,359,cs)
);
},
{
closed = 1;
nodes = (
(80,150,l),
(480,150,l),
(480,85,l),
(80,85,l)
);
}
);
width = 560;
}
);
unicode = 8805;
},
{
glyphname = lessequal;
layers = (
{
layerId = "B909A847-908A-4B08-AB88-1EC2F75AB3CA";
name = Regular;
shapes = (
{
closed = 1;
nodes = (
(480,506,ls),
(480,517,o),
(473,522,o),
(463,518,c),
(92,387,ls),
(84,384,o),
(80,379,o),
(80,370,cs),
(80,327,ls),
(80,318,o),
(84,313,o),
(92,310,cs),
(463,179,l),
(473,175,o),
(480,180,o),
(480,191,cs),
(480,231,ls),
(480,240,o),
(476,245,o),
(468,248,c),
(160,349,l),
(468,449,l),
(476,452,o),
(480,457,o),
(480,466,cs)
);
},
{
closed = 1;
nodes = (
(80,100,ls),
(80,90,o),
(85,85,o),
(95,85,cs),
(465,85,ls),
(475,85,o),
(480,90,o),
(480,100,cs),
(480,135,ls),
(480,145,o),
(475,150,o),
(465,150,cs),
(95,150,ls),
(85,150,o),
(80,145,o),
(80,135,cs)
);
}
);
width = 560;
}
);
unicode = 8804;
},
{
glyphname = plusminus;
layers = (
{
layerId = "B909A847-908A-4B08-AB88-1EC2F75AB3CA";
name = Regular;
shapes = (
{
closed = 1;
nodes = (
(80,383,ls),
(80,373,o),
(85,368,o),
(95,368,cs),
(248,368,l),
(248,215,ls),
(248,205,o),
(253,200,o),
(263,200,cs),
(298,200,ls),
(308,200,o),
(313,205,o),
(313,215,cs),
(313,368,l),
(465,368,ls),
(475,368,o),
(480,373,o),
(480,383,cs),
(480,418,ls),
(480,428,o),
(475,433,o),
(465,433,cs),
(313,433,l),
(313,585,ls),
(313,595,o),
(308,600,o),
(298,600,cs),
(263,600,ls),
(253,600,o),
(248,595,o),
(248,585,cs),
(248,433,l),
(95,433,ls),
(85,433,o),
(80,428,o),
(80,418,cs)
);
},
{
closed = 1;
nodes = (
(80,100,ls),
(80,90,o),
(85,85,o),
(95,85,cs),
(465,85,ls),
(475,85,o),
(480,90,o),
(480,100,cs),
(480,135,ls),
(480,145,o),
(475,150,o),
(465,150,cs),
(95,150,ls),
(85,150,o),
(80,145,o),
(80,135,cs)
);
}
);
width = 560;
}
);
unicode = 177;
},
{
glyphname = approxequal;
lastChange = "2024-12-23 17:43:09 +0000";
layers = (
{
layerId = "B909A847-908A-4B08-AB88-1EC2F75AB3CA";
name = Regular;
shapes = (
{
closed = 1;
nodes = (
(72,295,ls),
(77,286,o),
(84,285,o),
(93,290,c),
(111,302,o),
(146,321,o),
(180,321,cs),
(230,321,o),
(281,291,o),
(281,291,cs),
(281,291,o),
(330,266,o),
(380,266,cs),
(429,266,o),
(475,300,o),
(495,317,cs),
(502,323,o),
(503,330,o),
(499,338,c),
(488,357,ls),
(483,366,o),
(476,367,o),
(467,362,c),
(449,350,o),
(414,331,o),
(380,331,cs),
(330,331,o),
(280,361,o),
(280,361,cs),
(280,361,o),
(230,386,o),
(180,386,cs),
(131,386,o),
(85,352,o),
(65,335,cs),
(58,329,o),
(57,322,o),
(62,314,c)
);
},
{
closed = 1;
nodes = (
(72,145,ls),
(77,136,o),
(84,135,o),
(93,140,c),
(111,152,o),
(146,171,o),
(180,171,cs),
(230,171,o),
(281,141,o),
(281,141,cs),
(281,141,o),
(330,116,o),
(380,116,cs),
(429,116,o),
(475,150,o),
(495,167,cs),
(502,173,o),
(503,180,o),
(499,188,c),
(488,207,ls),
(483,216,o),
(476,217,o),
(467,212,c),
(449,200,o),
(414,181,o),
(380,181,cs),
(330,181,o),
(280,211,o),
(280,211,cs),
(280,211,o),
(230,236,o),
(180,236,cs),
(131,236,o),
(85,202,o),
(65,185,cs),
(58,179,o),
(57,172,o),
(62,164,c)
);
}
);
width = 560;
}
);
unicode = 8776;
},
{
glyphname = asciitilde;
lastChange = "2024-12-23 17:43:23 +0000";
layers = (
{
layerId = "B909A847-908A-4B08-AB88-1EC2F75AB3CA";
name = Regular;
shapes = (
{
closed = 1;
nodes = (
(72,219,ls),
(77,210,o),
(84,209,o),
(93,214,c),
(111,226,o),
(146,245,o),
(180,245,cs),
(230,245,o),
(281,215,o),
(281,215,cs),
(281,215,o),
(330,190,o),
(380,190,cs),
(429,190,o),
(475,224,o),
(495,241,cs),
(502,247,o),
(503,254,o),
(499,262,c),
(488,281,ls),
(483,290,o),
(476,291,o),
(467,286,c),
(449,274,o),
(414,255,o),
(380,255,cs),
(330,255,o),
(280,285,o),
(280,285,cs),
(280,285,o),
(230,310,o),
(180,310,cs),
(131,310,o),
(85,276,o),
(65,259,cs),
(58,253,o),
(57,246,o),
(62,238,c)
);
}
);
width = 560;
}
);
unicode = 126;
},
{
glyphname = logicalnot;
layers = (
{
layerId = "B909A847-908A-4B08-AB88-1EC2F75AB3CA";
name = Regular;
shapes = (
{
closed = 1;
nodes = (
(80,238,ls),
(80,228,o),
(85,223,o),
(95,223,cs),
(425,223,l),
(425,128,ls),
(425,118,o),
(430,113,o),
(440,113,cs),
(465,113,ls),
(475,113,o),
(480,118,o),
(480,128,cs),
(480,273,ls),
(480,283,o),
(475,288,o),
(465,288,cs),
(95,288,ls),
(85,288,o),
(80,283,o),
(80,273,cs)
);
}
);
width = 560;
}
);
unicode = 172;
},
{
glyphname = asciicircum;
layers = (
{
layerId = "B909A847-908A-4B08-AB88-1EC2F75AB3CA";
name = Regular;
shapes = (
{
closed = 1;
nodes = (
(120,500,l),
(50,500,l),
(191,800,l),
(260,800,l),
(401,500,l),
(330,500,l),
(235,699,ls),
(230,710,o),
(220,710,o),
(215,699,cs)
);
}
);
width = 451;
}
);
unicode = 94;
},
{
glyphname = percent;
layers = (
{
layerId = "B909A847-908A-4B08-AB88-1EC2F75AB3CA";
name = Regular;
shapes = (
{
closed = 1;
nodes = (
(188,11,l),
(184,2,o),
(185,-5,o),
(193,-10,cs),
(220,-28,ls),
(228,-33,o),
(236,-31,o),
(241,-23,cs),
(639,651,l),
(643,660,o),
(642,667,o),
(634,672,cs),
(607,690,ls),
(599,695,o),
(591,693,o),
(586,685,cs)
);
},
{
closed = 1;
nodes = (
(60,419,o),
(103,325,o),
(211,325,cs),
(319,325,o),
(362,419,o),
(362,507,cs),
(362,595,o),
(319,685,o),
(211,685,cs),
(103,685,o),
(60,595,o),
(60,507,cs)
);
},
{
closed = 1;
nodes = (
(135,565,o),
(150,633,o),
(211,633,cs),
(270,633,o),
(287,565,o),
(287,507,cs),
(287,448,o),
(270,377,o),
(210,377,cs),
(150,377,o),
(135,448,o),
(135,507,cs)
);
},
{
closed = 1;
nodes = (
(465,84,o),
(508,-10,o),
(616,-10,cs),
(724,-10,o),
(767,84,o),
(767,172,cs),
(767,260,o),
(724,350,o),
(616,350,cs),
(508,350,o),
(465,260,o),
(465,172,cs)
);
},
{
closed = 1;
nodes = (
(540,230,o),
(555,298,o),
(616,298,cs),
(675,298,o),
(692,230,o),
(692,172,cs),
(692,113,o),
(675,42,o),
(615,42,cs),
(555,42,o),
(540,113,o),
(540,172,cs)
);
}
);
width = 827;
}
);
unicode = 37;
},
{
glyphname = perthousand;
layers = (
{
layerId = "B909A847-908A-4B08-AB88-1EC2F75AB3CA";
name = Regular;
shapes = (
{
closed = 1;
nodes = (
(218,11,l),
(214,2,o),
(215,-5,o),
(223,-10,cs),
(250,-28,ls),
(258,-33,o),
(266,-31,o),
(271,-23,cs),
(669,651,l),
(673,660,o),
(672,667,o),
(664,672,cs),
(637,690,ls),
(629,695,o),
(621,693,o),
(616,685,cs)
);
},
{
closed = 1;
nodes = (
(90,419,o),
(133,325,o),
(241,325,cs),
(349,325,o),
(392,419,o),
(392,507,cs),
(392,595,o),
(349,685,o),
(241,685,cs),
(133,685,o),
(90,595,o),
(90,507,cs)
);
},
{
closed = 1;
nodes = (
(165,565,o),
(180,633,o),
(241,633,cs),
(300,633,o),
(317,565,o),
(317,507,cs),
(317,448,o),
(300,377,o),
(240,377,cs),
(180,377,o),
(165,448,o),
(165,507,cs)
);
},
{
closed = 1;
nodes = (
(495,84,o),
(538,-10,o),
(646,-10,cs),
(754,-10,o),
(797,84,o),
(797,172,cs),
(797,260,o),
(754,350,o),
(646,350,cs),
(538,350,o),
(495,260,o),
(495,172,cs)
);
},
{
closed = 1;
nodes = (
(837,84,o),
(880,-10,o),
(988,-10,cs),
(1096,-10,o),
(1139,84,o),
(1139,172,cs),
(1139,260,o),
(1096,350,o),
(988,350,cs),
(880,350,o),
(837,260,o),
(837,172,cs)
);
},
{
closed = 1;
nodes = (
(570,230,o),
(585,298,o),
(646,298,cs),
(705,298,o),
(722,230,o),
(722,172,cs),
(722,113,o),
(705,42,o),
(645,42,cs),
(585,42,o),
(570,113,o),
(570,172,cs)
);
},
{
closed = 1;
nodes = (
(912,230,o),
(927,298,o),
(988,298,cs),
(1047,298,o),
(1064,230,o),
(1064,172,cs),
(1064,113,o),
(1047,42,o),
(987,42,cs),
(927,42,o),
(912,113,o),
(912,172,cs)
);
}
);
width = 1179;
}
);
unicode = 8240;
},
{
glyphname = dieresiscomb;
lastChange = "2024-12-23 18:13:08 +0000";
layers = (
{
layerId = "B909A847-908A-4B08-AB88-1EC2F75AB3CA";
name = Regular;
shapes = (
{
closed = 1;
nodes = (
(130,626,o),
(151,605,o),
(177,605,cs),
(203,605,o),
(225,626,o),
(225,652,cs),
(225,678,o),
(203,700,o),
(177,700,cs),
(151,700,o),
(130,678,o),
(130,652,cs)
);
},
{
closed = 1;
nodes = (
(275,626,o),
(296,605,o),
(322,605,cs),
(348,605,o),
(370,626,o),
(370,652,cs),
(370,678,o),
(348,700,o),
(322,700,cs),
(296,700,o),
(275,678,o),
(275,652,cs)
);
}
);
width = 500;
}
);
unicode = 776;
},
{
glyphname = dotaccentcomb;
lastChange = "2024-12-23 18:13:25 +0000";
layers = (
{
anchors = (
{
name = _top;
pos = (250,500);
},
{
name = top;
pos = (250,706);
}
);
layerId = "B909A847-908A-4B08-AB88-1EC2F75AB3CA";
name = Regular;
shapes = (
{
closed = 1;
nodes = (
(200,684,o),
(223,706,o),
(250,706,cs),
(278,706,o),
(300,684,o),
(300,656,cs),
(300,629,o),
(278,606,o),
(250,606,cs),
(223,606,o),
(200,629,o),
(200,656,cs)
);
}
);
width = 500;
}
);
unicode = 775;
},
{
glyphname = gravecomb;
lastChange = "2024-12-23 18:13:50 +0000";
layers = (
{
anchors = (
{
name = _top;
pos = (250,500);
},
{
name = top;
pos = (250,735);
}
);
layerId = "B909A847-908A-4B08-AB88-1EC2F75AB3CA";
name = Regular;
shapes = (
{
closed = 1;
nodes = (
(307,583,ls),
(315,578,o),
(323,580,o),
(327,588,c),
(345,619,ls),
(350,628,o),
(348,635,o),
(340,640,cs),
(197,732,ls),
(189,737,o),
(181,735,o),
(176,727,c),
(154,688,l),
(150,680,o),
(152,672,o),
(160,668,c)
);
}
);
width = 500;
}
);
unicode = 768;
},
{
glyphname = acutecomb;
lastChange = "2024-12-23 18:14:08 +0000";
layers = (
{
anchors = (
{
name = _top;
pos = (250,500);
},
{
name = top;
pos = (250,735);
}
);
layerId = "B909A847-908A-4B08-AB88-1EC2F75AB3CA";
name = Regular;
shapes = (
{
closed = 1;
nodes = (
(340,668,l),
(348,672,o),
(350,680,o),
(346,688,c),
(324,727,l),
(319,735,o),
(311,737,o),
(303,732,cs),
(160,640,ls),
(152,635,o),
(151,628,o),
(156,619,cs),
(172,592,ls),
(177,584,o),
(184,582,o),
(193,587,cs)
);
}
);
width = 500;
}
);
unicode = 769;
},
{
glyphname = hungarumlautcomb;
lastChange = "2024-12-23 21:12:08 +0000";
layers = (
{
anchors = (
{
name = _top;
pos = (169,500);
},
{
name = top;
pos = (222,700);
}
);
layerId = "B909A847-908A-4B08-AB88-1EC2F75AB3CA";
name = Regular;
shapes = (
{
closed = 1;
nodes = (
(84,518,l),
(79,507,o),
(83,500,o),
(95,500,cs),
(118,500,ls),
(126,500,o),
(132,503,o),
(136,510,cs),
(235,682,ls),
(241,692,o),
(236,700,o),
(224,700,cs),
(187,700,ls),
(179,700,o),
(173,697,o),
(170,689,c)
);
},
{
closed = 1;
nodes = (
(209,518,l),
(204,507,o),
(208,500,o),
(220,500,cs),
(243,500,ls),
(251,500,o),
(257,503,o),
(261,510,cs),
(360,682,ls),
(366,692,o),
(361,700,o),
(349,700,cs),
(312,700,ls),
(304,700,o),
(298,697,o),
(295,689,c)
);
}
);
width = 445;
}
);
unicode = 779;
},
{
glyphname = caroncomb.alt;
lastChange = "2024-12-23 19:48:13 +0000";
layers = (
{
anchors = (
{
name = _topright;
pos = (50,700);
}
);
layerId = "B909A847-908A-4B08-AB88-1EC2F75AB3CA";
shapes = (
{
closed = 1;
nodes = (
(78,515,ls),
(78,506,o),
(85,500,o),
(94,500,cs),
(104,500,ls),
(113,500,o),
(120,506,o),
(120,515,cs),
(128,685,ls),
(128,695,o),
(124,700,o),
(114,700,cs),
(84,700,ls),
(74,700,o),
(70,695,o),
(70,685,cs)
);
}
);
width = 198;
},
{
associatedMasterId = "B909A847-908A-4B08-AB88-1EC2F75AB3CA";
layerId = m002;
name = Black;
shapes = (
{
closed = 1;
nodes = (
(45,440,l),
(145,440,l),
(165,700,l),
(25,700,l)
);
}
);
width = 190;
}
);
metricLeft = "=i";
metricRight = "=i";
},
{
glyphname = circumflexcomb;
lastChange = "2024-12-23 18:15:19 +0000";
layers = (
{
anchors = (
{
name = _top;
pos = (250,500);
},
{
name = top;
pos = (250,722);
}
);
layerId = "B909A847-908A-4B08-AB88-1EC2F75AB3CA";
name = Regular;
shapes = (
{
closed = 1;
nodes = (
(102,567,ls),
(107,559,o),
(114,558,o),
(123,563,c),
(250,640,l),
(377,563,l),
(386,558,o),
(393,559,o),
(398,567,cs),
(412,588,ls),
(417,596,o),
(416,603,o),
(408,609,cs),
(260,717,l),
(253,723,o),
(247,723,o),
(240,717,c),
(92,609,ls),
(84,603,o),
(83,596,o),
(88,588,cs)
);
}
);
width = 500;
}
);
unicode = 770;
},
{
glyphname = caroncomb;
lastChange = "2024-12-23 18:15:36 +0000";
layers = (
{
anchors = (
{
name = _top;
pos = (250,500);
},
{
name = top;
pos = (250,695);
}
);
layerId = "B909A847-908A-4B08-AB88-1EC2F75AB3CA";
name = Regular;
shapes = (
{
closed = 1;
nodes = (
(139,676,ls),
(133,669,o),
(134,662,o),
(141,655,c),
(239,565,l),
(246,558,o),
(254,558,o),
(261,565,c),
(359,655,l),
(366,662,o),
(367,669,o),
(361,676,cs),
(350,689,l),
(343,696,o),
(336,697,o),
(328,691,cs),
(250,630,l),
(172,691,ls),
(164,697,o),
(157,696,o),
(150,689,c)
);
}
);
width = 500;
}
);
unicode = 780;
},
{
glyphname = brevecomb;
lastChange = "2024-12-23 18:15:56 +0000";
layers = (
{
anchors = (
{
name = _top;
pos = (250,500);
},
{
name = top;
pos = (250,700);
}
);
layerId = "B909A847-908A-4B08-AB88-1EC2F75AB3CA";
name = Regular;
shapes = (
{
closed = 1;
nodes = (
(102,700,ls),
(92,700,o),
(87,695,o),
(88,685,cs),
(95,602,o),
(164,538,o),
(249,538,cs),
(334,538,o),
(404,602,o),
(411,685,cs),
(412,695,o),
(407,700,o),
(397,700,cs),
(361,700,ls),
(352,700,o),
(347,695,o),
(346,686,c),
(339,639,o),
(298,603,o),
(249,603,cs),
(200,603,o),
(160,639,o),
(153,686,c),
(152,695,o),
(147,700,o),
(138,700,cs)
);
}
);
width = 499;
}
);
unicode = 774;
},
{
glyphname = ringcomb;
lastChange = "2024-12-23 18:16:17 +0000";
layers = (
{
anchors = (
{
name = _top;
pos = (250,500);
},
{
name = top;
pos = (250,715);
}
);
layerId = "B909A847-908A-4B08-AB88-1EC2F75AB3CA";
name = Regular;
shapes = (
{
closed = 1;
nodes = (
(175,599,o),
(209,565,o),
(250,565,cs),
(291,565,o),
(325,599,o),
(325,640,cs),
(325,681,o),
(291,715,o),
(250,715,cs),
(209,715,o),
(175,681,o),
(175,640,cs)
);
},
{
closed = 1;
nodes = (
(215,659,o),
(231,675,o),
(250,675,cs),
(269,675,o),
(285,659,o),
(285,640,cs),
(285,621,o),
(269,605,o),
(250,605,cs),
(231,605,o),
(215,621,o),
(215,640,cs)
);
}
);
width = 500;
}
);
unicode = 778;
},
{
glyphname = tildecomb;
lastChange = "2024-12-23 18:16:37 +0000";
layers = (
{
anchors = (
{
name = _top;
pos = (250,500);
},
{
name = top;
pos = (250,706);
}
);
layerId = "B909A847-908A-4B08-AB88-1EC2F75AB3CA";
name = Regular;
shapes = (
{
closed = 1;
nodes = (
(100,611,l),
(107,604,o),
(114,604,o),
(121,610,c),
(135,621,o),
(161,638,o),
(182,638,cs),
(248,638,o),
(248,583,o),
(316,583,cs),
(355,583,o),
(396,621,o),
(415,640,cs),
(422,647,o),
(421,655,o),
(414,661,c),
(397,678,l),
(391,685,o),
(384,684,o),
(376,678,c),
(363,667,o),
(339,651,o),
(316,651,cs),
(248,651,o),
(247,706,o),
(182,706,cs),
(142,706,o),
(102,669,o),
(84,650,c),
(78,643,o),
(78,635,o),
(84,629,c)
);
}
);
width = 500;
}
);
unicode = 771;
},
{
glyphname = macroncomb;
lastChange = "2024-12-23 18:17:07 +0000";
layers = (
{
anchors = (
{
name = _top;
pos = (265,500);
},
{
name = top;
pos = (265,700);
}
);
layerId = "B909A847-908A-4B08-AB88-1EC2F75AB3CA";
name = Regular;
shapes = (
{
closed = 1;
nodes = (
(65,650,ls),
(65,640,o),
(70,635,o),
(80,635,cs),
(450,635,ls),
(460,635,o),
(465,640,o),
(465,650,cs),
(465,685,ls),
(465,695,o),
(460,700,o),
(450,700,cs),
(80,700,ls),
(70,700,o),
(65,695,o),
(65,685,cs)
);
}
);
width = 530;
}
);
unicode = 772;
},
{
glyphname = commaturnedabovecomb;
lastChange = "2024-12-23 20:03:17 +0000";
layers = (
{
anchors = (
{
name = _top;
pos = (118,500);
},
{
name = top;
pos = (118,785);
}
);
layerId = "B909A847-908A-4B08-AB88-1EC2F75AB3CA";
shapes = (
{
closed = 1;
nodes = (
(165,672,o),
(138,672,o),
(138,701,cs),
(138,724,o),
(163,739,o),
(172,755,cs),
(177,764,o),
(175,771,o),
(167,776,c),
(154,783,ls),
(147,787,o),
(140,786,o),
(134,780,cs),
(100,745,o),
(65,684,o),
(70,636,cs),
(73,610,o),
(92,588,o),
(118,588,cs),
(144,588,o),
(165,610,o),
(165,636,cs)
);
}
);
width = 245;
},
{
anchors = (
{
name = _top;
pos = (146,500);
},
{
name = top;
pos = (146,882);
}
);
associatedMasterId = "B909A847-908A-4B08-AB88-1EC2F75AB3CA";
layerId = m002;
name = Black;
shapes = (
{
closed = 1;
nodes = (
(109,677,o),
(55,632,o),
(43,577,cs),
(32,522,o),
(67,477,o),
(122,477,cs),
(177,477,o),
(232,522,o),
(243,577,c),
(255,632,o),
(219,677,o),
(164,677,cs)
);
},
{
closed = 1;
nodes = (
(198,882,l),
(86,800,o),
(-37,597,o),
(61,502,c),
(164,677,l),
(176,732,o),
(224,782,o),
(266,815,c)
);
}
);
width = 291;
}
);
metricLeft = "=i";
metricRight = "=|";
unicode = 786;
},
{
glyphname = commaaccentcomb;
lastChange = "2024-12-23 19:57:19 +0000";
layers = (
{
anchors = (
{
name = _bottom;
pos = (127,0);
},
{
name = bottom;
pos = (127,-247);
}
);
layerId = "B909A847-908A-4B08-AB88-1EC2F75AB3CA";
shapes = (
{
closed = 1;
nodes = (
(80,-134,o),
(107,-134,o),
(107,-163,cs),
(107,-186,o),
(82,-201,o),
(73,-217,cs),
(68,-226,o),
(70,-233,o),
(78,-238,c),
(91,-245,ls),
(98,-249,o),
(105,-248,o),
(111,-242,cs),
(145,-207,o),
(180,-146,o),
(175,-98,cs),
(172,-72,o),
(153,-50,o),
(127,-50,cs),
(101,-50,o),
(80,-72,o),
(80,-98,cs)
);
}
);
width = 245;
},
{
anchors = (
{
name = _bottom;
pos = (138,0);
},
{
name = bottom;
pos = (138,-430);
}
);
associatedMasterId = "B909A847-908A-4B08-AB88-1EC2F75AB3CA";
layerId = m002;
name = Black;
shapes = (
{
closed = 1;
nodes = (
(180,-225,o),
(225,-180,o),
(225,-125,cs),
(225,-70,o),
(180,-25,o),
(125,-25,cs),
(70,-25,o),
(25,-70,o),
(25,-125,c),
(25,-180,o),
(70,-225,o),
(125,-225,cs)
);
},
{
closed = 1;
nodes = (
(135,-430,l),
(230,-348,o),
(309,-145,o),
(191,-50,c),
(125,-225,l),
(125,-280,o),
(88,-330,o),
(53,-363,c)
);
}
);
width = 275;
}
);
metricLeft = "=i";
metricRight = "=|";
unicode = 806;
},
{
glyphname = cedillacomb;
lastChange = "2024-12-23 21:04:26 +0000";
layers = (
{
anchors = (
{
name = _bottom;
pos = (239,0);
},
{
name = bottom;
pos = (256,-150);
}
);
layerId = "B909A847-908A-4B08-AB88-1EC2F75AB3CA";
name = Regular;
shapes = (
{
closed = 1;
nodes = (
(242,-70,ls),
(259,-70,o),
(270,-77,o),
(270,-90,cs),
(270,-103,o),
(259,-111,o),
(242,-111,cs),
(236,-111,o),
(228,-110,o),
(221,-109,c),
(212,-107,o),
(206,-108,o),
(202,-116,cs),
(199,-122,l),
(194,-130,o),
(196,-138,o),
(206,-142,cs),
(216,-146,o),
(230,-150,o),
(242,-150,cs),
(284,-150,o),
(315,-130,o),
(315,-90,cs),
(315,-53,o),
(284,-36,o),
(259,-36,c),
(259,-15,ls),
(259,-5,o),
(254,0,o),
(244,0,cs),
(234,0,ls),
(224,0,o),
(219,-5,o),
(219,-15,cs),
(219,-58,ls),
(219,-68,o),
(225,-71,o),
(235,-70,c)
);
}
);
width = 470;
}
);
unicode = 807;
},
{
glyphname = ogonekcomb;
lastChange = "2024-12-23 19:39:47 +0000";
layers = (
{
anchors = (
{
name = _ogonek;
pos = (269,0);
}
);
layerId = "B909A847-908A-4B08-AB88-1EC2F75AB3CA";
name = Regular;
shapes = (
{
closed = 1;
nodes = (
(280,-104,l),
(264,-113,o),
(218,-107,o),
(218,-65,cs),
(218,0,o),
(269,0,o),
(269,0,cs),
(229,0,ls),
(204,0,o),
(173,-28,o),
(173,-65,cs),
(173,-120,o),
(204,-150,o),
(246,-150,cs),
(264,-150,o),
(286,-141,o),
(296,-135,c)
);
}
);
width = 470;
}
);
unicode = 808;
},
{
glyphname = macronbelowcomb;
lastChange = "2024-12-23 20:08:43 +0000";
layers = (
{
anchors = (
{
name = _bottom;
pos = (248,0);
},
{
name = bottom;
pos = (248,-155);
}
);
layerId = "B909A847-908A-4B08-AB88-1EC2F75AB3CA";
shapes = (
{
closed = 1;
nodes = (
(110,-140,ls),
(110,-149,o),
(116,-155,o),
(125,-155,cs),
(370,-155,ls),
(379,-155,o),
(385,-149,o),
(385,-140,cs),
(385,-115,ls),
(385,-106,o),
(379,-100,o),
(370,-100,cs),
(125,-100,ls),
(116,-100,o),
(110,-106,o),
(110,-115,cs)
);
}
);
width = 495;
},
{
anchors = (
{
name = _bottom;
pos = (248,0);
},
{
name = bottom;
pos = (248,-185);
}
);
associatedMasterId = "B909A847-908A-4B08-AB88-1EC2F75AB3CA";
layerId = m002;
name = Black;
shapes = (
{
closed = 1;
nodes = (
(110,-185,l),
(385,-185,l),
(385,-70,l),
(110,-70,l)
);
}
);
width = 495;
}
);
metricRight = "=|";
unicode = 817;
},
{
glyphname = strokeshortcomb;
lastChange = "2024-12-23 19:48:45 +0000";
layers = (
{
anchors = (
{
name = _center;
pos = (195,250);
}
);
layerId = "B909A847-908A-4B08-AB88-1EC2F75AB3CA";
shapes = (
{
closed = 1;
nodes = (
(305,220,ls),
(314,220,o),
(320,226,o),
(320,235,cs),
(320,265,ls),
(320,274,o),
(314,280,o),
(305,280,cs),
(85,280,ls),
(76,280,o),
(70,274,o),
(70,265,cs),
(70,235,ls),
(70,226,o),
(76,220,o),
(85,220,cs)
);
}
);
width = 390;
},
{
anchors = (
{
name = _center;
pos = (200,250);
}
);
associatedMasterId = "B909A847-908A-4B08-AB88-1EC2F75AB3CA";
layerId = m002;
name = Black;
shapes = (
{
closed = 1;
nodes = (
(375,190,l),
(375,310,l),
(25,310,l),
(25,190,l)
);
}
);
width = 400;
}
);
metricLeft = "=i";
metricRight = "=i";
unicode = 821;
},
{
glyphname = dieresis;
layers = (
{
layerId = "B909A847-908A-4B08-AB88-1EC2F75AB3CA";
name = Regular;
shapes = (
{
closed = 1;
nodes = (
(130,626,o),
(151,605,o),
(177,605,cs),
(203,605,o),
(225,626,o),
(225,652,cs),
(225,678,o),
(203,700,o),
(177,700,cs),
(151,700,o),
(130,678,o),
(130,652,cs)
);
},
{
closed = 1;
nodes = (
(275,626,o),
(296,605,o),
(322,605,cs),
(348,605,o),
(370,626,o),
(370,652,cs),
(370,678,o),
(348,700,o),
(322,700,cs),
(296,700,o),
(275,678,o),
(275,652,cs)
);
}
);
width = 500;
}
);
unicode = 168;
},
{
glyphname = dotaccent;
layers = (
{
layerId = "B909A847-908A-4B08-AB88-1EC2F75AB3CA";
name = Regular;
shapes = (
{
closed = 1;
nodes = (
(200,684,o),
(223,706,o),
(250,706,cs),
(278,706,o),
(300,684,o),
(300,656,cs),
(300,629,o),
(278,606,o),
(250,606,cs),
(223,606,o),
(200,629,o),
(200,656,cs)
);
}
);
width = 500;
}
);
unicode = 729;
},
{
glyphname = grave;
layers = (
{
layerId = "B909A847-908A-4B08-AB88-1EC2F75AB3CA";
name = Regular;
shapes = (
{
closed = 1;
nodes = (
(307,583,ls),
(315,578,o),
(323,580,o),
(327,588,c),
(345,619,ls),
(350,628,o),
(348,635,o),
(340,640,cs),
(197,732,ls),
(189,737,o),
(181,735,o),
(176,727,c),
(154,688,l),
(150,680,o),
(152,672,o),
(160,668,c)
);
}
);
width = 500;
}
);
unicode = 96;
},
{
glyphname = acute;
layers = (
{
layerId = "B909A847-908A-4B08-AB88-1EC2F75AB3CA";
name = Regular;
shapes = (
{
closed = 1;
nodes = (
(340,668,l),
(348,672,o),
(350,680,o),
(346,688,c),
(324,727,l),
(319,735,o),
(311,737,o),
(303,732,cs),
(160,640,ls),
(152,635,o),
(151,628,o),
(156,619,cs),
(172,592,ls),
(177,584,o),
(184,582,o),
(193,587,cs)
);
}
);
width = 500;
}
);
unicode = 180;
},
{
glyphname = hungarumlaut;
lastChange = "2024-12-23 18:15:00 +0000";
layers = (
{
layerId = "B909A847-908A-4B08-AB88-1EC2F75AB3CA";
name = Regular;
shapes = (
{
closed = 1;
nodes = (
(84,518,l),
(79,507,o),
(83,500,o),
(95,500,cs),
(118,500,ls),
(126,500,o),
(132,503,o),
(136,510,cs),
(235,682,ls),
(241,692,o),
(236,700,o),
(224,700,cs),
(187,700,ls),
(179,700,o),
(173,697,o),
(170,689,c)
);
},
{
closed = 1;
nodes = (
(209,518,l),
(204,507,o),
(208,500,o),
(220,500,cs),
(243,500,ls),
(251,500,o),
(257,503,o),
(261,510,cs),
(360,682,ls),
(366,692,o),
(361,700,o),
(349,700,cs),
(312,700,ls),
(304,700,o),
(298,697,o),
(295,689,c)
);
}
);
width = 445;
}
);
unicode = 733;
},
{
glyphname = circumflex;
layers = (
{
layerId = "B909A847-908A-4B08-AB88-1EC2F75AB3CA";
name = Regular;
shapes = (
{
closed = 1;
nodes = (
(102,567,ls),
(107,559,o),
(114,558,o),
(123,563,c),
(250,640,l),
(377,563,l),
(386,558,o),
(393,559,o),
(398,567,cs),
(412,588,ls),
(417,596,o),
(416,603,o),
(408,609,cs),
(260,717,l),
(253,723,o),
(247,723,o),
(240,717,c),
(92,609,ls),
(84,603,o),
(83,596,o),
(88,588,cs)
);
}
);
width = 500;
}
);
unicode = 710;
},
{
glyphname = caron;
layers = (
{
layerId = "B909A847-908A-4B08-AB88-1EC2F75AB3CA";
name = Regular;
shapes = (
{
closed = 1;
nodes = (
(139,676,ls),
(133,669,o),
(134,662,o),
(141,655,c),
(239,565,l),
(246,558,o),
(254,558,o),
(261,565,c),
(359,655,l),
(366,662,o),
(367,669,o),
(361,676,cs),
(350,689,l),
(343,696,o),
(336,697,o),
(328,691,cs),
(250,630,l),
(172,691,ls),
(164,697,o),
(157,696,o),
(150,689,c)
);
}
);
width = 500;
}
);
unicode = 711;
},
{
glyphname = breve;
layers = (
{
layerId = "B909A847-908A-4B08-AB88-1EC2F75AB3CA";
name = Regular;
shapes = (
{
closed = 1;
nodes = (
(102,700,ls),
(92,700,o),
(87,695,o),
(88,685,cs),
(95,602,o),
(164,538,o),
(249,538,cs),
(334,538,o),
(404,602,o),
(411,685,cs),
(412,695,o),
(407,700,o),
(397,700,cs),
(361,700,ls),
(352,700,o),
(347,695,o),
(346,686,c),
(339,639,o),
(298,603,o),
(249,603,cs),
(200,603,o),
(160,639,o),
(153,686,c),
(152,695,o),
(147,700,o),
(138,700,cs)
);
}
);
width = 499;
}
);
unicode = 728;
},
{
glyphname = ring;
layers = (
{
layerId = "B909A847-908A-4B08-AB88-1EC2F75AB3CA";
name = Regular;
shapes = (
{
closed = 1;
nodes = (
(175,599,o),
(209,565,o),
(250,565,cs),
(291,565,o),
(325,599,o),
(325,640,cs),
(325,681,o),
(291,715,o),
(250,715,cs),
(209,715,o),
(175,681,o),
(175,640,cs)
);
},
{
closed = 1;
nodes = (
(215,659,o),
(231,675,o),
(250,675,cs),
(269,675,o),
(285,659,o),
(285,640,cs),
(285,621,o),
(269,605,o),
(250,605,cs),
(231,605,o),
(215,621,o),
(215,640,cs)
);
}
);
width = 500;
}
);
unicode = 730;
},
{
glyphname = tilde;
layers = (
{
layerId = "B909A847-908A-4B08-AB88-1EC2F75AB3CA";
name = Regular;
shapes = (
{
closed = 1;
nodes = (
(100,611,l),
(107,604,o),
(114,604,o),
(121,610,c),
(135,621,o),
(161,638,o),
(182,638,cs),
(248,638,o),
(248,583,o),
(316,583,cs),
(355,583,o),
(396,621,o),
(415,640,cs),
(422,647,o),
(421,655,o),
(414,661,c),
(397,678,l),
(391,685,o),
(384,684,o),
(376,678,c),
(363,667,o),
(339,651,o),
(316,651,cs),
(248,651,o),
(247,706,o),
(182,706,cs),
(142,706,o),
(102,669,o),
(84,650,c),
(78,643,o),
(78,635,o),
(84,629,c)
);
}
);
width = 500;
}
);
unicode = 732;
},
{
glyphname = macron;
lastChange = "2024-12-23 18:16:51 +0000";
layers = (
{
layerId = "B909A847-908A-4B08-AB88-1EC2F75AB3CA";
name = Regular;
shapes = (
{
closed = 1;
nodes = (
(65,650,ls),
(65,640,o),
(70,635,o),
(80,635,cs),
(450,635,ls),
(460,635,o),
(465,640,o),
(465,650,cs),
(465,685,ls),
(465,695,o),
(460,700,o),
(450,700,cs),
(80,700,ls),
(70,700,o),
(65,695,o),
(65,685,cs)
);
}
);
width = 530;
}
);
unicode = 175;
},
{
glyphname = cedilla;
layers = (
{
layerId = "B909A847-908A-4B08-AB88-1EC2F75AB3CA";
name = Regular;
shapes = (
{
closed = 1;
nodes = (
(242,-70,ls),
(259,-70,o),
(270,-77,o),
(270,-90,cs),
(270,-103,o),
(259,-111,o),
(242,-111,cs),
(236,-111,o),
(228,-110,o),
(221,-109,c),
(212,-107,o),
(206,-108,o),
(202,-116,cs),
(199,-122,l),
(194,-130,o),
(196,-138,o),
(206,-142,cs),
(216,-146,o),
(230,-150,o),
(242,-150,cs),
(284,-150,o),
(315,-130,o),
(315,-90,cs),
(315,-53,o),
(284,-36,o),
(259,-36,c),
(259,-15,ls),
(259,-5,o),
(254,0,o),
(244,0,cs),
(234,0,ls),
(224,0,o),
(219,-5,o),
(219,-15,cs),
(219,-58,ls),
(219,-68,o),
(225,-71,o),
(235,-70,c)
);
}
);
width = 470;
}
);
unicode = 184;
},
{
glyphname = ogonek;
layers = (
{
layerId = "B909A847-908A-4B08-AB88-1EC2F75AB3CA";
name = Regular;
shapes = (
{
closed = 1;
nodes = (
(299,-104,l),
(283,-113,o),
(237,-107,o),
(237,-65,cs),
(237,0,o),
(288,0,o),
(288,0,cs),
(248,0,ls),
(223,0,o),
(192,-28,o),
(192,-65,cs),
(192,-120,o),
(223,-150,o),
(265,-150,cs),
(283,-150,o),
(305,-141,o),
(315,-135,c)
);
}
